<svg width="789" height="681" viewBox="0 0 789 681" fill="none" xmlns="http://www.w3.org/2000/svg">
<g clip-path="url(#clip0_48_72)" filter="url(#filter0_f_48_72)">
<path d="M144.357 60.7119V177.712L180.16 153.893V76.9652L144.357 60.7119ZM127.704 152.157L98.876 162.673V70.8812L127.704 78.0084V152.157ZM60.1602 149.461L82.2235 144.591V86.0034L60.2652 83.0492L60.1602 149.461Z" fill="#4CB0FC"/>
</g>
<g filter="url(#filter1_b_48_72)">
<rect x="17.1602" y="82.7119" width="317" height="229" rx="15" fill="url(#paint0_linear_48_72)"/>
<rect x="17.6602" y="83.2119" width="316" height="228" rx="14.5" stroke="url(#paint1_linear_48_72)"/>
</g>
<g clip-path="url(#clip1_48_72)" filter="url(#filter2_f_48_72)">
<path d="M589.542 185.012V302.012L622.66 278.193V201.265L589.542 185.012ZM574.138 276.457L547.472 286.973V195.181L574.138 202.309V276.457ZM511.66 273.762L532.069 268.891V210.304L511.757 207.349L511.66 273.762Z" fill="#592CB8"/>
</g>
<g clip-path="url(#clip2_48_72)" filter="url(#filter3_f_48_72)">
<path d="M256.816 335.712V432.712L285.16 412.964V349.187L256.816 335.712ZM243.633 411.525L220.81 420.243V344.143L243.633 350.052V411.525ZM190.16 409.29L207.627 405.253V356.68L190.243 354.231L190.16 409.29Z" fill="#2FB8EB"/>
</g>
<g clip-path="url(#clip3_48_72)" filter="url(#filter4_f_48_72)">
<path d="M696.896 450.712V547.712L721.66 527.964V464.187L696.896 450.712ZM685.378 526.525L665.439 535.243V459.143L685.378 465.052V526.525ZM638.66 524.29L653.921 520.253V471.68L638.733 469.231L638.66 524.29Z" fill="#00E3A5"/>
</g>
<g filter="url(#filter5_b_48_72)">
<rect x="130.16" y="338.712" width="317" height="229" rx="15" fill="url(#paint2_linear_48_72)"/>
<rect x="130.66" y="339.212" width="316" height="228" rx="14.5" stroke="url(#paint3_linear_48_72)"/>
</g>
<g filter="url(#filter6_b_48_72)">
<rect x="358.66" y="198.012" width="318" height="229" rx="15" fill="url(#paint4_linear_48_72)"/>
<rect x="359.16" y="198.512" width="317" height="228" rx="14.5" stroke="url(#paint5_linear_48_72)"/>
</g>
<g filter="url(#filter7_b_48_72)">
<rect x="470.66" y="451.712" width="318" height="229" rx="15" fill="url(#paint6_linear_48_72)"/>
<rect x="471.16" y="452.212" width="317" height="228" rx="14.5" stroke="url(#paint7_linear_48_72)"/>
</g>
<path d="M129.414 246.722V262.012H126.906V251.54L122.242 262.012H120.504L115.818 251.54V262.012H113.31V246.722H116.016L121.384 258.712L126.73 246.722H129.414ZM143.689 249.89V262.012H141.181V260.582C140.785 261.081 140.264 261.477 139.619 261.77C138.988 262.049 138.313 262.188 137.595 262.188C136.641 262.188 135.783 261.99 135.021 261.594C134.273 261.198 133.679 260.612 133.239 259.834C132.813 259.057 132.601 258.118 132.601 257.018V249.89H135.087V256.644C135.087 257.73 135.358 258.566 135.901 259.152C136.443 259.724 137.184 260.01 138.123 260.01C139.061 260.01 139.802 259.724 140.345 259.152C140.902 258.566 141.181 257.73 141.181 256.644V249.89H143.689ZM149.506 245.732V262.012H146.998V245.732H149.506ZM155.724 251.936V258.646C155.724 259.101 155.827 259.431 156.032 259.636C156.252 259.827 156.619 259.922 157.132 259.922H158.672V262.012H156.692C155.563 262.012 154.698 261.748 154.096 261.22C153.495 260.692 153.194 259.834 153.194 258.646V251.936H151.764V249.89H153.194V246.876H155.724V249.89H158.672V251.936H155.724ZM162.26 248.284C161.805 248.284 161.424 248.13 161.116 247.822C160.808 247.514 160.654 247.133 160.654 246.678C160.654 246.224 160.808 245.842 161.116 245.534C161.424 245.226 161.805 245.072 162.26 245.072C162.7 245.072 163.074 245.226 163.382 245.534C163.69 245.842 163.844 246.224 163.844 246.678C163.844 247.133 163.69 247.514 163.382 247.822C163.074 248.13 162.7 248.284 162.26 248.284ZM163.492 249.89V262.012H160.984V249.89H163.492ZM176.091 252.992V255.104H167.049V252.992H176.091ZM178.818 254.334C178.818 252.838 179.163 251.496 179.852 250.308C180.556 249.12 181.502 248.196 182.69 247.536C183.893 246.862 185.205 246.524 186.628 246.524C188.256 246.524 189.701 246.928 190.962 247.734C192.238 248.526 193.162 249.656 193.734 251.122H190.72C190.324 250.316 189.774 249.714 189.07 249.318C188.366 248.922 187.552 248.724 186.628 248.724C185.616 248.724 184.714 248.952 183.922 249.406C183.13 249.861 182.507 250.514 182.052 251.364C181.612 252.215 181.392 253.205 181.392 254.334C181.392 255.464 181.612 256.454 182.052 257.304C182.507 258.155 183.13 258.815 183.922 259.284C184.714 259.739 185.616 259.966 186.628 259.966C187.552 259.966 188.366 259.768 189.07 259.372C189.774 258.976 190.324 258.375 190.72 257.568H193.734C193.162 259.035 192.238 260.164 190.962 260.956C189.701 261.748 188.256 262.144 186.628 262.144C185.191 262.144 183.878 261.814 182.69 261.154C181.502 260.48 180.556 259.548 179.852 258.36C179.163 257.172 178.818 255.83 178.818 254.334ZM202.94 249.692C203.864 249.692 204.685 249.89 205.404 250.286C206.137 250.682 206.709 251.269 207.12 252.046C207.545 252.824 207.758 253.762 207.758 254.862V262.012H205.272V255.236C205.272 254.151 205 253.322 204.458 252.75C203.915 252.164 203.174 251.87 202.236 251.87C201.297 251.87 200.549 252.164 199.992 252.75C199.449 253.322 199.178 254.151 199.178 255.236V262.012H196.67V245.732H199.178V251.298C199.603 250.785 200.138 250.389 200.784 250.11C201.444 249.832 202.162 249.692 202.94 249.692ZM210.121 255.896C210.121 254.679 210.37 253.601 210.869 252.662C211.382 251.724 212.071 250.998 212.937 250.484C213.817 249.956 214.785 249.692 215.841 249.692C216.794 249.692 217.623 249.883 218.327 250.264C219.045 250.631 219.617 251.093 220.043 251.65V249.89H222.573V262.012H220.043V260.208C219.617 260.78 219.038 261.257 218.305 261.638C217.571 262.02 216.735 262.21 215.797 262.21C214.755 262.21 213.802 261.946 212.937 261.418C212.071 260.876 211.382 260.128 210.869 259.174C210.37 258.206 210.121 257.114 210.121 255.896ZM220.043 255.94C220.043 255.104 219.867 254.378 219.515 253.762C219.177 253.146 218.73 252.677 218.173 252.354C217.615 252.032 217.014 251.87 216.369 251.87C215.723 251.87 215.122 252.032 214.565 252.354C214.007 252.662 213.553 253.124 213.201 253.74C212.863 254.342 212.695 255.06 212.695 255.896C212.695 256.732 212.863 257.466 213.201 258.096C213.553 258.727 214.007 259.211 214.565 259.548C215.137 259.871 215.738 260.032 216.369 260.032C217.014 260.032 217.615 259.871 218.173 259.548C218.73 259.226 219.177 258.756 219.515 258.14C219.867 257.51 220.043 256.776 220.043 255.94ZM227.143 248.284C226.688 248.284 226.307 248.13 225.999 247.822C225.691 247.514 225.537 247.133 225.537 246.678C225.537 246.224 225.691 245.842 225.999 245.534C226.307 245.226 226.688 245.072 227.143 245.072C227.583 245.072 227.957 245.226 228.265 245.534C228.573 245.842 228.727 246.224 228.727 246.678C228.727 247.133 228.573 247.514 228.265 247.822C227.957 248.13 227.583 248.284 227.143 248.284ZM228.375 249.89V262.012H225.867V249.89H228.375ZM237.784 249.692C238.737 249.692 239.588 249.89 240.336 250.286C241.098 250.682 241.692 251.269 242.118 252.046C242.543 252.824 242.756 253.762 242.756 254.862V262.012H240.27V255.236C240.27 254.151 239.998 253.322 239.456 252.75C238.913 252.164 238.172 251.87 237.234 251.87C236.295 251.87 235.547 252.164 234.99 252.75C234.447 253.322 234.176 254.151 234.176 255.236V262.012H231.668V249.89H234.176V251.276C234.586 250.778 235.107 250.389 235.738 250.11C236.383 249.832 237.065 249.692 237.784 249.692Z" fill="#BDF3FF"/>
<path d="M435.848 378.166C434.821 378.166 433.897 377.99 433.076 377.638C432.255 377.272 431.609 376.758 431.14 376.098C430.671 375.438 430.436 374.668 430.436 373.788H433.12C433.179 374.448 433.435 374.991 433.89 375.416C434.359 375.842 435.012 376.054 435.848 376.054C436.713 376.054 437.388 375.849 437.872 375.438C438.356 375.013 438.598 374.47 438.598 373.81C438.598 373.297 438.444 372.879 438.136 372.556C437.843 372.234 437.469 371.984 437.014 371.808C436.574 371.632 435.958 371.442 435.166 371.236C434.169 370.972 433.355 370.708 432.724 370.444C432.108 370.166 431.58 369.74 431.14 369.168C430.7 368.596 430.48 367.834 430.48 366.88C430.48 366 430.7 365.23 431.14 364.57C431.58 363.91 432.196 363.404 432.988 363.052C433.78 362.7 434.697 362.524 435.738 362.524C437.219 362.524 438.429 362.898 439.368 363.646C440.321 364.38 440.849 365.392 440.952 366.682H438.18C438.136 366.125 437.872 365.648 437.388 365.252C436.904 364.856 436.266 364.658 435.474 364.658C434.755 364.658 434.169 364.842 433.714 365.208C433.259 365.575 433.032 366.103 433.032 366.792C433.032 367.262 433.171 367.65 433.45 367.958C433.743 368.252 434.11 368.486 434.55 368.662C434.99 368.838 435.591 369.029 436.354 369.234C437.366 369.513 438.187 369.792 438.818 370.07C439.463 370.349 440.006 370.782 440.446 371.368C440.901 371.94 441.128 372.71 441.128 373.678C441.128 374.456 440.915 375.189 440.49 375.878C440.079 376.568 439.471 377.125 438.664 377.55C437.872 377.961 436.933 378.166 435.848 378.166ZM455.198 371.654C455.198 372.109 455.168 372.52 455.11 372.886H445.848C445.921 373.854 446.28 374.632 446.926 375.218C447.571 375.805 448.363 376.098 449.302 376.098C450.651 376.098 451.604 375.534 452.162 374.404H454.867C454.501 375.519 453.834 376.436 452.866 377.154C451.912 377.858 450.724 378.21 449.302 378.21C448.143 378.21 447.102 377.954 446.178 377.44C445.268 376.912 444.55 376.179 444.022 375.24C443.508 374.287 443.252 373.187 443.252 371.94C443.252 370.694 443.501 369.601 444 368.662C444.513 367.709 445.224 366.976 446.134 366.462C447.058 365.949 448.114 365.692 449.302 365.692C450.446 365.692 451.465 365.942 452.36 366.44C453.254 366.939 453.951 367.643 454.45 368.552C454.948 369.447 455.198 370.481 455.198 371.654ZM452.58 370.862C452.565 369.938 452.235 369.198 451.59 368.64C450.944 368.083 450.145 367.804 449.192 367.804C448.326 367.804 447.586 368.083 446.97 368.64C446.354 369.183 445.987 369.924 445.87 370.862H452.58ZM456.83 371.94C456.83 370.694 457.079 369.601 457.578 368.662C458.091 367.709 458.795 366.976 459.69 366.462C460.584 365.949 461.611 365.692 462.77 365.692C464.236 365.692 465.446 366.044 466.4 366.748C467.368 367.438 468.02 368.428 468.358 369.718H465.652C465.432 369.117 465.08 368.648 464.596 368.31C464.112 367.973 463.503 367.804 462.77 367.804C461.743 367.804 460.922 368.171 460.306 368.904C459.704 369.623 459.404 370.635 459.404 371.94C459.404 373.246 459.704 374.265 460.306 374.998C460.922 375.732 461.743 376.098 462.77 376.098C464.222 376.098 465.182 375.46 465.652 374.184H468.358C468.006 375.416 467.346 376.399 466.378 377.132C465.41 377.851 464.207 378.21 462.77 378.21C461.611 378.21 460.584 377.954 459.69 377.44C458.795 376.912 458.091 376.179 457.578 375.24C457.079 374.287 456.83 373.187 456.83 371.94ZM481.835 365.89V378.012H479.327V376.582C478.931 377.081 478.41 377.477 477.765 377.77C477.134 378.049 476.46 378.188 475.741 378.188C474.788 378.188 473.93 377.99 473.167 377.594C472.419 377.198 471.825 376.612 471.385 375.834C470.96 375.057 470.747 374.118 470.747 373.018V365.89H473.233V372.644C473.233 373.73 473.504 374.566 474.047 375.152C474.59 375.724 475.33 376.01 476.269 376.01C477.208 376.01 477.948 375.724 478.491 375.152C479.048 374.566 479.327 373.73 479.327 372.644V365.89H481.835ZM487.652 367.65C488.019 367.034 488.503 366.558 489.104 366.22C489.72 365.868 490.446 365.692 491.282 365.692V368.288H490.644C489.661 368.288 488.913 368.538 488.4 369.036C487.901 369.535 487.652 370.4 487.652 371.632V378.012H485.144V365.89H487.652V367.65ZM504.698 371.654C504.698 372.109 504.668 372.52 504.61 372.886H495.348C495.421 373.854 495.78 374.632 496.426 375.218C497.071 375.805 497.863 376.098 498.802 376.098C500.151 376.098 501.104 375.534 501.662 374.404H504.367C504.001 375.519 503.334 376.436 502.366 377.154C501.412 377.858 500.224 378.21 498.802 378.21C497.643 378.21 496.602 377.954 495.678 377.44C494.768 376.912 494.05 376.179 493.522 375.24C493.008 374.287 492.752 373.187 492.752 371.94C492.752 370.694 493.001 369.601 493.5 368.662C494.013 367.709 494.724 366.976 495.634 366.462C496.558 365.949 497.614 365.692 498.802 365.692C499.946 365.692 500.965 365.942 501.86 366.44C502.754 366.939 503.451 367.643 503.95 368.552C504.448 369.447 504.698 370.481 504.698 371.654ZM502.08 370.862C502.065 369.938 501.735 369.198 501.09 368.64C500.444 368.083 499.645 367.804 498.692 367.804C497.826 367.804 497.086 368.083 496.47 368.64C495.854 369.183 495.487 369.924 495.37 370.862H502.08ZM506.33 371.896C506.33 370.679 506.579 369.601 507.078 368.662C507.591 367.724 508.28 366.998 509.146 366.484C510.026 365.956 511.001 365.692 512.072 365.692C512.864 365.692 513.641 365.868 514.404 366.22C515.181 366.558 515.797 367.012 516.252 367.584V361.732H518.782V378.012H516.252V376.186C515.841 376.773 515.269 377.257 514.536 377.638C513.817 378.02 512.988 378.21 512.05 378.21C510.994 378.21 510.026 377.946 509.146 377.418C508.28 376.876 507.591 376.128 507.078 375.174C506.579 374.206 506.33 373.114 506.33 371.896ZM516.252 371.94C516.252 371.104 516.076 370.378 515.724 369.762C515.386 369.146 514.939 368.677 514.382 368.354C513.824 368.032 513.223 367.87 512.578 367.87C511.932 367.87 511.331 368.032 510.774 368.354C510.216 368.662 509.762 369.124 509.41 369.74C509.072 370.342 508.904 371.06 508.904 371.896C508.904 372.732 509.072 373.466 509.41 374.096C509.762 374.727 510.216 375.211 510.774 375.548C511.346 375.871 511.947 376.032 512.578 376.032C513.223 376.032 513.824 375.871 514.382 375.548C514.939 375.226 515.386 374.756 515.724 374.14C516.076 373.51 516.252 372.776 516.252 371.94ZM532.829 378.166C531.802 378.166 530.878 377.99 530.057 377.638C529.235 377.272 528.59 376.758 528.121 376.098C527.651 375.438 527.417 374.668 527.417 373.788H530.101C530.159 374.448 530.416 374.991 530.871 375.416C531.34 375.842 531.993 376.054 532.829 376.054C533.694 376.054 534.369 375.849 534.853 375.438C535.337 375.013 535.579 374.47 535.579 373.81C535.579 373.297 535.425 372.879 535.117 372.556C534.823 372.234 534.449 371.984 533.995 371.808C533.555 371.632 532.939 371.442 532.147 371.236C531.149 370.972 530.335 370.708 529.705 370.444C529.089 370.166 528.561 369.74 528.121 369.168C527.681 368.596 527.461 367.834 527.461 366.88C527.461 366 527.681 365.23 528.121 364.57C528.561 363.91 529.177 363.404 529.969 363.052C530.761 362.7 531.677 362.524 532.719 362.524C534.2 362.524 535.41 362.898 536.349 363.646C537.302 364.38 537.83 365.392 537.933 366.682H535.161C535.117 366.125 534.853 365.648 534.369 365.252C533.885 364.856 533.247 364.658 532.455 364.658C531.736 364.658 531.149 364.842 530.695 365.208C530.24 365.575 530.013 366.103 530.013 366.792C530.013 367.262 530.152 367.65 530.431 367.958C530.724 368.252 531.091 368.486 531.531 368.662C531.971 368.838 532.572 369.029 533.335 369.234C534.347 369.513 535.168 369.792 535.799 370.07C536.444 370.349 536.987 370.782 537.427 371.368C537.881 371.94 538.109 372.71 538.109 373.678C538.109 374.456 537.896 375.189 537.471 375.878C537.06 376.568 536.451 377.125 535.645 377.55C534.853 377.961 533.914 378.166 532.829 378.166ZM551.98 365.89L544.544 383.71H541.948L544.412 377.814L539.638 365.89H542.432L545.842 375.13L549.384 365.89H551.98ZM558.273 378.21C557.319 378.21 556.461 378.042 555.699 377.704C554.951 377.352 554.357 376.883 553.917 376.296C553.477 375.695 553.242 375.028 553.213 374.294H555.809C555.853 374.808 556.095 375.24 556.535 375.592C556.989 375.93 557.554 376.098 558.229 376.098C558.933 376.098 559.475 375.966 559.857 375.702C560.253 375.424 560.451 375.072 560.451 374.646C560.451 374.192 560.231 373.854 559.791 373.634C559.365 373.414 558.683 373.172 557.745 372.908C556.835 372.659 556.095 372.417 555.523 372.182C554.951 371.948 554.452 371.588 554.027 371.104C553.616 370.62 553.411 369.982 553.411 369.19C553.411 368.545 553.601 367.958 553.983 367.43C554.364 366.888 554.907 366.462 555.611 366.154C556.329 365.846 557.151 365.692 558.075 365.692C559.453 365.692 560.561 366.044 561.397 366.748C562.247 367.438 562.702 368.384 562.761 369.586H560.253C560.209 369.044 559.989 368.611 559.593 368.288C559.197 367.966 558.661 367.804 557.987 367.804C557.327 367.804 556.821 367.929 556.469 368.178C556.117 368.428 555.941 368.758 555.941 369.168C555.941 369.491 556.058 369.762 556.293 369.982C556.527 370.202 556.813 370.378 557.151 370.51C557.488 370.628 557.987 370.782 558.647 370.972C559.527 371.207 560.245 371.449 560.803 371.698C561.375 371.933 561.866 372.285 562.277 372.754C562.687 373.224 562.9 373.847 562.915 374.624C562.915 375.314 562.724 375.93 562.343 376.472C561.961 377.015 561.419 377.44 560.715 377.748C560.025 378.056 559.211 378.21 558.273 378.21ZM568.551 367.936V374.646C568.551 375.101 568.653 375.431 568.859 375.636C569.079 375.827 569.445 375.922 569.959 375.922H571.499V378.012H569.519C568.389 378.012 567.524 377.748 566.923 377.22C566.321 376.692 566.021 375.834 566.021 374.646V367.936H564.591V365.89H566.021V362.876H568.551V365.89H571.499V367.936H568.551ZM584.92 371.654C584.92 372.109 584.891 372.52 584.832 372.886H575.57C575.643 373.854 576.003 374.632 576.648 375.218C577.293 375.805 578.085 376.098 579.024 376.098C580.373 376.098 581.327 375.534 581.884 374.404H584.59C584.223 375.519 583.556 376.436 582.588 377.154C581.635 377.858 580.447 378.21 579.024 378.21C577.865 378.21 576.824 377.954 575.9 377.44C574.991 376.912 574.272 376.179 573.744 375.24C573.231 374.287 572.974 373.187 572.974 371.94C572.974 370.694 573.223 369.601 573.722 368.662C574.235 367.709 574.947 366.976 575.856 366.462C576.78 365.949 577.836 365.692 579.024 365.692C580.168 365.692 581.187 365.942 582.082 366.44C582.977 366.939 583.673 367.643 584.172 368.552C584.671 369.447 584.92 370.481 584.92 371.654ZM582.302 370.862C582.287 369.938 581.957 369.198 581.312 368.64C580.667 368.083 579.867 367.804 578.914 367.804C578.049 367.804 577.308 368.083 576.692 368.64C576.076 369.183 575.709 369.924 575.592 370.862H582.302ZM602.062 365.692C603.016 365.692 603.866 365.89 604.614 366.286C605.377 366.682 605.971 367.269 606.396 368.046C606.836 368.824 607.056 369.762 607.056 370.862V378.012H604.57V371.236C604.57 370.151 604.299 369.322 603.756 368.75C603.214 368.164 602.473 367.87 601.534 367.87C600.596 367.87 599.848 368.164 599.29 368.75C598.748 369.322 598.476 370.151 598.476 371.236V378.012H595.99V371.236C595.99 370.151 595.719 369.322 595.176 368.75C594.634 368.164 593.893 367.87 592.954 367.87C592.016 367.87 591.268 368.164 590.71 368.75C590.168 369.322 589.896 370.151 589.896 371.236V378.012H587.388V365.89H589.896V367.276C590.307 366.778 590.828 366.389 591.458 366.11C592.089 365.832 592.764 365.692 593.482 365.692C594.45 365.692 595.316 365.898 596.078 366.308C596.841 366.719 597.428 367.313 597.838 368.09C598.205 367.357 598.777 366.778 599.554 366.352C600.332 365.912 601.168 365.692 602.062 365.692Z" fill="#BDF3FF"/>
<path d="M214.848 518.866C213.821 518.866 212.897 518.69 212.076 518.338C211.255 517.971 210.609 517.458 210.14 516.798C209.671 516.138 209.436 515.368 209.436 514.488H212.12C212.179 515.148 212.435 515.691 212.89 516.116C213.359 516.541 214.012 516.754 214.848 516.754C215.713 516.754 216.388 516.549 216.872 516.138C217.356 515.713 217.598 515.17 217.598 514.51C217.598 513.997 217.444 513.579 217.136 513.256C216.843 512.933 216.469 512.684 216.014 512.508C215.574 512.332 214.958 512.141 214.166 511.936C213.169 511.672 212.355 511.408 211.724 511.144C211.108 510.865 210.58 510.44 210.14 509.868C209.7 509.296 209.48 508.533 209.48 507.58C209.48 506.7 209.7 505.93 210.14 505.27C210.58 504.61 211.196 504.104 211.988 503.752C212.78 503.4 213.697 503.224 214.738 503.224C216.219 503.224 217.429 503.598 218.368 504.346C219.321 505.079 219.849 506.091 219.952 507.382H217.18C217.136 506.825 216.872 506.348 216.388 505.952C215.904 505.556 215.266 505.358 214.474 505.358C213.755 505.358 213.169 505.541 212.714 505.908C212.259 506.275 212.032 506.803 212.032 507.492C212.032 507.961 212.171 508.35 212.45 508.658C212.743 508.951 213.11 509.186 213.55 509.362C213.99 509.538 214.591 509.729 215.354 509.934C216.366 510.213 217.187 510.491 217.818 510.77C218.463 511.049 219.006 511.481 219.446 512.068C219.901 512.64 220.128 513.41 220.128 514.378C220.128 515.155 219.915 515.889 219.49 516.578C219.079 517.267 218.471 517.825 217.664 518.25C216.872 518.661 215.933 518.866 214.848 518.866ZM222.252 512.596C222.252 511.379 222.501 510.301 223 509.362C223.513 508.423 224.202 507.697 225.068 507.184C225.948 506.656 226.916 506.392 227.972 506.392C228.925 506.392 229.754 506.583 230.458 506.964C231.176 507.331 231.748 507.793 232.174 508.35V506.59H234.704V518.712H232.174V516.908C231.748 517.48 231.169 517.957 230.436 518.338C229.702 518.719 228.866 518.91 227.928 518.91C226.886 518.91 225.933 518.646 225.068 518.118C224.202 517.575 223.513 516.827 223 515.874C222.501 514.906 222.252 513.813 222.252 512.596ZM232.174 512.64C232.174 511.804 231.998 511.078 231.646 510.462C231.308 509.846 230.861 509.377 230.304 509.054C229.746 508.731 229.145 508.57 228.5 508.57C227.854 508.57 227.253 508.731 226.696 509.054C226.138 509.362 225.684 509.824 225.332 510.44C224.994 511.041 224.826 511.76 224.826 512.596C224.826 513.432 224.994 514.165 225.332 514.796C225.684 515.427 226.138 515.911 226.696 516.248C227.268 516.571 227.869 516.732 228.5 516.732C229.145 516.732 229.746 516.571 230.304 516.248C230.861 515.925 231.308 515.456 231.646 514.84C231.998 514.209 232.174 513.476 232.174 512.64ZM243.08 508.636H240.836V518.712H238.306V508.636H236.876V506.59H238.306V505.732C238.306 504.339 238.672 503.327 239.406 502.696C240.154 502.051 241.32 501.728 242.904 501.728V503.818C242.141 503.818 241.606 503.965 241.298 504.258C240.99 504.537 240.836 505.028 240.836 505.732V506.59H243.08V508.636ZM256.412 512.354C256.412 512.809 256.383 513.219 256.324 513.586H247.062C247.136 514.554 247.495 515.331 248.14 515.918C248.786 516.505 249.578 516.798 250.516 516.798C251.866 516.798 252.819 516.233 253.376 515.104H256.082C255.716 516.219 255.048 517.135 254.08 517.854C253.127 518.558 251.939 518.91 250.516 518.91C249.358 518.91 248.316 518.653 247.392 518.14C246.483 517.612 245.764 516.879 245.236 515.94C244.723 514.987 244.466 513.887 244.466 512.64C244.466 511.393 244.716 510.301 245.214 509.362C245.728 508.409 246.439 507.675 247.348 507.162C248.272 506.649 249.328 506.392 250.516 506.392C251.66 506.392 252.68 506.641 253.574 507.14C254.469 507.639 255.166 508.343 255.664 509.252C256.163 510.147 256.412 511.181 256.412 512.354ZM253.794 511.562C253.78 510.638 253.45 509.897 252.804 509.34C252.159 508.783 251.36 508.504 250.406 508.504C249.541 508.504 248.8 508.783 248.184 509.34C247.568 509.883 247.202 510.623 247.084 511.562H253.794ZM284.505 503.422L279.973 518.712H277.135L273.923 507.14L270.513 518.712L267.697 518.734L263.363 503.422H266.025L269.193 515.874L272.625 503.422H275.441L278.631 515.808L281.821 503.422H284.505ZM285.738 512.596C285.738 511.379 285.987 510.301 286.486 509.362C286.999 508.423 287.688 507.697 288.554 507.184C289.434 506.656 290.402 506.392 291.458 506.392C292.411 506.392 293.24 506.583 293.944 506.964C294.662 507.331 295.234 507.793 295.66 508.35V506.59H298.19V518.712H295.66V516.908C295.234 517.48 294.655 517.957 293.922 518.338C293.188 518.719 292.352 518.91 291.414 518.91C290.372 518.91 289.419 518.646 288.554 518.118C287.688 517.575 286.999 516.827 286.486 515.874C285.987 514.906 285.738 513.813 285.738 512.596ZM295.66 512.64C295.66 511.804 295.484 511.078 295.132 510.462C294.794 509.846 294.347 509.377 293.79 509.054C293.232 508.731 292.631 508.57 291.986 508.57C291.34 508.57 290.739 508.731 290.182 509.054C289.624 509.362 289.17 509.824 288.818 510.44C288.48 511.041 288.312 511.76 288.312 512.596C288.312 513.432 288.48 514.165 288.818 514.796C289.17 515.427 289.624 515.911 290.182 516.248C290.754 516.571 291.355 516.732 291.986 516.732C292.631 516.732 293.232 516.571 293.79 516.248C294.347 515.925 294.794 515.456 295.132 514.84C295.484 514.209 295.66 513.476 295.66 512.64ZM303.992 502.432V518.712H301.484V502.432H303.992ZM309.793 502.432V518.712H307.285V502.432H309.793ZM324.196 512.354C324.196 512.809 324.166 513.219 324.108 513.586H314.846C314.919 514.554 315.278 515.331 315.924 515.918C316.569 516.505 317.361 516.798 318.3 516.798C319.649 516.798 320.602 516.233 321.16 515.104H323.866C323.499 516.219 322.832 517.135 321.864 517.854C320.91 518.558 319.722 518.91 318.3 518.91C317.141 518.91 316.1 518.653 315.176 518.14C314.266 517.612 313.548 516.879 313.02 515.94C312.506 514.987 312.25 513.887 312.25 512.64C312.25 511.393 312.499 510.301 312.998 509.362C313.511 508.409 314.222 507.675 315.132 507.162C316.056 506.649 317.112 506.392 318.3 506.392C319.444 506.392 320.463 506.641 321.358 507.14C322.252 507.639 322.949 508.343 323.448 509.252C323.946 510.147 324.196 511.181 324.196 512.354ZM321.578 511.562C321.563 510.638 321.233 509.897 320.588 509.34C319.942 508.783 319.143 508.504 318.19 508.504C317.324 508.504 316.584 508.783 315.968 509.34C315.352 509.883 314.985 510.623 314.868 511.562H321.578ZM329.59 508.636V515.346C329.59 515.801 329.692 516.131 329.898 516.336C330.118 516.527 330.484 516.622 330.998 516.622H332.538V518.712H330.558C329.428 518.712 328.563 518.448 327.962 517.92C327.36 517.392 327.06 516.534 327.06 515.346V508.636H325.63V506.59H327.06V503.576H329.59V506.59H332.538V508.636H329.59Z" fill="#BDF3FF"/>
<path d="M536.648 602.71V604.756H530.158V609.266H535.218V611.312H530.158V618H527.65V602.71H536.648ZM538.136 611.884C538.136 610.667 538.386 609.589 538.884 608.65C539.398 607.711 540.087 606.985 540.952 606.472C541.832 605.944 542.8 605.68 543.856 605.68C544.81 605.68 545.638 605.871 546.342 606.252C547.061 606.619 547.633 607.081 548.058 607.638V605.878H550.588V618H548.058V616.196C547.633 616.768 547.054 617.245 546.32 617.626C545.587 618.007 544.751 618.198 543.812 618.198C542.771 618.198 541.818 617.934 540.952 617.406C540.087 616.863 539.398 616.115 538.884 615.162C538.386 614.194 538.136 613.101 538.136 611.884ZM548.058 611.928C548.058 611.092 547.882 610.366 547.53 609.75C547.193 609.134 546.746 608.665 546.188 608.342C545.631 608.019 545.03 607.858 544.384 607.858C543.739 607.858 543.138 608.019 542.58 608.342C542.023 608.65 541.568 609.112 541.216 609.728C540.879 610.329 540.71 611.048 540.71 611.884C540.71 612.72 540.879 613.453 541.216 614.084C541.568 614.715 542.023 615.199 542.58 615.536C543.152 615.859 543.754 616.02 544.384 616.02C545.03 616.02 545.631 615.859 546.188 615.536C546.746 615.213 547.193 614.744 547.53 614.128C547.882 613.497 548.058 612.764 548.058 611.928ZM558.282 618.198C557.329 618.198 556.471 618.029 555.708 617.692C554.96 617.34 554.366 616.871 553.926 616.284C553.486 615.683 553.252 615.015 553.222 614.282H555.818C555.862 614.795 556.104 615.228 556.544 615.58C556.999 615.917 557.564 616.086 558.238 616.086C558.942 616.086 559.485 615.954 559.866 615.69C560.262 615.411 560.46 615.059 560.46 614.634C560.46 614.179 560.24 613.842 559.8 613.622C559.375 613.402 558.693 613.16 557.754 612.896C556.845 612.647 556.104 612.405 555.532 612.17C554.96 611.935 554.462 611.576 554.036 611.092C553.626 610.608 553.42 609.97 553.42 609.178C553.42 608.533 553.611 607.946 553.992 607.418C554.374 606.875 554.916 606.45 555.62 606.142C556.339 605.834 557.16 605.68 558.084 605.68C559.463 605.68 560.57 606.032 561.406 606.736C562.257 607.425 562.712 608.371 562.77 609.574H560.262C560.218 609.031 559.998 608.599 559.602 608.276C559.206 607.953 558.671 607.792 557.996 607.792C557.336 607.792 556.83 607.917 556.478 608.166C556.126 608.415 555.95 608.745 555.95 609.156C555.95 609.479 556.068 609.75 556.302 609.97C556.537 610.19 556.823 610.366 557.16 610.498C557.498 610.615 557.996 610.769 558.656 610.96C559.536 611.195 560.255 611.437 560.812 611.686C561.384 611.921 561.876 612.273 562.286 612.742C562.697 613.211 562.91 613.835 562.924 614.612C562.924 615.301 562.734 615.917 562.352 616.46C561.971 617.003 561.428 617.428 560.724 617.736C560.035 618.044 559.221 618.198 558.282 618.198ZM568.56 607.924V614.634C568.56 615.089 568.663 615.419 568.868 615.624C569.088 615.815 569.455 615.91 569.968 615.91H571.508V618H569.528C568.399 618 567.534 617.736 566.932 617.208C566.331 616.68 566.03 615.822 566.03 614.634V607.924H564.6V605.878H566.03V602.864H568.56V605.878H571.508V607.924H568.56ZM591.349 618L589.457 616.108C588.723 616.841 587.924 617.391 587.059 617.758C586.193 618.11 585.225 618.286 584.155 618.286C583.069 618.286 582.109 618.095 581.273 617.714C580.437 617.333 579.791 616.79 579.337 616.086C578.882 615.367 578.655 614.539 578.655 613.6C578.655 612.544 578.955 611.605 579.557 610.784C580.158 609.948 581.053 609.288 582.241 608.804C581.815 608.291 581.515 607.814 581.339 607.374C581.163 606.919 581.075 606.421 581.075 605.878C581.075 605.203 581.243 604.602 581.581 604.074C581.933 603.546 582.431 603.128 583.077 602.82C583.722 602.512 584.47 602.358 585.321 602.358C586.186 602.358 586.919 602.527 587.521 602.864C588.137 603.187 588.591 603.634 588.885 604.206C589.193 604.778 589.317 605.416 589.259 606.12H586.751C586.765 605.577 586.633 605.159 586.355 604.866C586.076 604.558 585.695 604.404 585.211 604.404C584.727 604.404 584.331 604.551 584.023 604.844C583.729 605.123 583.583 605.467 583.583 605.878C583.583 606.274 583.693 606.67 583.913 607.066C584.147 607.447 584.551 607.946 585.123 608.562L589.171 612.588L590.733 610.014H593.439L591.459 613.402L590.909 614.304L594.627 618H591.349ZM584.155 616.152C585.533 616.152 586.751 615.587 587.807 614.458L583.759 610.388C582.028 611.077 581.163 612.119 581.163 613.512C581.163 614.26 581.441 614.891 581.999 615.404C582.556 615.903 583.275 616.152 584.155 616.152ZM607.024 618.154C605.997 618.154 605.073 617.978 604.252 617.626C603.431 617.259 602.785 616.746 602.316 616.086C601.847 615.426 601.612 614.656 601.612 613.776H604.296C604.355 614.436 604.611 614.979 605.066 615.404C605.535 615.829 606.188 616.042 607.024 616.042C607.889 616.042 608.564 615.837 609.048 615.426C609.532 615.001 609.774 614.458 609.774 613.798C609.774 613.285 609.62 612.867 609.312 612.544C609.019 612.221 608.645 611.972 608.19 611.796C607.75 611.62 607.134 611.429 606.342 611.224C605.345 610.96 604.531 610.696 603.9 610.432C603.284 610.153 602.756 609.728 602.316 609.156C601.876 608.584 601.656 607.821 601.656 606.868C601.656 605.988 601.876 605.218 602.316 604.558C602.756 603.898 603.372 603.392 604.164 603.04C604.956 602.688 605.873 602.512 606.914 602.512C608.395 602.512 609.605 602.886 610.544 603.634C611.497 604.367 612.025 605.379 612.128 606.67H609.356C609.312 606.113 609.048 605.636 608.564 605.24C608.08 604.844 607.442 604.646 606.65 604.646C605.931 604.646 605.345 604.829 604.89 605.196C604.435 605.563 604.208 606.091 604.208 606.78C604.208 607.249 604.347 607.638 604.626 607.946C604.919 608.239 605.286 608.474 605.726 608.65C606.166 608.826 606.767 609.017 607.53 609.222C608.542 609.501 609.363 609.779 609.994 610.058C610.639 610.337 611.182 610.769 611.622 611.356C612.077 611.928 612.304 612.698 612.304 613.666C612.304 614.443 612.091 615.177 611.666 615.866C611.255 616.555 610.647 617.113 609.84 617.538C609.048 617.949 608.109 618.154 607.024 618.154ZM626.373 611.642C626.373 612.097 626.344 612.507 626.285 612.874H617.023C617.097 613.842 617.456 614.619 618.101 615.206C618.747 615.793 619.539 616.086 620.477 616.086C621.827 616.086 622.78 615.521 623.337 614.392H626.043C625.677 615.507 625.009 616.423 624.041 617.142C623.088 617.846 621.9 618.198 620.477 618.198C619.319 618.198 618.277 617.941 617.353 617.428C616.444 616.9 615.725 616.167 615.197 615.228C614.684 614.275 614.427 613.175 614.427 611.928C614.427 610.681 614.677 609.589 615.175 608.65C615.689 607.697 616.4 606.963 617.309 606.45C618.233 605.937 619.289 605.68 620.477 605.68C621.621 605.68 622.641 605.929 623.535 606.428C624.43 606.927 625.127 607.631 625.625 608.54C626.124 609.435 626.373 610.469 626.373 611.642ZM623.755 610.85C623.741 609.926 623.411 609.185 622.765 608.628C622.12 608.071 621.321 607.792 620.367 607.792C619.502 607.792 618.761 608.071 618.145 608.628C617.529 609.171 617.163 609.911 617.045 610.85H623.755ZM628.005 611.928C628.005 610.681 628.255 609.589 628.753 608.65C629.267 607.697 629.971 606.963 630.865 606.45C631.76 605.937 632.787 605.68 633.945 605.68C635.412 605.68 636.622 606.032 637.575 606.736C638.543 607.425 639.196 608.415 639.533 609.706H636.827C636.607 609.105 636.255 608.635 635.771 608.298C635.287 607.961 634.679 607.792 633.945 607.792C632.919 607.792 632.097 608.159 631.481 608.892C630.88 609.611 630.579 610.623 630.579 611.928C630.579 613.233 630.88 614.253 631.481 614.986C632.097 615.719 632.919 616.086 633.945 616.086C635.397 616.086 636.358 615.448 636.827 614.172H639.533C639.181 615.404 638.521 616.387 637.553 617.12C636.585 617.839 635.383 618.198 633.945 618.198C632.787 618.198 631.76 617.941 630.865 617.428C629.971 616.9 629.267 616.167 628.753 615.228C628.255 614.275 628.005 613.175 628.005 611.928ZM653.011 605.878V618H650.503V616.57C650.107 617.069 649.586 617.465 648.941 617.758C648.31 618.037 647.635 618.176 646.917 618.176C645.963 618.176 645.105 617.978 644.343 617.582C643.595 617.186 643.001 616.599 642.561 615.822C642.135 615.045 641.923 614.106 641.923 613.006V605.878H644.409V612.632C644.409 613.717 644.68 614.553 645.223 615.14C645.765 615.712 646.506 615.998 647.445 615.998C648.383 615.998 649.124 615.712 649.667 615.14C650.224 614.553 650.503 613.717 650.503 612.632V605.878H653.011ZM658.828 607.638C659.195 607.022 659.679 606.545 660.28 606.208C660.896 605.856 661.622 605.68 662.458 605.68V608.276H661.82C660.837 608.276 660.089 608.525 659.576 609.024C659.077 609.523 658.828 610.388 658.828 611.62V618H656.32V605.878H658.828V607.638ZM675.873 611.642C675.873 612.097 675.844 612.507 675.785 612.874H666.523C666.597 613.842 666.956 614.619 667.601 615.206C668.247 615.793 669.039 616.086 669.977 616.086C671.327 616.086 672.28 615.521 672.837 614.392H675.543C675.177 615.507 674.509 616.423 673.541 617.142C672.588 617.846 671.4 618.198 669.977 618.198C668.819 618.198 667.777 617.941 666.853 617.428C665.944 616.9 665.225 616.167 664.697 615.228C664.184 614.275 663.927 613.175 663.927 611.928C663.927 610.681 664.177 609.589 664.675 608.65C665.189 607.697 665.9 606.963 666.809 606.45C667.733 605.937 668.789 605.68 669.977 605.68C671.121 605.68 672.141 605.929 673.035 606.428C673.93 606.927 674.627 607.631 675.125 608.54C675.624 609.435 675.873 610.469 675.873 611.642ZM673.255 610.85C673.241 609.926 672.911 609.185 672.265 608.628C671.62 608.071 670.821 607.792 669.867 607.792C669.002 607.792 668.261 608.071 667.645 608.628C667.029 609.171 666.663 609.911 666.545 610.85H673.255ZM689.094 618.154C688.068 618.154 687.144 617.978 686.322 617.626C685.501 617.259 684.856 616.746 684.386 616.086C683.917 615.426 683.682 614.656 683.682 613.776H686.366C686.425 614.436 686.682 614.979 687.136 615.404C687.606 615.829 688.258 616.042 689.094 616.042C689.96 616.042 690.634 615.837 691.118 615.426C691.602 615.001 691.844 614.458 691.844 613.798C691.844 613.285 691.69 612.867 691.382 612.544C691.089 612.221 690.715 611.972 690.26 611.796C689.82 611.62 689.204 611.429 688.412 611.224C687.415 610.96 686.601 610.696 685.97 610.432C685.354 610.153 684.826 609.728 684.386 609.156C683.946 608.584 683.726 607.821 683.726 606.868C683.726 605.988 683.946 605.218 684.386 604.558C684.826 603.898 685.442 603.392 686.234 603.04C687.026 602.688 687.943 602.512 688.984 602.512C690.466 602.512 691.676 602.886 692.614 603.634C693.568 604.367 694.096 605.379 694.198 606.67H691.426C691.382 606.113 691.118 605.636 690.634 605.24C690.15 604.844 689.512 604.646 688.72 604.646C688.002 604.646 687.415 604.829 686.96 605.196C686.506 605.563 686.278 606.091 686.278 606.78C686.278 607.249 686.418 607.638 686.696 607.946C686.99 608.239 687.356 608.474 687.796 608.65C688.236 608.826 688.838 609.017 689.6 609.222C690.612 609.501 691.434 609.779 692.064 610.058C692.71 610.337 693.252 610.769 693.692 611.356C694.147 611.928 694.374 612.698 694.374 613.666C694.374 614.443 694.162 615.177 693.736 615.866C693.326 616.555 692.717 617.113 691.91 617.538C691.118 617.949 690.18 618.154 689.094 618.154ZM713.614 605.878L709.852 618H707.212L704.77 609.046L702.328 618H699.688L695.904 605.878H698.456L700.986 615.624L703.56 605.878H706.178L708.642 615.58L711.15 605.878H713.614ZM714.652 611.884C714.652 610.667 714.901 609.589 715.4 608.65C715.913 607.711 716.603 606.985 717.468 606.472C718.348 605.944 719.316 605.68 720.372 605.68C721.325 605.68 722.154 605.871 722.858 606.252C723.577 606.619 724.149 607.081 724.574 607.638V605.878H727.104V618H724.574V616.196C724.149 616.768 723.569 617.245 722.836 617.626C722.103 618.007 721.267 618.198 720.328 618.198C719.287 618.198 718.333 617.934 717.468 617.406C716.603 616.863 715.913 616.115 715.4 615.162C714.901 614.194 714.652 613.101 714.652 611.884ZM724.574 611.928C724.574 611.092 724.398 610.366 724.046 609.75C723.709 609.134 723.261 608.665 722.704 608.342C722.147 608.019 721.545 607.858 720.9 607.858C720.255 607.858 719.653 608.019 719.096 608.342C718.539 608.65 718.084 609.112 717.732 609.728C717.395 610.329 717.226 611.048 717.226 611.884C717.226 612.72 717.395 613.453 717.732 614.084C718.084 614.715 718.539 615.199 719.096 615.536C719.668 615.859 720.269 616.02 720.9 616.02C721.545 616.02 722.147 615.859 722.704 615.536C723.261 615.213 723.709 614.744 724.046 614.128C724.398 613.497 724.574 612.764 724.574 611.928ZM732.906 607.66C733.331 607.103 733.911 606.633 734.644 606.252C735.377 605.871 736.206 605.68 737.13 605.68C738.186 605.68 739.147 605.944 740.012 606.472C740.892 606.985 741.581 607.711 742.08 608.65C742.579 609.589 742.828 610.667 742.828 611.884C742.828 613.101 742.579 614.194 742.08 615.162C741.581 616.115 740.892 616.863 740.012 617.406C739.147 617.934 738.186 618.198 737.13 618.198C736.206 618.198 735.385 618.015 734.666 617.648C733.947 617.267 733.361 616.797 732.906 616.24V623.764H730.398V605.878H732.906V607.66ZM740.276 611.884C740.276 611.048 740.1 610.329 739.748 609.728C739.411 609.112 738.956 608.65 738.384 608.342C737.827 608.019 737.225 607.858 736.58 607.858C735.949 607.858 735.348 608.019 734.776 608.342C734.219 608.665 733.764 609.134 733.412 609.75C733.075 610.366 732.906 611.092 732.906 611.928C732.906 612.764 733.075 613.497 733.412 614.128C733.764 614.744 734.219 615.213 734.776 615.536C735.348 615.859 735.949 616.02 736.58 616.02C737.225 616.02 737.827 615.859 738.384 615.536C738.956 615.199 739.411 614.715 739.748 614.084C740.1 613.453 740.276 612.72 740.276 611.884Z" fill="#BDF3FF"/>
<g clip-path="url(#clip4_48_72)">
<path d="M189.48 133.098V213.098L209.927 196.811V144.211L189.48 133.098ZM179.97 195.624L163.507 202.814V140.051L179.97 144.924V195.624ZM141.397 193.781L153.997 190.451V150.391L141.457 148.371L141.397 193.781Z" fill="url(#paint8_linear_48_72)"/>
</g>
<g clip-path="url(#clip5_48_72)">
<path d="M314.52 462.712H262.798C260.419 462.712 258.387 461.875 256.704 460.201C255.02 458.527 254.178 456.507 254.178 454.14V419.855C254.178 418.694 254.594 417.69 255.424 416.841C256.255 415.993 257.276 415.569 258.488 415.569H290.814C290.814 415.257 291.073 414.632 291.589 413.694C292.105 412.757 292.61 411.886 293.104 411.082L293.912 409.944C294.227 409.096 294.855 408.393 295.798 407.835C296.741 407.277 297.729 406.998 298.761 406.998H314.924C316.002 406.998 317.012 407.277 317.955 407.835C318.898 408.393 319.526 409.096 319.84 409.944C322.04 412.801 323.14 414.676 323.14 415.569V454.14C323.14 456.507 322.299 458.527 320.615 460.201C318.931 461.875 316.9 462.712 314.52 462.712ZM297.28 432.712C297.28 430.346 296.438 428.326 294.754 426.652C293.07 424.978 291.039 424.14 288.659 424.14C286.28 424.14 284.248 424.978 282.564 426.652C280.881 428.326 280.039 430.346 280.039 432.712C280.039 434.453 280.544 436.049 281.554 437.5C282.564 438.951 283.878 439.989 285.494 440.614L280.039 454.14H297.28L291.825 440.614C293.441 439.989 294.754 438.951 295.764 437.5C296.774 436.049 297.28 434.453 297.28 432.712ZM257.276 405.658C257.59 404.81 258.219 404.107 259.162 403.549C260.105 402.991 261.092 402.712 262.125 402.712H278.288C279.366 402.712 280.376 402.991 281.319 403.549C282.261 404.107 282.912 404.81 283.272 405.658L286.504 411.283H254.178L257.276 405.658Z" fill="url(#paint9_linear_48_72)"/>
</g>
<path d="M514.327 260.679L538.653 268.279C539.332 268.491 539.925 268.914 540.346 269.486C540.767 270.059 540.994 270.751 540.993 271.462V277.345H547.66C548.544 277.345 549.392 277.697 550.017 278.322C550.642 278.947 550.993 279.795 550.993 280.679V287.345H507.66V280.679C507.66 279.795 508.011 278.947 508.636 278.322C509.262 277.697 510.109 277.345 510.993 277.345H534.327V273.912L514.327 267.659L494.327 273.912V298.592C494.326 300.633 494.794 302.646 495.695 304.478C496.595 306.309 497.904 307.909 499.52 309.155L500.15 309.609L514.327 319.279L526.933 310.679H510.993C510.109 310.679 509.262 310.328 508.636 309.702C508.011 309.077 507.66 308.229 507.66 307.345V294.012H550.993V307.345C550.993 308.229 550.642 309.077 550.017 309.702C549.392 310.328 548.544 310.679 547.66 310.679L536.927 310.682C535.637 312.382 534.07 313.882 532.26 315.115L514.327 327.345L496.393 315.119C493.702 313.284 491.499 310.819 489.977 307.938C488.455 305.058 487.66 301.85 487.66 298.592V271.462C487.661 270.752 487.888 270.06 488.309 269.488C488.73 268.916 489.322 268.494 490 268.282L514.327 260.679Z" fill="url(#paint10_linear_48_72)"/>
<g clip-path="url(#clip6_48_72)">
<path d="M618.66 531.712H634.66V529.045C634.66 526.924 633.817 524.889 632.317 523.389C630.817 521.888 628.782 521.045 626.66 521.045C624.538 521.045 622.504 521.888 621.003 523.389C619.503 524.889 618.66 526.924 618.66 529.045V531.712Z" fill="url(#paint11_linear_48_72)"/>
<path d="M614.66 542.379H638.66V539.712H614.66V542.379Z" fill="url(#paint12_linear_48_72)"/>
<path d="M638.66 549.045H614.66V546.378H638.66V549.045Z" fill="url(#paint13_linear_48_72)"/>
<path d="M614.66 555.712H638.66V553.045H614.66V555.712Z" fill="url(#paint14_linear_48_72)"/>
<path fill-rule="evenodd" clip-rule="evenodd" d="M594.66 507.712H658.66V571.712H594.66V507.712ZM609.327 531.712C608.62 531.712 607.941 531.993 607.441 532.493C606.941 532.993 606.66 533.671 606.66 534.379V561.045C606.66 561.752 606.941 562.431 607.441 562.931C607.941 563.431 608.62 563.712 609.327 563.712H643.993C644.701 563.712 645.379 563.431 645.879 562.931C646.379 562.431 646.66 561.752 646.66 561.045V534.379C646.66 533.671 646.379 532.993 645.879 532.493C645.379 531.993 644.701 531.712 643.993 531.712H639.993V529.045C639.993 521.681 634.024 515.712 626.66 515.712C619.296 515.712 613.327 521.681 613.327 529.045V531.712H609.327Z" fill="url(#paint15_linear_48_72)"/>
</g>
<defs>
<filter id="filter0_f_48_72" x="-9.83984" y="0.711914" width="260" height="237" filterUnits="userSpaceOnUse" color-interpolation-filters="sRGB">
<feFlood flood-opacity="0" result="BackgroundImageFix"/>
<feBlend mode="normal" in="SourceGraphic" in2="BackgroundImageFix" result="shape"/>
<feGaussianBlur stdDeviation="30" result="effect1_foregroundBlur_48_72"/>
</filter>
<filter id="filter1_b_48_72" x="-32.8398" y="32.7119" width="417" height="329" filterUnits="userSpaceOnUse" color-interpolation-filters="sRGB">
<feFlood flood-opacity="0" result="BackgroundImageFix"/>
<feGaussianBlur in="BackgroundImageFix" stdDeviation="25"/>
<feComposite in2="SourceAlpha" operator="in" result="effect1_backgroundBlur_48_72"/>
<feBlend mode="normal" in="SourceGraphic" in2="effect1_backgroundBlur_48_72" result="shape"/>
</filter>
<filter id="filter2_f_48_72" x="442.66" y="125.012" width="250" height="237" filterUnits="userSpaceOnUse" color-interpolation-filters="sRGB">
<feFlood flood-opacity="0" result="BackgroundImageFix"/>
<feBlend mode="normal" in="SourceGraphic" in2="BackgroundImageFix" result="shape"/>
<feGaussianBlur stdDeviation="30" result="effect1_foregroundBlur_48_72"/>
</filter>
<filter id="filter3_f_48_72" x="122.16" y="275.712" width="231" height="217" filterUnits="userSpaceOnUse" color-interpolation-filters="sRGB">
<feFlood flood-opacity="0" result="BackgroundImageFix"/>
<feBlend mode="normal" in="SourceGraphic" in2="BackgroundImageFix" result="shape"/>
<feGaussianBlur stdDeviation="30" result="effect1_foregroundBlur_48_72"/>
</filter>
<filter id="filter4_f_48_72" x="571.66" y="390.712" width="217" height="217" filterUnits="userSpaceOnUse" color-interpolation-filters="sRGB">
<feFlood flood-opacity="0" result="BackgroundImageFix"/>
<feBlend mode="normal" in="SourceGraphic" in2="BackgroundImageFix" result="shape"/>
<feGaussianBlur stdDeviation="30" result="effect1_foregroundBlur_48_72"/>
</filter>
<filter id="filter5_b_48_72" x="80.1602" y="288.712" width="417" height="329" filterUnits="userSpaceOnUse" color-interpolation-filters="sRGB">
<feFlood flood-opacity="0" result="BackgroundImageFix"/>
<feGaussianBlur in="BackgroundImageFix" stdDeviation="25"/>
<feComposite in2="SourceAlpha" operator="in" result="effect1_backgroundBlur_48_72"/>
<feBlend mode="normal" in="SourceGraphic" in2="effect1_backgroundBlur_48_72" result="shape"/>
</filter>
<filter id="filter6_b_48_72" x="308.66" y="148.012" width="418" height="329" filterUnits="userSpaceOnUse" color-interpolation-filters="sRGB">
<feFlood flood-opacity="0" result="BackgroundImageFix"/>
<feGaussianBlur in="BackgroundImageFix" stdDeviation="25"/>
<feComposite in2="SourceAlpha" operator="in" result="effect1_backgroundBlur_48_72"/>
<feBlend mode="normal" in="SourceGraphic" in2="effect1_backgroundBlur_48_72" result="shape"/>
</filter>
<filter id="filter7_b_48_72" x="420.66" y="401.712" width="418" height="329" filterUnits="userSpaceOnUse" color-interpolation-filters="sRGB">
<feFlood flood-opacity="0" result="BackgroundImageFix"/>
<feGaussianBlur in="BackgroundImageFix" stdDeviation="25"/>
<feComposite in2="SourceAlpha" operator="in" result="effect1_backgroundBlur_48_72"/>
<feBlend mode="normal" in="SourceGraphic" in2="effect1_backgroundBlur_48_72" result="shape"/>
</filter>
<linearGradient id="paint0_linear_48_72" x1="175.66" y1="13.3584" x2="175.66" y2="414.573" gradientUnits="userSpaceOnUse">
<stop stop-color="white" stop-opacity="0.03"/>
<stop offset="1" stop-color="white" stop-opacity="0"/>
</linearGradient>
<linearGradient id="paint1_linear_48_72" x1="368.082" y1="311.712" x2="41.1816" y2="-2.61231" gradientUnits="userSpaceOnUse">
<stop stop-color="#F5FBF2" stop-opacity="0.44"/>
<stop offset="1" stop-color="#F5FBF2" stop-opacity="0"/>
</linearGradient>
<linearGradient id="paint2_linear_48_72" x1="288.66" y1="269.358" x2="288.66" y2="670.573" gradientUnits="userSpaceOnUse">
<stop stop-color="white" stop-opacity="0.03"/>
<stop offset="1" stop-color="white" stop-opacity="0"/>
</linearGradient>
<linearGradient id="paint3_linear_48_72" x1="481.082" y1="567.712" x2="154.182" y2="253.388" gradientUnits="userSpaceOnUse">
<stop stop-color="#F5FBF2" stop-opacity="0.44"/>
<stop offset="1" stop-color="#F5FBF2" stop-opacity="0"/>
</linearGradient>
<linearGradient id="paint4_linear_48_72" x1="517.66" y1="128.659" x2="517.66" y2="529.873" gradientUnits="userSpaceOnUse">
<stop stop-color="white" stop-opacity="0.03"/>
<stop offset="1" stop-color="white" stop-opacity="0"/>
</linearGradient>
<linearGradient id="paint5_linear_48_72" x1="710.689" y1="427.012" x2="383.75" y2="111.659" gradientUnits="userSpaceOnUse">
<stop stop-color="#F5FBF2" stop-opacity="0.44"/>
<stop offset="1" stop-color="#F5FBF2" stop-opacity="0"/>
</linearGradient>
<linearGradient id="paint6_linear_48_72" x1="629.66" y1="382.358" x2="629.66" y2="783.573" gradientUnits="userSpaceOnUse">
<stop stop-color="white" stop-opacity="0.03"/>
<stop offset="1" stop-color="white" stop-opacity="0"/>
</linearGradient>
<linearGradient id="paint7_linear_48_72" x1="822.689" y1="680.712" x2="495.75" y2="365.359" gradientUnits="userSpaceOnUse">
<stop stop-color="#F5FBF2" stop-opacity="0.44"/>
<stop offset="1" stop-color="#F5FBF2" stop-opacity="0"/>
</linearGradient>
<linearGradient id="paint8_linear_48_72" x1="175.662" y1="133.098" x2="269.063" y2="155.742" gradientUnits="userSpaceOnUse">
<stop stop-color="#F7BC51"/>
<stop offset="0.609375" stop-color="#60E7CE" stop-opacity="0.5"/>
<stop offset="1" stop-color="#060ED0" stop-opacity="0.28"/>
</linearGradient>
<linearGradient id="paint9_linear_48_72" x1="288.659" y1="402.712" x2="378.651" y2="431.986" gradientUnits="userSpaceOnUse">
<stop stop-color="#05D2FF"/>
<stop offset="0.609375" stop-color="#253FE0" stop-opacity="0.619792"/>
<stop offset="1" stop-color="#060ED0" stop-opacity="0.28"/>
</linearGradient>
<linearGradient id="paint10_linear_48_72" x1="519.327" y1="260.679" x2="604.557" y2="283.595" gradientUnits="userSpaceOnUse">
<stop stop-color="#FD5A14"/>
<stop offset="0.609375" stop-color="#FFF06B" stop-opacity="0.59"/>
<stop offset="1" stop-color="#060ED0" stop-opacity="0.28"/>
</linearGradient>
<linearGradient id="paint11_linear_48_72" x1="626.66" y1="521.045" x2="646.223" y2="529.35" gradientUnits="userSpaceOnUse">
<stop stop-color="#00DD9C"/>
<stop offset="0.609375" stop-color="#253FE0" stop-opacity="0.619792"/>
<stop offset="1" stop-color="#060ED0" stop-opacity="0.28"/>
</linearGradient>
<linearGradient id="paint12_linear_48_72" x1="626.66" y1="539.712" x2="631.285" y2="551.493" gradientUnits="userSpaceOnUse">
<stop stop-color="#00DD9C"/>
<stop offset="0.609375" stop-color="#253FE0" stop-opacity="0.619792"/>
<stop offset="1" stop-color="#060ED0" stop-opacity="0.28"/>
</linearGradient>
<linearGradient id="paint13_linear_48_72" x1="626.66" y1="546.378" x2="631.285" y2="558.159" gradientUnits="userSpaceOnUse">
<stop stop-color="#00DD9C"/>
<stop offset="0.609375" stop-color="#253FE0" stop-opacity="0.619792"/>
<stop offset="1" stop-color="#060ED0" stop-opacity="0.28"/>
</linearGradient>
<linearGradient id="paint14_linear_48_72" x1="626.66" y1="553.045" x2="631.285" y2="564.826" gradientUnits="userSpaceOnUse">
<stop stop-color="#00DD9C"/>
<stop offset="0.609375" stop-color="#253FE0" stop-opacity="0.619792"/>
<stop offset="1" stop-color="#060ED0" stop-opacity="0.28"/>
</linearGradient>
<linearGradient id="paint15_linear_48_72" x1="626.66" y1="507.712" x2="712.165" y2="531.912" gradientUnits="userSpaceOnUse">
<stop stop-color="#00DD9C"/>
<stop offset="0.609375" stop-color="#253FE0" stop-opacity="0.619792"/>
<stop offset="1" stop-color="#060ED0" stop-opacity="0.28"/>
</linearGradient>
<clipPath id="clip0_48_72">
<rect width="140" height="117" fill="white" transform="translate(50.1602 60.7119)"/>
</clipPath>
<clipPath id="clip1_48_72">
<rect width="130" height="117" fill="white" transform="translate(502.66 185.012)"/>
</clipPath>
<clipPath id="clip2_48_72">
<rect width="111" height="97" fill="white" transform="translate(182.16 335.712)"/>
</clipPath>
<clipPath id="clip3_48_72">
<rect width="97" height="97" fill="white" transform="translate(631.66 450.712)"/>
</clipPath>
<clipPath id="clip4_48_72">
<rect width="80" height="80" fill="white" transform="translate(135.66 133.098)"/>
</clipPath>
<clipPath id="clip5_48_72">
<rect width="69.0411" height="60" fill="white" transform="translate(254.139 402.712)"/>
</clipPath>
<clipPath id="clip6_48_72">
<rect width="64" height="64" fill="white" transform="translate(594.66 507.712)"/>
</clipPath>
</defs>
</svg>
