<svg width="789" height="637" viewBox="0 0 789 637" fill="none" xmlns="http://www.w3.org/2000/svg">
<g clip-path="url(#clip0_119_1529)" filter="url(#filter0_f_119_1529)">
<path d="M144.357 16.7119V133.712L180.16 109.893V32.9652L144.357 16.7119ZM127.704 108.157L98.876 118.673V26.8812L127.704 34.0084V108.157ZM60.1602 105.461L82.2235 100.591V42.0034L60.2652 39.0492L60.1602 105.461Z" fill="#4CB0FC"/>
</g>
<g filter="url(#filter1_b_119_1529)">
<rect x="17.1602" y="38.7119" width="317" height="229" rx="15" fill="url(#paint0_linear_119_1529)"/>
<rect x="17.6602" y="39.2119" width="316" height="228" rx="14.5" stroke="url(#paint1_linear_119_1529)"/>
</g>
<g clip-path="url(#clip1_119_1529)" filter="url(#filter2_f_119_1529)">
<path d="M589.542 141.012V258.012L622.66 234.193V157.265L589.542 141.012ZM574.138 232.457L547.472 242.973V151.181L574.138 158.309V232.457ZM511.66 229.762L532.069 224.891V166.304L511.757 163.349L511.66 229.762Z" fill="#592CB8"/>
</g>
<g clip-path="url(#clip2_119_1529)" filter="url(#filter3_f_119_1529)">
<path d="M256.816 291.712V388.712L285.16 368.964V305.187L256.816 291.712ZM243.633 367.525L220.81 376.243V300.143L243.633 306.052V367.525ZM190.16 365.29L207.627 361.253V312.68L190.243 310.231L190.16 365.29Z" fill="#2FB8EB"/>
</g>
<g clip-path="url(#clip3_119_1529)" filter="url(#filter4_f_119_1529)">
<path d="M696.896 406.712V503.712L721.66 483.964V420.187L696.896 406.712ZM685.378 482.525L665.439 491.243V415.143L685.378 421.052V482.525ZM638.66 480.29L653.921 476.253V427.68L638.733 425.231L638.66 480.29Z" fill="#00E3A5"/>
</g>
<g filter="url(#filter5_b_119_1529)">
<rect x="130.16" y="294.712" width="317" height="229" rx="15" fill="url(#paint2_linear_119_1529)"/>
<rect x="130.66" y="295.212" width="316" height="228" rx="14.5" stroke="url(#paint3_linear_119_1529)"/>
</g>
<g filter="url(#filter6_b_119_1529)">
<rect x="358.66" y="154.012" width="318" height="229" rx="15" fill="url(#paint4_linear_119_1529)"/>
<rect x="359.16" y="154.512" width="317" height="228" rx="14.5" stroke="url(#paint5_linear_119_1529)"/>
</g>
<g filter="url(#filter7_b_119_1529)">
<rect x="470.66" y="407.712" width="318" height="229" rx="15" fill="url(#paint6_linear_119_1529)"/>
<rect x="471.16" y="408.212" width="317" height="228" rx="14.5" stroke="url(#paint7_linear_119_1529)"/>
</g>
<path d="M129.414 202.722V218.012H126.906V207.54L122.242 218.012H120.504L115.818 207.54V218.012H113.31V202.722H116.016L121.384 214.712L126.73 202.722H129.414ZM143.689 205.89V218.012H141.181V216.582C140.785 217.081 140.264 217.477 139.619 217.77C138.988 218.049 138.313 218.188 137.595 218.188C136.641 218.188 135.783 217.99 135.021 217.594C134.273 217.198 133.679 216.612 133.239 215.834C132.813 215.057 132.601 214.118 132.601 213.018V205.89H135.087V212.644C135.087 213.73 135.358 214.566 135.901 215.152C136.443 215.724 137.184 216.01 138.123 216.01C139.061 216.01 139.802 215.724 140.345 215.152C140.902 214.566 141.181 213.73 141.181 212.644V205.89H143.689ZM149.506 201.732V218.012H146.998V201.732H149.506ZM155.724 207.936V214.646C155.724 215.101 155.827 215.431 156.032 215.636C156.252 215.827 156.619 215.922 157.132 215.922H158.672V218.012H156.692C155.563 218.012 154.698 217.748 154.096 217.22C153.495 216.692 153.194 215.834 153.194 214.646V207.936H151.764V205.89H153.194V202.876H155.724V205.89H158.672V207.936H155.724ZM162.26 204.284C161.805 204.284 161.424 204.13 161.116 203.822C160.808 203.514 160.654 203.133 160.654 202.678C160.654 202.224 160.808 201.842 161.116 201.534C161.424 201.226 161.805 201.072 162.26 201.072C162.7 201.072 163.074 201.226 163.382 201.534C163.69 201.842 163.844 202.224 163.844 202.678C163.844 203.133 163.69 203.514 163.382 203.822C163.074 204.13 162.7 204.284 162.26 204.284ZM163.492 205.89V218.012H160.984V205.89H163.492ZM176.091 208.992V211.104H167.049V208.992H176.091ZM178.818 210.334C178.818 208.838 179.163 207.496 179.852 206.308C180.556 205.12 181.502 204.196 182.69 203.536C183.893 202.862 185.205 202.524 186.628 202.524C188.256 202.524 189.701 202.928 190.962 203.734C192.238 204.526 193.162 205.656 193.734 207.122H190.72C190.324 206.316 189.774 205.714 189.07 205.318C188.366 204.922 187.552 204.724 186.628 204.724C185.616 204.724 184.714 204.952 183.922 205.406C183.13 205.861 182.507 206.514 182.052 207.364C181.612 208.215 181.392 209.205 181.392 210.334C181.392 211.464 181.612 212.454 182.052 213.304C182.507 214.155 183.13 214.815 183.922 215.284C184.714 215.739 185.616 215.966 186.628 215.966C187.552 215.966 188.366 215.768 189.07 215.372C189.774 214.976 190.324 214.375 190.72 213.568H193.734C193.162 215.035 192.238 216.164 190.962 216.956C189.701 217.748 188.256 218.144 186.628 218.144C185.191 218.144 183.878 217.814 182.69 217.154C181.502 216.48 180.556 215.548 179.852 214.36C179.163 213.172 178.818 211.83 178.818 210.334ZM202.94 205.692C203.864 205.692 204.685 205.89 205.404 206.286C206.137 206.682 206.709 207.269 207.12 208.046C207.545 208.824 207.758 209.762 207.758 210.862V218.012H205.272V211.236C205.272 210.151 205 209.322 204.458 208.75C203.915 208.164 203.174 207.87 202.236 207.87C201.297 207.87 200.549 208.164 199.992 208.75C199.449 209.322 199.178 210.151 199.178 211.236V218.012H196.67V201.732H199.178V207.298C199.603 206.785 200.138 206.389 200.784 206.11C201.444 205.832 202.162 205.692 202.94 205.692ZM210.121 211.896C210.121 210.679 210.37 209.601 210.869 208.662C211.382 207.724 212.071 206.998 212.937 206.484C213.817 205.956 214.785 205.692 215.841 205.692C216.794 205.692 217.623 205.883 218.327 206.264C219.045 206.631 219.617 207.093 220.043 207.65V205.89H222.573V218.012H220.043V216.208C219.617 216.78 219.038 217.257 218.305 217.638C217.571 218.02 216.735 218.21 215.797 218.21C214.755 218.21 213.802 217.946 212.937 217.418C212.071 216.876 211.382 216.128 210.869 215.174C210.37 214.206 210.121 213.114 210.121 211.896ZM220.043 211.94C220.043 211.104 219.867 210.378 219.515 209.762C219.177 209.146 218.73 208.677 218.173 208.354C217.615 208.032 217.014 207.87 216.369 207.87C215.723 207.87 215.122 208.032 214.565 208.354C214.007 208.662 213.553 209.124 213.201 209.74C212.863 210.342 212.695 211.06 212.695 211.896C212.695 212.732 212.863 213.466 213.201 214.096C213.553 214.727 214.007 215.211 214.565 215.548C215.137 215.871 215.738 216.032 216.369 216.032C217.014 216.032 217.615 215.871 218.173 215.548C218.73 215.226 219.177 214.756 219.515 214.14C219.867 213.51 220.043 212.776 220.043 211.94ZM227.143 204.284C226.688 204.284 226.307 204.13 225.999 203.822C225.691 203.514 225.537 203.133 225.537 202.678C225.537 202.224 225.691 201.842 225.999 201.534C226.307 201.226 226.688 201.072 227.143 201.072C227.583 201.072 227.957 201.226 228.265 201.534C228.573 201.842 228.727 202.224 228.727 202.678C228.727 203.133 228.573 203.514 228.265 203.822C227.957 204.13 227.583 204.284 227.143 204.284ZM228.375 205.89V218.012H225.867V205.89H228.375ZM237.784 205.692C238.737 205.692 239.588 205.89 240.336 206.286C241.098 206.682 241.692 207.269 242.118 208.046C242.543 208.824 242.756 209.762 242.756 210.862V218.012H240.27V211.236C240.27 210.151 239.998 209.322 239.456 208.75C238.913 208.164 238.172 207.87 237.234 207.87C236.295 207.87 235.547 208.164 234.99 208.75C234.447 209.322 234.176 210.151 234.176 211.236V218.012H231.668V205.89H234.176V207.276C234.586 206.778 235.107 206.389 235.738 206.11C236.383 205.832 237.065 205.692 237.784 205.692Z" fill="#BDF3FF"/>
<path d="M435.848 334.166C434.821 334.166 433.897 333.99 433.076 333.638C432.255 333.272 431.609 332.758 431.14 332.098C430.671 331.438 430.436 330.668 430.436 329.788H433.12C433.179 330.448 433.435 330.991 433.89 331.416C434.359 331.842 435.012 332.054 435.848 332.054C436.713 332.054 437.388 331.849 437.872 331.438C438.356 331.013 438.598 330.47 438.598 329.81C438.598 329.297 438.444 328.879 438.136 328.556C437.843 328.234 437.469 327.984 437.014 327.808C436.574 327.632 435.958 327.442 435.166 327.236C434.169 326.972 433.355 326.708 432.724 326.444C432.108 326.166 431.58 325.74 431.14 325.168C430.7 324.596 430.48 323.834 430.48 322.88C430.48 322 430.7 321.23 431.14 320.57C431.58 319.91 432.196 319.404 432.988 319.052C433.78 318.7 434.697 318.524 435.738 318.524C437.219 318.524 438.429 318.898 439.368 319.646C440.321 320.38 440.849 321.392 440.952 322.682H438.18C438.136 322.125 437.872 321.648 437.388 321.252C436.904 320.856 436.266 320.658 435.474 320.658C434.755 320.658 434.169 320.842 433.714 321.208C433.259 321.575 433.032 322.103 433.032 322.792C433.032 323.262 433.171 323.65 433.45 323.958C433.743 324.252 434.11 324.486 434.55 324.662C434.99 324.838 435.591 325.029 436.354 325.234C437.366 325.513 438.187 325.792 438.818 326.07C439.463 326.349 440.006 326.782 440.446 327.368C440.901 327.94 441.128 328.71 441.128 329.678C441.128 330.456 440.915 331.189 440.49 331.878C440.079 332.568 439.471 333.125 438.664 333.55C437.872 333.961 436.933 334.166 435.848 334.166ZM455.198 327.654C455.198 328.109 455.168 328.52 455.11 328.886H445.848C445.921 329.854 446.28 330.632 446.926 331.218C447.571 331.805 448.363 332.098 449.302 332.098C450.651 332.098 451.604 331.534 452.162 330.404H454.867C454.501 331.519 453.834 332.436 452.866 333.154C451.912 333.858 450.724 334.21 449.302 334.21C448.143 334.21 447.102 333.954 446.178 333.44C445.268 332.912 444.55 332.179 444.022 331.24C443.508 330.287 443.252 329.187 443.252 327.94C443.252 326.694 443.501 325.601 444 324.662C444.513 323.709 445.224 322.976 446.134 322.462C447.058 321.949 448.114 321.692 449.302 321.692C450.446 321.692 451.465 321.942 452.36 322.44C453.254 322.939 453.951 323.643 454.45 324.552C454.948 325.447 455.198 326.481 455.198 327.654ZM452.58 326.862C452.565 325.938 452.235 325.198 451.59 324.64C450.944 324.083 450.145 323.804 449.192 323.804C448.326 323.804 447.586 324.083 446.97 324.64C446.354 325.183 445.987 325.924 445.87 326.862H452.58ZM456.83 327.94C456.83 326.694 457.079 325.601 457.578 324.662C458.091 323.709 458.795 322.976 459.69 322.462C460.584 321.949 461.611 321.692 462.77 321.692C464.236 321.692 465.446 322.044 466.4 322.748C467.368 323.438 468.02 324.428 468.358 325.718H465.652C465.432 325.117 465.08 324.648 464.596 324.31C464.112 323.973 463.503 323.804 462.77 323.804C461.743 323.804 460.922 324.171 460.306 324.904C459.704 325.623 459.404 326.635 459.404 327.94C459.404 329.246 459.704 330.265 460.306 330.998C460.922 331.732 461.743 332.098 462.77 332.098C464.222 332.098 465.182 331.46 465.652 330.184H468.358C468.006 331.416 467.346 332.399 466.378 333.132C465.41 333.851 464.207 334.21 462.77 334.21C461.611 334.21 460.584 333.954 459.69 333.44C458.795 332.912 458.091 332.179 457.578 331.24C457.079 330.287 456.83 329.187 456.83 327.94ZM481.835 321.89V334.012H479.327V332.582C478.931 333.081 478.41 333.477 477.765 333.77C477.134 334.049 476.46 334.188 475.741 334.188C474.788 334.188 473.93 333.99 473.167 333.594C472.419 333.198 471.825 332.612 471.385 331.834C470.96 331.057 470.747 330.118 470.747 329.018V321.89H473.233V328.644C473.233 329.73 473.504 330.566 474.047 331.152C474.59 331.724 475.33 332.01 476.269 332.01C477.208 332.01 477.948 331.724 478.491 331.152C479.048 330.566 479.327 329.73 479.327 328.644V321.89H481.835ZM487.652 323.65C488.019 323.034 488.503 322.558 489.104 322.22C489.72 321.868 490.446 321.692 491.282 321.692V324.288H490.644C489.661 324.288 488.913 324.538 488.4 325.036C487.901 325.535 487.652 326.4 487.652 327.632V334.012H485.144V321.89H487.652V323.65ZM504.698 327.654C504.698 328.109 504.668 328.52 504.61 328.886H495.348C495.421 329.854 495.78 330.632 496.426 331.218C497.071 331.805 497.863 332.098 498.802 332.098C500.151 332.098 501.104 331.534 501.662 330.404H504.367C504.001 331.519 503.334 332.436 502.366 333.154C501.412 333.858 500.224 334.21 498.802 334.21C497.643 334.21 496.602 333.954 495.678 333.44C494.768 332.912 494.05 332.179 493.522 331.24C493.008 330.287 492.752 329.187 492.752 327.94C492.752 326.694 493.001 325.601 493.5 324.662C494.013 323.709 494.724 322.976 495.634 322.462C496.558 321.949 497.614 321.692 498.802 321.692C499.946 321.692 500.965 321.942 501.86 322.44C502.754 322.939 503.451 323.643 503.95 324.552C504.448 325.447 504.698 326.481 504.698 327.654ZM502.08 326.862C502.065 325.938 501.735 325.198 501.09 324.64C500.444 324.083 499.645 323.804 498.692 323.804C497.826 323.804 497.086 324.083 496.47 324.64C495.854 325.183 495.487 325.924 495.37 326.862H502.08ZM506.33 327.896C506.33 326.679 506.579 325.601 507.078 324.662C507.591 323.724 508.28 322.998 509.146 322.484C510.026 321.956 511.001 321.692 512.072 321.692C512.864 321.692 513.641 321.868 514.404 322.22C515.181 322.558 515.797 323.012 516.252 323.584V317.732H518.782V334.012H516.252V332.186C515.841 332.773 515.269 333.257 514.536 333.638C513.817 334.02 512.988 334.21 512.05 334.21C510.994 334.21 510.026 333.946 509.146 333.418C508.28 332.876 507.591 332.128 507.078 331.174C506.579 330.206 506.33 329.114 506.33 327.896ZM516.252 327.94C516.252 327.104 516.076 326.378 515.724 325.762C515.386 325.146 514.939 324.677 514.382 324.354C513.824 324.032 513.223 323.87 512.578 323.87C511.932 323.87 511.331 324.032 510.774 324.354C510.216 324.662 509.762 325.124 509.41 325.74C509.072 326.342 508.904 327.06 508.904 327.896C508.904 328.732 509.072 329.466 509.41 330.096C509.762 330.727 510.216 331.211 510.774 331.548C511.346 331.871 511.947 332.032 512.578 332.032C513.223 332.032 513.824 331.871 514.382 331.548C514.939 331.226 515.386 330.756 515.724 330.14C516.076 329.51 516.252 328.776 516.252 327.94ZM532.829 334.166C531.802 334.166 530.878 333.99 530.057 333.638C529.235 333.272 528.59 332.758 528.121 332.098C527.651 331.438 527.417 330.668 527.417 329.788H530.101C530.159 330.448 530.416 330.991 530.871 331.416C531.34 331.842 531.993 332.054 532.829 332.054C533.694 332.054 534.369 331.849 534.853 331.438C535.337 331.013 535.579 330.47 535.579 329.81C535.579 329.297 535.425 328.879 535.117 328.556C534.823 328.234 534.449 327.984 533.995 327.808C533.555 327.632 532.939 327.442 532.147 327.236C531.149 326.972 530.335 326.708 529.705 326.444C529.089 326.166 528.561 325.74 528.121 325.168C527.681 324.596 527.461 323.834 527.461 322.88C527.461 322 527.681 321.23 528.121 320.57C528.561 319.91 529.177 319.404 529.969 319.052C530.761 318.7 531.677 318.524 532.719 318.524C534.2 318.524 535.41 318.898 536.349 319.646C537.302 320.38 537.83 321.392 537.933 322.682H535.161C535.117 322.125 534.853 321.648 534.369 321.252C533.885 320.856 533.247 320.658 532.455 320.658C531.736 320.658 531.149 320.842 530.695 321.208C530.24 321.575 530.013 322.103 530.013 322.792C530.013 323.262 530.152 323.65 530.431 323.958C530.724 324.252 531.091 324.486 531.531 324.662C531.971 324.838 532.572 325.029 533.335 325.234C534.347 325.513 535.168 325.792 535.799 326.07C536.444 326.349 536.987 326.782 537.427 327.368C537.881 327.94 538.109 328.71 538.109 329.678C538.109 330.456 537.896 331.189 537.471 331.878C537.06 332.568 536.451 333.125 535.645 333.55C534.853 333.961 533.914 334.166 532.829 334.166ZM551.98 321.89L544.544 339.71H541.948L544.412 333.814L539.638 321.89H542.432L545.842 331.13L549.384 321.89H551.98ZM558.273 334.21C557.319 334.21 556.461 334.042 555.699 333.704C554.951 333.352 554.357 332.883 553.917 332.296C553.477 331.695 553.242 331.028 553.213 330.294H555.809C555.853 330.808 556.095 331.24 556.535 331.592C556.989 331.93 557.554 332.098 558.229 332.098C558.933 332.098 559.475 331.966 559.857 331.702C560.253 331.424 560.451 331.072 560.451 330.646C560.451 330.192 560.231 329.854 559.791 329.634C559.365 329.414 558.683 329.172 557.745 328.908C556.835 328.659 556.095 328.417 555.523 328.182C554.951 327.948 554.452 327.588 554.027 327.104C553.616 326.62 553.411 325.982 553.411 325.19C553.411 324.545 553.601 323.958 553.983 323.43C554.364 322.888 554.907 322.462 555.611 322.154C556.329 321.846 557.151 321.692 558.075 321.692C559.453 321.692 560.561 322.044 561.397 322.748C562.247 323.438 562.702 324.384 562.761 325.586H560.253C560.209 325.044 559.989 324.611 559.593 324.288C559.197 323.966 558.661 323.804 557.987 323.804C557.327 323.804 556.821 323.929 556.469 324.178C556.117 324.428 555.941 324.758 555.941 325.168C555.941 325.491 556.058 325.762 556.293 325.982C556.527 326.202 556.813 326.378 557.151 326.51C557.488 326.628 557.987 326.782 558.647 326.972C559.527 327.207 560.245 327.449 560.803 327.698C561.375 327.933 561.866 328.285 562.277 328.754C562.687 329.224 562.9 329.847 562.915 330.624C562.915 331.314 562.724 331.93 562.343 332.472C561.961 333.015 561.419 333.44 560.715 333.748C560.025 334.056 559.211 334.21 558.273 334.21ZM568.551 323.936V330.646C568.551 331.101 568.653 331.431 568.859 331.636C569.079 331.827 569.445 331.922 569.959 331.922H571.499V334.012H569.519C568.389 334.012 567.524 333.748 566.923 333.22C566.321 332.692 566.021 331.834 566.021 330.646V323.936H564.591V321.89H566.021V318.876H568.551V321.89H571.499V323.936H568.551ZM584.92 327.654C584.92 328.109 584.891 328.52 584.832 328.886H575.57C575.643 329.854 576.003 330.632 576.648 331.218C577.293 331.805 578.085 332.098 579.024 332.098C580.373 332.098 581.327 331.534 581.884 330.404H584.59C584.223 331.519 583.556 332.436 582.588 333.154C581.635 333.858 580.447 334.21 579.024 334.21C577.865 334.21 576.824 333.954 575.9 333.44C574.991 332.912 574.272 332.179 573.744 331.24C573.231 330.287 572.974 329.187 572.974 327.94C572.974 326.694 573.223 325.601 573.722 324.662C574.235 323.709 574.947 322.976 575.856 322.462C576.78 321.949 577.836 321.692 579.024 321.692C580.168 321.692 581.187 321.942 582.082 322.44C582.977 322.939 583.673 323.643 584.172 324.552C584.671 325.447 584.92 326.481 584.92 327.654ZM582.302 326.862C582.287 325.938 581.957 325.198 581.312 324.64C580.667 324.083 579.867 323.804 578.914 323.804C578.049 323.804 577.308 324.083 576.692 324.64C576.076 325.183 575.709 325.924 575.592 326.862H582.302ZM602.062 321.692C603.016 321.692 603.866 321.89 604.614 322.286C605.377 322.682 605.971 323.269 606.396 324.046C606.836 324.824 607.056 325.762 607.056 326.862V334.012H604.57V327.236C604.57 326.151 604.299 325.322 603.756 324.75C603.214 324.164 602.473 323.87 601.534 323.87C600.596 323.87 599.848 324.164 599.29 324.75C598.748 325.322 598.476 326.151 598.476 327.236V334.012H595.99V327.236C595.99 326.151 595.719 325.322 595.176 324.75C594.634 324.164 593.893 323.87 592.954 323.87C592.016 323.87 591.268 324.164 590.71 324.75C590.168 325.322 589.896 326.151 589.896 327.236V334.012H587.388V321.89H589.896V323.276C590.307 322.778 590.828 322.389 591.458 322.11C592.089 321.832 592.764 321.692 593.482 321.692C594.45 321.692 595.316 321.898 596.078 322.308C596.841 322.719 597.428 323.313 597.838 324.09C598.205 323.357 598.777 322.778 599.554 322.352C600.332 321.912 601.168 321.692 602.062 321.692Z" fill="#BDF3FF"/>
<path d="M222.372 474.712H219.864L212.318 463.294V474.712H209.81V459.4H212.318L219.864 470.796V459.4H222.372V474.712ZM230.924 474.91C229.78 474.91 228.746 474.653 227.822 474.14C226.898 473.612 226.172 472.879 225.644 471.94C225.116 470.987 224.852 469.887 224.852 468.64C224.852 467.408 225.123 466.315 225.666 465.362C226.208 464.409 226.949 463.675 227.888 463.162C228.826 462.649 229.875 462.392 231.034 462.392C232.192 462.392 233.241 462.649 234.18 463.162C235.118 463.675 235.859 464.409 236.402 465.362C236.944 466.315 237.216 467.408 237.216 468.64C237.216 469.872 236.937 470.965 236.38 471.918C235.822 472.871 235.06 473.612 234.092 474.14C233.138 474.653 232.082 474.91 230.924 474.91ZM230.924 472.732C231.569 472.732 232.17 472.578 232.728 472.27C233.3 471.962 233.762 471.5 234.114 470.884C234.466 470.268 234.642 469.52 234.642 468.64C234.642 467.76 234.473 467.019 234.136 466.418C233.798 465.802 233.351 465.34 232.794 465.032C232.236 464.724 231.635 464.57 230.99 464.57C230.344 464.57 229.743 464.724 229.186 465.032C228.643 465.34 228.21 465.802 227.888 466.418C227.565 467.019 227.404 467.76 227.404 468.64C227.404 469.945 227.734 470.957 228.394 471.676C229.068 472.38 229.912 472.732 230.924 472.732ZM245.811 462.392C246.764 462.392 247.615 462.59 248.363 462.986C249.126 463.382 249.72 463.969 250.145 464.746C250.57 465.523 250.783 466.462 250.783 467.562V474.712H248.297V467.936C248.297 466.851 248.026 466.022 247.483 465.45C246.94 464.863 246.2 464.57 245.261 464.57C244.322 464.57 243.574 464.863 243.017 465.45C242.474 466.022 242.203 466.851 242.203 467.936V474.712H239.695V462.59H242.203V463.976C242.614 463.477 243.134 463.089 243.765 462.81C244.41 462.531 245.092 462.392 245.811 462.392ZM263.288 465.692V467.804H254.246V465.692H263.288ZM266.015 467.034C266.015 465.538 266.36 464.196 267.049 463.008C267.753 461.82 268.699 460.896 269.887 460.236C271.09 459.561 272.403 459.224 273.825 459.224C275.453 459.224 276.898 459.627 278.159 460.434C279.435 461.226 280.359 462.355 280.931 463.822H277.917C277.521 463.015 276.971 462.414 276.267 462.018C275.563 461.622 274.749 461.424 273.825 461.424C272.813 461.424 271.911 461.651 271.119 462.106C270.327 462.561 269.704 463.213 269.249 464.064C268.809 464.915 268.589 465.905 268.589 467.034C268.589 468.163 268.809 469.153 269.249 470.004C269.704 470.855 270.327 471.515 271.119 471.984C271.911 472.439 272.813 472.666 273.825 472.666C274.749 472.666 275.563 472.468 276.267 472.072C276.971 471.676 277.521 471.075 277.917 470.268H280.931C280.359 471.735 279.435 472.864 278.159 473.656C276.898 474.448 275.453 474.844 273.825 474.844C272.388 474.844 271.075 474.514 269.887 473.854C268.699 473.179 267.753 472.248 267.049 471.06C266.36 469.872 266.015 468.53 266.015 467.034ZM294.845 462.59V474.712H292.337V473.282C291.941 473.781 291.42 474.177 290.775 474.47C290.144 474.749 289.469 474.888 288.751 474.888C287.797 474.888 286.939 474.69 286.177 474.294C285.429 473.898 284.835 473.311 284.395 472.534C283.969 471.757 283.757 470.818 283.757 469.718V462.59H286.243V469.344C286.243 470.429 286.514 471.265 287.057 471.852C287.599 472.424 288.34 472.71 289.279 472.71C290.217 472.71 290.958 472.424 291.501 471.852C292.058 471.265 292.337 470.429 292.337 469.344V462.59H294.845ZM302.554 474.91C301.601 474.91 300.743 474.741 299.98 474.404C299.232 474.052 298.638 473.583 298.198 472.996C297.758 472.395 297.523 471.727 297.494 470.994H300.09C300.134 471.507 300.376 471.94 300.816 472.292C301.271 472.629 301.835 472.798 302.51 472.798C303.214 472.798 303.757 472.666 304.138 472.402C304.534 472.123 304.732 471.771 304.732 471.346C304.732 470.891 304.512 470.554 304.072 470.334C303.647 470.114 302.965 469.872 302.026 469.608C301.117 469.359 300.376 469.117 299.804 468.882C299.232 468.647 298.733 468.288 298.308 467.804C297.897 467.32 297.692 466.682 297.692 465.89C297.692 465.245 297.883 464.658 298.264 464.13C298.645 463.587 299.188 463.162 299.892 462.854C300.611 462.546 301.432 462.392 302.356 462.392C303.735 462.392 304.842 462.744 305.678 463.448C306.529 464.137 306.983 465.083 307.042 466.286H304.534C304.49 465.743 304.27 465.311 303.874 464.988C303.478 464.665 302.943 464.504 302.268 464.504C301.608 464.504 301.102 464.629 300.75 464.878C300.398 465.127 300.222 465.457 300.222 465.868C300.222 466.191 300.339 466.462 300.574 466.682C300.809 466.902 301.095 467.078 301.432 467.21C301.769 467.327 302.268 467.481 302.928 467.672C303.808 467.907 304.527 468.149 305.084 468.398C305.656 468.633 306.147 468.985 306.558 469.454C306.969 469.923 307.181 470.547 307.196 471.324C307.196 472.013 307.005 472.629 306.624 473.172C306.243 473.715 305.7 474.14 304.996 474.448C304.307 474.756 303.493 474.91 302.554 474.91ZM312.832 464.636V471.346C312.832 471.801 312.935 472.131 313.14 472.336C313.36 472.527 313.727 472.622 314.24 472.622H315.78V474.712H313.8C312.671 474.712 311.805 474.448 311.204 473.92C310.603 473.392 310.302 472.534 310.302 471.346V464.636H308.872V462.59H310.302V459.576H312.832V462.59H315.78V464.636H312.832ZM323.349 474.91C322.205 474.91 321.171 474.653 320.247 474.14C319.323 473.612 318.597 472.879 318.069 471.94C317.541 470.987 317.277 469.887 317.277 468.64C317.277 467.408 317.549 466.315 318.091 465.362C318.634 464.409 319.375 463.675 320.313 463.162C321.252 462.649 322.301 462.392 323.459 462.392C324.618 462.392 325.667 462.649 326.605 463.162C327.544 463.675 328.285 464.409 328.827 465.362C329.37 466.315 329.641 467.408 329.641 468.64C329.641 469.872 329.363 470.965 328.805 471.918C328.248 472.871 327.485 473.612 326.517 474.14C325.564 474.653 324.508 474.91 323.349 474.91ZM323.349 472.732C323.995 472.732 324.596 472.578 325.153 472.27C325.725 471.962 326.187 471.5 326.539 470.884C326.891 470.268 327.067 469.52 327.067 468.64C327.067 467.76 326.899 467.019 326.561 466.418C326.224 465.802 325.777 465.34 325.219 465.032C324.662 464.724 324.061 464.57 323.415 464.57C322.77 464.57 322.169 464.724 321.611 465.032C321.069 465.34 320.636 465.802 320.313 466.418C319.991 467.019 319.829 467.76 319.829 468.64C319.829 469.945 320.159 470.957 320.819 471.676C321.494 472.38 322.337 472.732 323.349 472.732ZM331.285 468.596C331.285 467.379 331.534 466.301 332.033 465.362C332.546 464.423 333.235 463.697 334.101 463.184C334.981 462.656 335.956 462.392 337.027 462.392C337.819 462.392 338.596 462.568 339.359 462.92C340.136 463.257 340.752 463.712 341.207 464.284V458.432H343.737V474.712H341.207V472.886C340.796 473.473 340.224 473.957 339.491 474.338C338.772 474.719 337.943 474.91 337.005 474.91C335.949 474.91 334.981 474.646 334.101 474.118C333.235 473.575 332.546 472.827 332.033 471.874C331.534 470.906 331.285 469.813 331.285 468.596ZM341.207 468.64C341.207 467.804 341.031 467.078 340.679 466.462C340.341 465.846 339.894 465.377 339.337 465.054C338.779 464.731 338.178 464.57 337.533 464.57C336.887 464.57 336.286 464.731 335.729 465.054C335.171 465.362 334.717 465.824 334.365 466.44C334.027 467.041 333.859 467.76 333.859 468.596C333.859 469.432 334.027 470.165 334.365 470.796C334.717 471.427 335.171 471.911 335.729 472.248C336.301 472.571 336.902 472.732 337.533 472.732C338.178 472.732 338.779 472.571 339.337 472.248C339.894 471.925 340.341 471.456 340.679 470.84C341.031 470.209 341.207 469.476 341.207 468.64ZM348.307 460.984C347.852 460.984 347.471 460.83 347.163 460.522C346.855 460.214 346.701 459.833 346.701 459.378C346.701 458.923 346.855 458.542 347.163 458.234C347.471 457.926 347.852 457.772 348.307 457.772C348.747 457.772 349.121 457.926 349.429 458.234C349.737 458.542 349.891 458.923 349.891 459.378C349.891 459.833 349.737 460.214 349.429 460.522C349.121 460.83 348.747 460.984 348.307 460.984ZM349.539 462.59V474.712H347.031V462.59H349.539ZM351.996 468.596C351.996 467.379 352.245 466.301 352.744 465.362C353.257 464.423 353.946 463.697 354.812 463.184C355.692 462.656 356.66 462.392 357.716 462.392C358.669 462.392 359.498 462.583 360.202 462.964C360.92 463.331 361.492 463.793 361.918 464.35V462.59H364.448V474.712H361.918V472.908C361.492 473.48 360.913 473.957 360.18 474.338C359.446 474.719 358.61 474.91 357.672 474.91C356.63 474.91 355.677 474.646 354.812 474.118C353.946 473.575 353.257 472.827 352.744 471.874C352.245 470.906 351.996 469.813 351.996 468.596ZM361.918 468.64C361.918 467.804 361.742 467.078 361.39 466.462C361.052 465.846 360.605 465.377 360.048 465.054C359.49 464.731 358.889 464.57 358.244 464.57C357.598 464.57 356.997 464.731 356.44 465.054C355.882 465.362 355.428 465.824 355.076 466.44C354.738 467.041 354.57 467.76 354.57 468.596C354.57 469.432 354.738 470.165 355.076 470.796C355.428 471.427 355.882 471.911 356.44 472.248C357.012 472.571 357.613 472.732 358.244 472.732C358.889 472.732 359.49 472.571 360.048 472.248C360.605 471.925 361.052 471.456 361.39 470.84C361.742 470.209 361.918 469.476 361.918 468.64ZM373.858 462.392C374.811 462.392 375.662 462.59 376.41 462.986C377.172 463.382 377.766 463.969 378.192 464.746C378.617 465.523 378.83 466.462 378.83 467.562V474.712H376.344V467.936C376.344 466.851 376.072 466.022 375.53 465.45C374.987 464.863 374.246 464.57 373.308 464.57C372.369 464.57 371.621 464.863 371.064 465.45C370.521 466.022 370.25 466.851 370.25 467.936V474.712H367.742V462.59H370.25V463.976C370.66 463.477 371.181 463.089 371.812 462.81C372.457 462.531 373.139 462.392 373.858 462.392Z" fill="#BDF3FF"/>
<path d="M536.648 558.71V560.756H530.158V565.266H535.218V567.312H530.158V574H527.65V558.71H536.648ZM538.136 567.884C538.136 566.667 538.386 565.589 538.884 564.65C539.398 563.711 540.087 562.985 540.952 562.472C541.832 561.944 542.8 561.68 543.856 561.68C544.81 561.68 545.638 561.871 546.342 562.252C547.061 562.619 547.633 563.081 548.058 563.638V561.878H550.588V574H548.058V572.196C547.633 572.768 547.054 573.245 546.32 573.626C545.587 574.007 544.751 574.198 543.812 574.198C542.771 574.198 541.818 573.934 540.952 573.406C540.087 572.863 539.398 572.115 538.884 571.162C538.386 570.194 538.136 569.101 538.136 567.884ZM548.058 567.928C548.058 567.092 547.882 566.366 547.53 565.75C547.193 565.134 546.746 564.665 546.188 564.342C545.631 564.019 545.03 563.858 544.384 563.858C543.739 563.858 543.138 564.019 542.58 564.342C542.023 564.65 541.568 565.112 541.216 565.728C540.879 566.329 540.71 567.048 540.71 567.884C540.71 568.72 540.879 569.453 541.216 570.084C541.568 570.715 542.023 571.199 542.58 571.536C543.152 571.859 543.754 572.02 544.384 572.02C545.03 572.02 545.631 571.859 546.188 571.536C546.746 571.213 547.193 570.744 547.53 570.128C547.882 569.497 548.058 568.764 548.058 567.928ZM558.282 574.198C557.329 574.198 556.471 574.029 555.708 573.692C554.96 573.34 554.366 572.871 553.926 572.284C553.486 571.683 553.252 571.015 553.222 570.282H555.818C555.862 570.795 556.104 571.228 556.544 571.58C556.999 571.917 557.564 572.086 558.238 572.086C558.942 572.086 559.485 571.954 559.866 571.69C560.262 571.411 560.46 571.059 560.46 570.634C560.46 570.179 560.24 569.842 559.8 569.622C559.375 569.402 558.693 569.16 557.754 568.896C556.845 568.647 556.104 568.405 555.532 568.17C554.96 567.935 554.462 567.576 554.036 567.092C553.626 566.608 553.42 565.97 553.42 565.178C553.42 564.533 553.611 563.946 553.992 563.418C554.374 562.875 554.916 562.45 555.62 562.142C556.339 561.834 557.16 561.68 558.084 561.68C559.463 561.68 560.57 562.032 561.406 562.736C562.257 563.425 562.712 564.371 562.77 565.574H560.262C560.218 565.031 559.998 564.599 559.602 564.276C559.206 563.953 558.671 563.792 557.996 563.792C557.336 563.792 556.83 563.917 556.478 564.166C556.126 564.415 555.95 564.745 555.95 565.156C555.95 565.479 556.068 565.75 556.302 565.97C556.537 566.19 556.823 566.366 557.16 566.498C557.498 566.615 557.996 566.769 558.656 566.96C559.536 567.195 560.255 567.437 560.812 567.686C561.384 567.921 561.876 568.273 562.286 568.742C562.697 569.211 562.91 569.835 562.924 570.612C562.924 571.301 562.734 571.917 562.352 572.46C561.971 573.003 561.428 573.428 560.724 573.736C560.035 574.044 559.221 574.198 558.282 574.198ZM568.56 563.924V570.634C568.56 571.089 568.663 571.419 568.868 571.624C569.088 571.815 569.455 571.91 569.968 571.91H571.508V574H569.528C568.399 574 567.534 573.736 566.932 573.208C566.331 572.68 566.03 571.822 566.03 570.634V563.924H564.6V561.878H566.03V558.864H568.56V561.878H571.508V563.924H568.56ZM591.349 574L589.457 572.108C588.723 572.841 587.924 573.391 587.059 573.758C586.193 574.11 585.225 574.286 584.155 574.286C583.069 574.286 582.109 574.095 581.273 573.714C580.437 573.333 579.791 572.79 579.337 572.086C578.882 571.367 578.655 570.539 578.655 569.6C578.655 568.544 578.955 567.605 579.557 566.784C580.158 565.948 581.053 565.288 582.241 564.804C581.815 564.291 581.515 563.814 581.339 563.374C581.163 562.919 581.075 562.421 581.075 561.878C581.075 561.203 581.243 560.602 581.581 560.074C581.933 559.546 582.431 559.128 583.077 558.82C583.722 558.512 584.47 558.358 585.321 558.358C586.186 558.358 586.919 558.527 587.521 558.864C588.137 559.187 588.591 559.634 588.885 560.206C589.193 560.778 589.317 561.416 589.259 562.12H586.751C586.765 561.577 586.633 561.159 586.355 560.866C586.076 560.558 585.695 560.404 585.211 560.404C584.727 560.404 584.331 560.551 584.023 560.844C583.729 561.123 583.583 561.467 583.583 561.878C583.583 562.274 583.693 562.67 583.913 563.066C584.147 563.447 584.551 563.946 585.123 564.562L589.171 568.588L590.733 566.014H593.439L591.459 569.402L590.909 570.304L594.627 574H591.349ZM584.155 572.152C585.533 572.152 586.751 571.587 587.807 570.458L583.759 566.388C582.028 567.077 581.163 568.119 581.163 569.512C581.163 570.26 581.441 570.891 581.999 571.404C582.556 571.903 583.275 572.152 584.155 572.152ZM607.024 574.154C605.997 574.154 605.073 573.978 604.252 573.626C603.431 573.259 602.785 572.746 602.316 572.086C601.847 571.426 601.612 570.656 601.612 569.776H604.296C604.355 570.436 604.611 570.979 605.066 571.404C605.535 571.829 606.188 572.042 607.024 572.042C607.889 572.042 608.564 571.837 609.048 571.426C609.532 571.001 609.774 570.458 609.774 569.798C609.774 569.285 609.62 568.867 609.312 568.544C609.019 568.221 608.645 567.972 608.19 567.796C607.75 567.62 607.134 567.429 606.342 567.224C605.345 566.96 604.531 566.696 603.9 566.432C603.284 566.153 602.756 565.728 602.316 565.156C601.876 564.584 601.656 563.821 601.656 562.868C601.656 561.988 601.876 561.218 602.316 560.558C602.756 559.898 603.372 559.392 604.164 559.04C604.956 558.688 605.873 558.512 606.914 558.512C608.395 558.512 609.605 558.886 610.544 559.634C611.497 560.367 612.025 561.379 612.128 562.67H609.356C609.312 562.113 609.048 561.636 608.564 561.24C608.08 560.844 607.442 560.646 606.65 560.646C605.931 560.646 605.345 560.829 604.89 561.196C604.435 561.563 604.208 562.091 604.208 562.78C604.208 563.249 604.347 563.638 604.626 563.946C604.919 564.239 605.286 564.474 605.726 564.65C606.166 564.826 606.767 565.017 607.53 565.222C608.542 565.501 609.363 565.779 609.994 566.058C610.639 566.337 611.182 566.769 611.622 567.356C612.077 567.928 612.304 568.698 612.304 569.666C612.304 570.443 612.091 571.177 611.666 571.866C611.255 572.555 610.647 573.113 609.84 573.538C609.048 573.949 608.109 574.154 607.024 574.154ZM626.373 567.642C626.373 568.097 626.344 568.507 626.285 568.874H617.023C617.097 569.842 617.456 570.619 618.101 571.206C618.747 571.793 619.539 572.086 620.477 572.086C621.827 572.086 622.78 571.521 623.337 570.392H626.043C625.677 571.507 625.009 572.423 624.041 573.142C623.088 573.846 621.9 574.198 620.477 574.198C619.319 574.198 618.277 573.941 617.353 573.428C616.444 572.9 615.725 572.167 615.197 571.228C614.684 570.275 614.427 569.175 614.427 567.928C614.427 566.681 614.677 565.589 615.175 564.65C615.689 563.697 616.4 562.963 617.309 562.45C618.233 561.937 619.289 561.68 620.477 561.68C621.621 561.68 622.641 561.929 623.535 562.428C624.43 562.927 625.127 563.631 625.625 564.54C626.124 565.435 626.373 566.469 626.373 567.642ZM623.755 566.85C623.741 565.926 623.411 565.185 622.765 564.628C622.12 564.071 621.321 563.792 620.367 563.792C619.502 563.792 618.761 564.071 618.145 564.628C617.529 565.171 617.163 565.911 617.045 566.85H623.755ZM628.005 567.928C628.005 566.681 628.255 565.589 628.753 564.65C629.267 563.697 629.971 562.963 630.865 562.45C631.76 561.937 632.787 561.68 633.945 561.68C635.412 561.68 636.622 562.032 637.575 562.736C638.543 563.425 639.196 564.415 639.533 565.706H636.827C636.607 565.105 636.255 564.635 635.771 564.298C635.287 563.961 634.679 563.792 633.945 563.792C632.919 563.792 632.097 564.159 631.481 564.892C630.88 565.611 630.579 566.623 630.579 567.928C630.579 569.233 630.88 570.253 631.481 570.986C632.097 571.719 632.919 572.086 633.945 572.086C635.397 572.086 636.358 571.448 636.827 570.172H639.533C639.181 571.404 638.521 572.387 637.553 573.12C636.585 573.839 635.383 574.198 633.945 574.198C632.787 574.198 631.76 573.941 630.865 573.428C629.971 572.9 629.267 572.167 628.753 571.228C628.255 570.275 628.005 569.175 628.005 567.928ZM653.011 561.878V574H650.503V572.57C650.107 573.069 649.586 573.465 648.941 573.758C648.31 574.037 647.635 574.176 646.917 574.176C645.963 574.176 645.105 573.978 644.343 573.582C643.595 573.186 643.001 572.599 642.561 571.822C642.135 571.045 641.923 570.106 641.923 569.006V561.878H644.409V568.632C644.409 569.717 644.68 570.553 645.223 571.14C645.765 571.712 646.506 571.998 647.445 571.998C648.383 571.998 649.124 571.712 649.667 571.14C650.224 570.553 650.503 569.717 650.503 568.632V561.878H653.011ZM658.828 563.638C659.195 563.022 659.679 562.545 660.28 562.208C660.896 561.856 661.622 561.68 662.458 561.68V564.276H661.82C660.837 564.276 660.089 564.525 659.576 565.024C659.077 565.523 658.828 566.388 658.828 567.62V574H656.32V561.878H658.828V563.638ZM675.873 567.642C675.873 568.097 675.844 568.507 675.785 568.874H666.523C666.597 569.842 666.956 570.619 667.601 571.206C668.247 571.793 669.039 572.086 669.977 572.086C671.327 572.086 672.28 571.521 672.837 570.392H675.543C675.177 571.507 674.509 572.423 673.541 573.142C672.588 573.846 671.4 574.198 669.977 574.198C668.819 574.198 667.777 573.941 666.853 573.428C665.944 572.9 665.225 572.167 664.697 571.228C664.184 570.275 663.927 569.175 663.927 567.928C663.927 566.681 664.177 565.589 664.675 564.65C665.189 563.697 665.9 562.963 666.809 562.45C667.733 561.937 668.789 561.68 669.977 561.68C671.121 561.68 672.141 561.929 673.035 562.428C673.93 562.927 674.627 563.631 675.125 564.54C675.624 565.435 675.873 566.469 675.873 567.642ZM673.255 566.85C673.241 565.926 672.911 565.185 672.265 564.628C671.62 564.071 670.821 563.792 669.867 563.792C669.002 563.792 668.261 564.071 667.645 564.628C667.029 565.171 666.663 565.911 666.545 566.85H673.255ZM689.094 574.154C688.068 574.154 687.144 573.978 686.322 573.626C685.501 573.259 684.856 572.746 684.386 572.086C683.917 571.426 683.682 570.656 683.682 569.776H686.366C686.425 570.436 686.682 570.979 687.136 571.404C687.606 571.829 688.258 572.042 689.094 572.042C689.96 572.042 690.634 571.837 691.118 571.426C691.602 571.001 691.844 570.458 691.844 569.798C691.844 569.285 691.69 568.867 691.382 568.544C691.089 568.221 690.715 567.972 690.26 567.796C689.82 567.62 689.204 567.429 688.412 567.224C687.415 566.96 686.601 566.696 685.97 566.432C685.354 566.153 684.826 565.728 684.386 565.156C683.946 564.584 683.726 563.821 683.726 562.868C683.726 561.988 683.946 561.218 684.386 560.558C684.826 559.898 685.442 559.392 686.234 559.04C687.026 558.688 687.943 558.512 688.984 558.512C690.466 558.512 691.676 558.886 692.614 559.634C693.568 560.367 694.096 561.379 694.198 562.67H691.426C691.382 562.113 691.118 561.636 690.634 561.24C690.15 560.844 689.512 560.646 688.72 560.646C688.002 560.646 687.415 560.829 686.96 561.196C686.506 561.563 686.278 562.091 686.278 562.78C686.278 563.249 686.418 563.638 686.696 563.946C686.99 564.239 687.356 564.474 687.796 564.65C688.236 564.826 688.838 565.017 689.6 565.222C690.612 565.501 691.434 565.779 692.064 566.058C692.71 566.337 693.252 566.769 693.692 567.356C694.147 567.928 694.374 568.698 694.374 569.666C694.374 570.443 694.162 571.177 693.736 571.866C693.326 572.555 692.717 573.113 691.91 573.538C691.118 573.949 690.18 574.154 689.094 574.154ZM713.614 561.878L709.852 574H707.212L704.77 565.046L702.328 574H699.688L695.904 561.878H698.456L700.986 571.624L703.56 561.878H706.178L708.642 571.58L711.15 561.878H713.614ZM714.652 567.884C714.652 566.667 714.901 565.589 715.4 564.65C715.913 563.711 716.603 562.985 717.468 562.472C718.348 561.944 719.316 561.68 720.372 561.68C721.325 561.68 722.154 561.871 722.858 562.252C723.577 562.619 724.149 563.081 724.574 563.638V561.878H727.104V574H724.574V572.196C724.149 572.768 723.569 573.245 722.836 573.626C722.103 574.007 721.267 574.198 720.328 574.198C719.287 574.198 718.333 573.934 717.468 573.406C716.603 572.863 715.913 572.115 715.4 571.162C714.901 570.194 714.652 569.101 714.652 567.884ZM724.574 567.928C724.574 567.092 724.398 566.366 724.046 565.75C723.709 565.134 723.261 564.665 722.704 564.342C722.147 564.019 721.545 563.858 720.9 563.858C720.255 563.858 719.653 564.019 719.096 564.342C718.539 564.65 718.084 565.112 717.732 565.728C717.395 566.329 717.226 567.048 717.226 567.884C717.226 568.72 717.395 569.453 717.732 570.084C718.084 570.715 718.539 571.199 719.096 571.536C719.668 571.859 720.269 572.02 720.9 572.02C721.545 572.02 722.147 571.859 722.704 571.536C723.261 571.213 723.709 570.744 724.046 570.128C724.398 569.497 724.574 568.764 724.574 567.928ZM732.906 563.66C733.331 563.103 733.911 562.633 734.644 562.252C735.377 561.871 736.206 561.68 737.13 561.68C738.186 561.68 739.147 561.944 740.012 562.472C740.892 562.985 741.581 563.711 742.08 564.65C742.579 565.589 742.828 566.667 742.828 567.884C742.828 569.101 742.579 570.194 742.08 571.162C741.581 572.115 740.892 572.863 740.012 573.406C739.147 573.934 738.186 574.198 737.13 574.198C736.206 574.198 735.385 574.015 734.666 573.648C733.947 573.267 733.361 572.797 732.906 572.24V579.764H730.398V561.878H732.906V563.66ZM740.276 567.884C740.276 567.048 740.1 566.329 739.748 565.728C739.411 565.112 738.956 564.65 738.384 564.342C737.827 564.019 737.225 563.858 736.58 563.858C735.949 563.858 735.348 564.019 734.776 564.342C734.219 564.665 733.764 565.134 733.412 565.75C733.075 566.366 732.906 567.092 732.906 567.928C732.906 568.764 733.075 569.497 733.412 570.128C733.764 570.744 734.219 571.213 734.776 571.536C735.348 571.859 735.949 572.02 736.58 572.02C737.225 572.02 737.827 571.859 738.384 571.536C738.956 571.199 739.411 570.715 739.748 570.084C740.1 569.453 740.276 568.72 740.276 567.884Z" fill="#BDF3FF"/>
<g clip-path="url(#clip4_119_1529)">
<path d="M189.48 89.0977V169.098L209.927 152.811V100.211L189.48 89.0977ZM179.97 151.624L163.507 158.814V96.051L179.97 100.924V151.624ZM141.397 149.781L153.997 146.451V106.391L141.457 104.371L141.397 149.781Z" fill="url(#paint8_linear_119_1529)"/>
</g>
<g clip-path="url(#clip5_119_1529)">
<path d="M314.52 418.712H262.798C260.419 418.712 258.387 417.875 256.704 416.201C255.02 414.527 254.178 412.507 254.178 410.14V375.855C254.178 374.694 254.594 373.69 255.424 372.841C256.255 371.993 257.276 371.569 258.488 371.569H290.814C290.814 371.257 291.073 370.632 291.589 369.694C292.105 368.757 292.61 367.886 293.104 367.082L293.912 365.944C294.227 365.096 294.855 364.393 295.798 363.835C296.741 363.277 297.729 362.998 298.761 362.998H314.924C316.002 362.998 317.012 363.277 317.955 363.835C318.898 364.393 319.526 365.096 319.84 365.944C322.04 368.801 323.14 370.676 323.14 371.569V410.14C323.14 412.507 322.299 414.527 320.615 416.201C318.931 417.875 316.9 418.712 314.52 418.712ZM297.28 388.712C297.28 386.346 296.438 384.326 294.754 382.652C293.07 380.978 291.039 380.14 288.659 380.14C286.28 380.14 284.248 380.978 282.564 382.652C280.881 384.326 280.039 386.346 280.039 388.712C280.039 390.453 280.544 392.049 281.554 393.5C282.564 394.951 283.878 395.989 285.494 396.614L280.039 410.14H297.28L291.825 396.614C293.441 395.989 294.754 394.951 295.764 393.5C296.774 392.049 297.28 390.453 297.28 388.712ZM257.276 361.658C257.59 360.81 258.219 360.107 259.162 359.549C260.105 358.991 261.092 358.712 262.125 358.712H278.288C279.366 358.712 280.376 358.991 281.319 359.549C282.261 360.107 282.912 360.81 283.272 361.658L286.504 367.283H254.178L257.276 361.658Z" fill="url(#paint9_linear_119_1529)"/>
</g>
<path d="M514.327 216.679L538.653 224.279C539.332 224.491 539.925 224.914 540.346 225.486C540.767 226.059 540.994 226.751 540.993 227.462V233.345H547.66C548.544 233.345 549.392 233.697 550.017 234.322C550.642 234.947 550.993 235.795 550.993 236.679V243.345H507.66V236.679C507.66 235.795 508.011 234.947 508.636 234.322C509.262 233.697 510.109 233.345 510.993 233.345H534.327V229.912L514.327 223.659L494.327 229.912V254.592C494.326 256.633 494.794 258.646 495.695 260.478C496.595 262.309 497.904 263.909 499.52 265.155L500.15 265.609L514.327 275.279L526.933 266.679H510.993C510.109 266.679 509.262 266.328 508.636 265.702C508.011 265.077 507.66 264.229 507.66 263.345V250.012H550.993V263.345C550.993 264.229 550.642 265.077 550.017 265.702C549.392 266.328 548.544 266.679 547.66 266.679L536.927 266.682C535.637 268.382 534.07 269.882 532.26 271.115L514.327 283.345L496.393 271.119C493.702 269.284 491.499 266.819 489.977 263.938C488.455 261.058 487.66 257.85 487.66 254.592V227.462C487.661 226.752 487.888 226.06 488.309 225.488C488.73 224.916 489.322 224.494 490 224.282L514.327 216.679Z" fill="url(#paint10_linear_119_1529)"/>
<g clip-path="url(#clip6_119_1529)">
<path d="M618.66 487.712H634.66V485.045C634.66 482.924 633.817 480.889 632.317 479.389C630.817 477.888 628.782 477.045 626.66 477.045C624.538 477.045 622.504 477.888 621.003 479.389C619.503 480.889 618.66 482.924 618.66 485.045V487.712Z" fill="url(#paint11_linear_119_1529)"/>
<path d="M614.66 498.379H638.66V495.712H614.66V498.379Z" fill="url(#paint12_linear_119_1529)"/>
<path d="M638.66 505.045H614.66V502.378H638.66V505.045Z" fill="url(#paint13_linear_119_1529)"/>
<path d="M614.66 511.712H638.66V509.045H614.66V511.712Z" fill="url(#paint14_linear_119_1529)"/>
<path fill-rule="evenodd" clip-rule="evenodd" d="M594.66 463.712H658.66V527.712H594.66V463.712ZM609.327 487.712C608.62 487.712 607.941 487.993 607.441 488.493C606.941 488.993 606.66 489.671 606.66 490.379V517.045C606.66 517.752 606.941 518.431 607.441 518.931C607.941 519.431 608.62 519.712 609.327 519.712H643.993C644.701 519.712 645.379 519.431 645.879 518.931C646.379 518.431 646.66 517.752 646.66 517.045V490.379C646.66 489.671 646.379 488.993 645.879 488.493C645.379 487.993 644.701 487.712 643.993 487.712H639.993V485.045C639.993 477.681 634.024 471.712 626.66 471.712C619.296 471.712 613.327 477.681 613.327 485.045V487.712H609.327Z" fill="url(#paint15_linear_119_1529)"/>
</g>
<defs>
<filter id="filter0_f_119_1529" x="-9.83984" y="-43.2881" width="260" height="237" filterUnits="userSpaceOnUse" color-interpolation-filters="sRGB">
<feFlood flood-opacity="0" result="BackgroundImageFix"/>
<feBlend mode="normal" in="SourceGraphic" in2="BackgroundImageFix" result="shape"/>
<feGaussianBlur stdDeviation="30" result="effect1_foregroundBlur_119_1529"/>
</filter>
<filter id="filter1_b_119_1529" x="-32.8398" y="-11.2881" width="417" height="329" filterUnits="userSpaceOnUse" color-interpolation-filters="sRGB">
<feFlood flood-opacity="0" result="BackgroundImageFix"/>
<feGaussianBlur in="BackgroundImageFix" stdDeviation="25"/>
<feComposite in2="SourceAlpha" operator="in" result="effect1_backgroundBlur_119_1529"/>
<feBlend mode="normal" in="SourceGraphic" in2="effect1_backgroundBlur_119_1529" result="shape"/>
</filter>
<filter id="filter2_f_119_1529" x="442.66" y="81.0122" width="250" height="237" filterUnits="userSpaceOnUse" color-interpolation-filters="sRGB">
<feFlood flood-opacity="0" result="BackgroundImageFix"/>
<feBlend mode="normal" in="SourceGraphic" in2="BackgroundImageFix" result="shape"/>
<feGaussianBlur stdDeviation="30" result="effect1_foregroundBlur_119_1529"/>
</filter>
<filter id="filter3_f_119_1529" x="122.16" y="231.712" width="231" height="217" filterUnits="userSpaceOnUse" color-interpolation-filters="sRGB">
<feFlood flood-opacity="0" result="BackgroundImageFix"/>
<feBlend mode="normal" in="SourceGraphic" in2="BackgroundImageFix" result="shape"/>
<feGaussianBlur stdDeviation="30" result="effect1_foregroundBlur_119_1529"/>
</filter>
<filter id="filter4_f_119_1529" x="571.66" y="346.712" width="217" height="217" filterUnits="userSpaceOnUse" color-interpolation-filters="sRGB">
<feFlood flood-opacity="0" result="BackgroundImageFix"/>
<feBlend mode="normal" in="SourceGraphic" in2="BackgroundImageFix" result="shape"/>
<feGaussianBlur stdDeviation="30" result="effect1_foregroundBlur_119_1529"/>
</filter>
<filter id="filter5_b_119_1529" x="80.1602" y="244.712" width="417" height="329" filterUnits="userSpaceOnUse" color-interpolation-filters="sRGB">
<feFlood flood-opacity="0" result="BackgroundImageFix"/>
<feGaussianBlur in="BackgroundImageFix" stdDeviation="25"/>
<feComposite in2="SourceAlpha" operator="in" result="effect1_backgroundBlur_119_1529"/>
<feBlend mode="normal" in="SourceGraphic" in2="effect1_backgroundBlur_119_1529" result="shape"/>
</filter>
<filter id="filter6_b_119_1529" x="308.66" y="104.012" width="418" height="329" filterUnits="userSpaceOnUse" color-interpolation-filters="sRGB">
<feFlood flood-opacity="0" result="BackgroundImageFix"/>
<feGaussianBlur in="BackgroundImageFix" stdDeviation="25"/>
<feComposite in2="SourceAlpha" operator="in" result="effect1_backgroundBlur_119_1529"/>
<feBlend mode="normal" in="SourceGraphic" in2="effect1_backgroundBlur_119_1529" result="shape"/>
</filter>
<filter id="filter7_b_119_1529" x="420.66" y="357.712" width="418" height="329" filterUnits="userSpaceOnUse" color-interpolation-filters="sRGB">
<feFlood flood-opacity="0" result="BackgroundImageFix"/>
<feGaussianBlur in="BackgroundImageFix" stdDeviation="25"/>
<feComposite in2="SourceAlpha" operator="in" result="effect1_backgroundBlur_119_1529"/>
<feBlend mode="normal" in="SourceGraphic" in2="effect1_backgroundBlur_119_1529" result="shape"/>
</filter>
<linearGradient id="paint0_linear_119_1529" x1="175.66" y1="-30.6416" x2="175.66" y2="370.573" gradientUnits="userSpaceOnUse">
<stop stop-color="white" stop-opacity="0.03"/>
<stop offset="1" stop-color="white" stop-opacity="0"/>
</linearGradient>
<linearGradient id="paint1_linear_119_1529" x1="368.082" y1="267.712" x2="41.1816" y2="-46.6123" gradientUnits="userSpaceOnUse">
<stop stop-color="#F5FBF2" stop-opacity="0.44"/>
<stop offset="1" stop-color="#F5FBF2" stop-opacity="0"/>
</linearGradient>
<linearGradient id="paint2_linear_119_1529" x1="288.66" y1="225.358" x2="288.66" y2="626.573" gradientUnits="userSpaceOnUse">
<stop stop-color="white" stop-opacity="0.03"/>
<stop offset="1" stop-color="white" stop-opacity="0"/>
</linearGradient>
<linearGradient id="paint3_linear_119_1529" x1="481.082" y1="523.712" x2="154.182" y2="209.388" gradientUnits="userSpaceOnUse">
<stop stop-color="#F5FBF2" stop-opacity="0.44"/>
<stop offset="1" stop-color="#F5FBF2" stop-opacity="0"/>
</linearGradient>
<linearGradient id="paint4_linear_119_1529" x1="517.66" y1="84.6587" x2="517.66" y2="485.873" gradientUnits="userSpaceOnUse">
<stop stop-color="white" stop-opacity="0.03"/>
<stop offset="1" stop-color="white" stop-opacity="0"/>
</linearGradient>
<linearGradient id="paint5_linear_119_1529" x1="710.689" y1="383.012" x2="383.75" y2="67.659" gradientUnits="userSpaceOnUse">
<stop stop-color="#F5FBF2" stop-opacity="0.44"/>
<stop offset="1" stop-color="#F5FBF2" stop-opacity="0"/>
</linearGradient>
<linearGradient id="paint6_linear_119_1529" x1="629.66" y1="338.358" x2="629.66" y2="739.573" gradientUnits="userSpaceOnUse">
<stop stop-color="white" stop-opacity="0.03"/>
<stop offset="1" stop-color="white" stop-opacity="0"/>
</linearGradient>
<linearGradient id="paint7_linear_119_1529" x1="822.689" y1="636.712" x2="495.75" y2="321.359" gradientUnits="userSpaceOnUse">
<stop stop-color="#F5FBF2" stop-opacity="0.44"/>
<stop offset="1" stop-color="#F5FBF2" stop-opacity="0"/>
</linearGradient>
<linearGradient id="paint8_linear_119_1529" x1="175.662" y1="89.0977" x2="269.063" y2="111.742" gradientUnits="userSpaceOnUse">
<stop stop-color="#F7BC51"/>
<stop offset="0.609375" stop-color="#60E7CE" stop-opacity="0.5"/>
<stop offset="1" stop-color="#060ED0" stop-opacity="0.28"/>
</linearGradient>
<linearGradient id="paint9_linear_119_1529" x1="288.659" y1="358.712" x2="378.651" y2="387.986" gradientUnits="userSpaceOnUse">
<stop stop-color="#05D2FF"/>
<stop offset="0.609375" stop-color="#253FE0" stop-opacity="0.619792"/>
<stop offset="1" stop-color="#060ED0" stop-opacity="0.28"/>
</linearGradient>
<linearGradient id="paint10_linear_119_1529" x1="519.327" y1="216.679" x2="604.557" y2="239.595" gradientUnits="userSpaceOnUse">
<stop stop-color="#FD5A14"/>
<stop offset="0.609375" stop-color="#FFF06B" stop-opacity="0.59"/>
<stop offset="1" stop-color="#060ED0" stop-opacity="0.28"/>
</linearGradient>
<linearGradient id="paint11_linear_119_1529" x1="626.66" y1="477.045" x2="646.223" y2="485.35" gradientUnits="userSpaceOnUse">
<stop stop-color="#00DD9C"/>
<stop offset="0.609375" stop-color="#253FE0" stop-opacity="0.619792"/>
<stop offset="1" stop-color="#060ED0" stop-opacity="0.28"/>
</linearGradient>
<linearGradient id="paint12_linear_119_1529" x1="626.66" y1="495.712" x2="631.285" y2="507.493" gradientUnits="userSpaceOnUse">
<stop stop-color="#00DD9C"/>
<stop offset="0.609375" stop-color="#253FE0" stop-opacity="0.619792"/>
<stop offset="1" stop-color="#060ED0" stop-opacity="0.28"/>
</linearGradient>
<linearGradient id="paint13_linear_119_1529" x1="626.66" y1="502.378" x2="631.285" y2="514.159" gradientUnits="userSpaceOnUse">
<stop stop-color="#00DD9C"/>
<stop offset="0.609375" stop-color="#253FE0" stop-opacity="0.619792"/>
<stop offset="1" stop-color="#060ED0" stop-opacity="0.28"/>
</linearGradient>
<linearGradient id="paint14_linear_119_1529" x1="626.66" y1="509.045" x2="631.285" y2="520.826" gradientUnits="userSpaceOnUse">
<stop stop-color="#00DD9C"/>
<stop offset="0.609375" stop-color="#253FE0" stop-opacity="0.619792"/>
<stop offset="1" stop-color="#060ED0" stop-opacity="0.28"/>
</linearGradient>
<linearGradient id="paint15_linear_119_1529" x1="626.66" y1="463.712" x2="712.165" y2="487.912" gradientUnits="userSpaceOnUse">
<stop stop-color="#00DD9C"/>
<stop offset="0.609375" stop-color="#253FE0" stop-opacity="0.619792"/>
<stop offset="1" stop-color="#060ED0" stop-opacity="0.28"/>
</linearGradient>
<clipPath id="clip0_119_1529">
<rect width="140" height="117" fill="white" transform="translate(50.1602 16.7119)"/>
</clipPath>
<clipPath id="clip1_119_1529">
<rect width="130" height="117" fill="white" transform="translate(502.66 141.012)"/>
</clipPath>
<clipPath id="clip2_119_1529">
<rect width="111" height="97" fill="white" transform="translate(182.16 291.712)"/>
</clipPath>
<clipPath id="clip3_119_1529">
<rect width="97" height="97" fill="white" transform="translate(631.66 406.712)"/>
</clipPath>
<clipPath id="clip4_119_1529">
<rect width="80" height="80" fill="white" transform="translate(135.66 89.0977)"/>
</clipPath>
<clipPath id="clip5_119_1529">
<rect width="69.0411" height="60" fill="white" transform="translate(254.139 358.712)"/>
</clipPath>
<clipPath id="clip6_119_1529">
<rect width="64" height="64" fill="white" transform="translate(594.66 463.712)"/>
</clipPath>
</defs>
</svg>
