<svg width="74" height="70" viewBox="0 0 74 70" fill="none" xmlns="http://www.w3.org/2000/svg">
<mask id="mask0_202_808" style="mask-type:alpha" maskUnits="userSpaceOnUse" x="0" y="0" width="74" height="70">
<path d="M69.4581 57.8818V61.7406C69.4581 65.9852 65.9852 69.4581 61.7406 69.4581H7.71757C3.43432 69.4581 0 65.9852 0 61.7406V7.71757C0 3.47291 3.43432 0 7.71757 0H61.7406C65.9852 0 69.4581 3.47291 69.4581 7.71757V11.5764H34.7291C30.4458 11.5764 27.0115 15.0493 27.0115 19.2939V50.1642C27.0115 54.4089 30.4458 57.8818 34.7291 57.8818H69.4581ZM34.7291 50.1642H73.3169V19.2939H34.7291V50.1642ZM50.1642 40.5172C46.9614 40.5172 44.376 37.9319 44.376 34.7291C44.376 31.5263 46.9614 28.9409 50.1642 28.9409C53.367 28.9409 55.9524 31.5263 55.9524 34.7291C55.9524 37.9319 53.367 40.5172 50.1642 40.5172Z" fill="#EA3EF7"/>
</mask>
<g mask="url(#mask0_202_808)">
<rect x="-19.2941" y="-11.5762" width="92.6108" height="92.6108" fill="url(#paint0_linear_202_808)"/>
</g>
<defs>
<linearGradient id="paint0_linear_202_808" x1="-17.4252" y1="2.59896" x2="74.7399" y2="4.30848" gradientUnits="userSpaceOnUse">
<stop stop-color="#FF1CF7"/>
<stop offset="1" stop-color="#00F0FF"/>
</linearGradient>
</defs>
</svg>
