<svg width="141" height="141" viewBox="0 0 141 141" fill="none" xmlns="http://www.w3.org/2000/svg">
<path fill-rule="evenodd" clip-rule="evenodd" d="M140.558 70.7217C140.558 109.32 109.267 140.611 70.6685 140.611C32.0697 140.611 0.778809 109.32 0.778809 70.7217C0.778809 32.1229 32.0697 0.832031 70.6685 0.832031C109.267 0.832031 140.558 32.1229 140.558 70.7217Z" fill="url(#paint0_linear_346_244)"/>
<path fill-rule="evenodd" clip-rule="evenodd" d="M107.058 60.5296C112.687 60.5296 117.25 65.0921 117.25 70.7215C117.25 74.8799 114.757 78.4497 111.187 80.0353C111.342 81.0411 111.426 82.0621 111.426 83.0974C111.426 98.7789 93.1729 111.49 70.6575 111.49C48.141 111.49 29.8878 98.7789 29.8878 83.0974C29.8878 82.0556 29.974 81.028 30.1313 80.0146C26.5844 78.4202 24.1099 74.8635 24.1099 70.7215C24.1099 65.0921 28.6723 60.5296 34.3017 60.5296C37.0394 60.5296 39.5194 61.614 41.3508 63.371C48.4063 58.2876 58.1592 55.0356 69.0074 54.7353L74.1923 30.3613C74.2928 29.8895 74.5767 29.4756 74.9819 29.2136C75.3859 28.9493 75.8795 28.8565 76.3513 28.9591L93.2886 32.5595C94.48 30.1603 96.9294 28.4961 99.7894 28.4961C103.81 28.4961 107.069 31.7558 107.069 35.7766C107.069 39.7975 103.81 43.0572 99.7894 43.0572C95.8865 43.0572 92.7284 39.9787 92.5438 36.1228L77.3745 32.898L72.7323 54.7418C83.4232 55.1153 93.0221 58.3619 99.9893 63.3896C101.822 61.6216 104.31 60.5296 107.058 60.5296ZM79.4046 78.0031C79.4046 82.0174 82.6708 85.2836 86.6851 85.2836C90.6994 85.2836 93.9646 82.0174 93.9646 78.0031C93.9646 73.9888 90.6994 70.7215 86.6851 70.7215C82.6708 70.7215 79.4046 73.9888 79.4046 78.0031ZM87.9661 97.2391C82.9974 102.201 73.476 102.587 70.6771 102.587C67.8761 102.587 58.3547 102.201 53.3914 97.238C52.6554 96.502 52.6554 95.3073 53.3925 94.5702C54.1286 93.8342 55.3232 93.8331 56.0604 94.5702C59.1923 97.7021 65.8919 98.8138 70.6771 98.8138C75.4624 98.8138 82.1631 97.7021 85.3004 94.5691C86.0387 93.8331 87.2322 93.8342 87.9683 94.5713C88.7043 95.3084 88.7043 96.5031 87.9661 97.2391ZM54.6549 70.7215C50.6395 70.7215 47.3722 73.9877 47.3722 78.002C47.3722 82.0152 50.6395 85.2814 54.6549 85.2814C58.667 85.2814 61.9322 82.0152 61.9322 78.002C61.9322 73.9877 58.667 70.7215 54.6549 70.7215Z" fill="#FFFAFA"/>
<defs>
<linearGradient id="paint0_linear_346_244" x1="3.59947" y1="22.2268" x2="142.706" y2="24.807" gradientUnits="userSpaceOnUse">
<stop stop-color="#FF1CF7"/>
<stop offset="1" stop-color="#00F0FF"/>
</linearGradient>
</defs>
</svg>
