<svg width="21" height="24" viewBox="0 0 21 24" fill="none" xmlns="http://www.w3.org/2000/svg">
<path d="M20.5587 23.2255L15.3433 18.2584L15.9691 20.2452H3.17396C2.51529 20.2452 1.88359 19.9836 1.41784 19.5178C0.952087 19.0521 0.69043 18.4204 0.69043 17.7617V2.86049C0.69043 2.20181 0.952087 1.57012 1.41784 1.10436C1.88359 0.63861 2.51529 0.376953 3.17396 0.376953H18.0752C18.7338 0.376953 19.3655 0.63861 19.8313 1.10436C20.297 1.57012 20.5587 2.20181 20.5587 2.86049V23.2255ZM10.6246 6.13875C7.96222 6.13875 6.0946 7.28118 6.0946 7.28118C7.11781 6.36724 8.90596 5.84073 8.90596 5.84073L8.73708 5.67185C7.05821 5.70165 5.53829 6.86394 5.53829 6.86394C3.82962 10.4303 3.93889 13.5099 3.93889 13.5099C5.32967 15.308 7.39597 15.1788 7.39597 15.1788L8.10129 14.2847C6.85953 14.0165 6.07473 12.9138 6.07473 12.9138C6.07473 12.9138 7.94235 14.1854 10.6246 14.1854C13.3068 14.1854 15.1744 12.9138 15.1744 12.9138C15.1744 12.9138 14.3896 14.0165 13.1478 14.2847L13.8532 15.1788C13.8532 15.1788 15.9195 15.308 17.3102 13.5099C17.3102 13.5099 17.4195 10.4303 15.7108 6.86394C15.7108 6.86394 14.1909 5.70165 12.512 5.67185L12.3432 5.84073C12.3432 5.84073 14.1313 6.36724 15.1545 7.28118C15.1545 7.28118 13.2869 6.13875 10.6246 6.13875ZM8.5682 9.90379C9.21392 9.90379 9.74043 10.47 9.73049 11.1654C9.73049 11.8509 9.21392 12.4271 8.5682 12.4271C7.93241 12.4271 7.41584 11.8509 7.41584 11.1654C7.41584 10.47 7.92248 9.90379 8.5682 9.90379ZM12.7107 9.90379C13.3565 9.90379 13.873 10.47 13.873 11.1654C13.873 11.8509 13.3565 12.4271 12.7107 12.4271C12.0749 12.4271 11.5584 11.8509 11.5584 11.1654C11.5584 10.47 12.065 9.90379 12.7107 9.90379Z" fill="white"/>
</svg>
