<svg width="54" height="56" viewBox="0 0 54 56" fill="none" xmlns="http://www.w3.org/2000/svg">
<path d="M26.8254 0.738281C12.0027 0.738281 -0.0585938 13.0593 -0.0585938 28.207C-0.0585938 43.3547 12.0027 55.6757 26.8254 55.6757C41.648 55.6757 53.7093 43.3547 53.7093 28.207C53.7093 13.0593 41.648 0.738281 26.8254 0.738281ZM26.8254 53.846C12.9902 53.846 1.73535 42.3439 1.73535 28.207C1.73535 14.07 12.9902 2.56793 26.8254 2.56793C40.6605 2.56793 51.9154 14.07 51.9154 28.207C51.9154 42.3439 40.6605 53.846 26.8254 53.846Z" fill="#592CB8"/>
<path d="M32.693 12.789H28.2199C22.5229 12.7307 21.7953 16.3335 21.7953 20.2326V23.0679H19.2804C19.1667 23.0524 19.0511 23.0639 18.9425 23.1014C18.8338 23.139 18.7352 23.2016 18.6541 23.2845C18.573 23.3673 18.5117 23.4682 18.4749 23.5792C18.4382 23.6902 18.4269 23.8083 18.4421 23.9245V29.0639C18.4269 29.1801 18.4382 29.2983 18.4749 29.4092C18.5117 29.5202 18.573 29.6211 18.6541 29.7039C18.7352 29.7868 18.8338 29.8494 18.9425 29.887C19.0511 29.9246 19.1667 29.936 19.2804 29.9205H21.7953V42.7692C21.7813 42.8855 21.7935 43.0036 21.8311 43.1144C21.8686 43.2252 21.9304 43.3257 22.0118 43.4084C22.0931 43.491 22.1919 43.5536 22.3005 43.5912C22.4092 43.6289 22.5248 43.6407 22.6386 43.6257H27.7605C28.2551 43.684 28.6558 43.2746 28.4982 42.7692L28.5016 29.9205H32.693C32.8067 29.936 32.9223 29.9246 33.031 29.887C33.1396 29.8494 33.2383 29.7868 33.3194 29.7039C33.4005 29.6211 33.4618 29.5202 33.4985 29.4092C33.5353 29.2983 33.5465 29.1801 33.5313 29.0639V23.9245C33.5465 23.8083 33.5353 23.6902 33.4985 23.5792C33.4618 23.4682 33.4005 23.3673 33.3194 23.2845C33.2383 23.2016 33.1396 23.139 33.031 23.1014C32.9223 23.0639 32.8067 23.0524 32.693 23.0679H28.4966L28.5016 20.4982C28.6642 19.4035 28.6642 19.5816 29.6584 19.6416H32.6578C32.8909 19.5885 33.139 19.6176 33.3134 19.4446C33.4877 19.2716 33.5883 19.0351 33.5297 18.785V13.6456C33.5451 13.5295 33.5342 13.4114 33.4976 13.3004C33.4611 13.1893 33.3999 13.0885 33.319 13.0056C33.238 12.9226 33.1394 12.86 33.0308 12.8224C32.9222 12.7848 32.8067 12.7734 32.693 12.789ZM31.7961 17.8325L29.6936 17.7503C27.0899 17.7503 26.872 19.1945 26.872 20.6729L26.8653 23.9211C26.865 24.0413 26.888 24.1605 26.9329 24.2717C26.9778 24.3829 27.0437 24.4839 27.1269 24.569C27.21 24.6542 27.3088 24.7217 27.4175 24.7678C27.5263 24.8139 27.6428 24.8376 27.7605 24.8376H31.8548V28.1474H27.7639C27.5263 28.1474 27.2984 28.2437 27.1302 28.4152C26.9621 28.5868 26.8674 28.8194 26.8669 29.0622L26.8653 41.9126H23.4719V29.0639C23.4719 28.5586 23.1349 28.1491 22.6386 28.1491H20.1187V24.8393H22.6386C22.7562 24.8395 22.8728 24.816 22.9815 24.7701C23.0902 24.7243 23.1891 24.657 23.2723 24.5721C23.44 24.399 23.4702 24.166 23.4702 23.9228V20.2309C23.4702 16.39 24.2297 14.5604 28.2183 14.5604H31.7944V17.8325H31.7961Z" fill="#592CB8"/>
</svg>
