<svg width="204" height="37" viewBox="0 0 204 37" fill="none" xmlns="http://www.w3.org/2000/svg">
<path d="M19.9342 24.5967C19.9342 25.9407 19.5982 27.2041 18.9262 28.3868C18.281 29.5695 17.3133 30.5641 16.0231 31.3705C14.7597 32.1769 13.2545 32.6607 11.5072 32.822V36.0879H8.88644V32.822C6.35971 32.5801 4.31682 31.7871 2.75778 30.4431C1.19873 29.0991 0.419208 27.325 0.419208 25.1209H5.33826C5.4189 26.1692 5.75491 27.0428 6.34627 27.7417C6.93763 28.4137 7.78435 28.8437 8.88644 29.0319V20.1615C7.08547 19.7045 5.62051 19.2476 4.49154 18.7906C3.36258 18.3068 2.39489 17.5541 1.58849 16.5327C0.808969 15.5112 0.419208 14.1135 0.419208 12.3394C0.419208 10.1083 1.19873 8.26704 2.75778 6.81551C4.31682 5.33711 6.35971 4.47695 8.88644 4.23502V0.969092H11.5072V4.23502C13.8727 4.45006 15.7677 5.20271 17.1924 6.49295C18.6439 7.75632 19.4638 9.50352 19.6519 11.7346H14.7329C14.6522 10.9013 14.3297 10.1621 13.7652 9.51696C13.2007 8.84496 12.448 8.388 11.5072 8.14608V16.8552C13.3082 17.2853 14.7732 17.7423 15.9021 18.2261C17.0311 18.6831 17.9853 19.4223 18.7649 20.4437C19.5444 21.4383 19.9342 22.8226 19.9342 24.5967ZM5.09634 12.0974C5.09634 13.1995 5.4189 14.0597 6.06403 14.6779C6.73603 15.2962 7.67683 15.7935 8.88644 16.1698V8.02512C7.73059 8.15952 6.80323 8.57616 6.10435 9.27504C5.43234 9.97392 5.09634 10.9147 5.09634 12.0974ZM11.5072 29.0319C12.69 28.8437 13.6173 28.3733 14.2893 27.6207C14.9613 26.8412 15.2973 25.9138 15.2973 24.8386C15.2973 23.7634 14.9613 22.9301 14.2893 22.3388C13.6442 21.7205 12.7168 21.2232 11.5072 20.8469V29.0319ZM48.3353 12.6216C47.6095 11.2238 46.6015 10.1755 45.3113 9.47664C44.021 8.75088 42.5292 8.388 40.8357 8.388C38.981 8.388 37.3279 8.80464 35.8764 9.63792C34.4248 10.4712 33.2824 11.6539 32.4491 13.1861C31.6427 14.7183 31.2395 16.4923 31.2395 18.5084C31.2395 20.5244 31.6427 22.3119 32.4491 23.8709C33.2824 25.4031 34.4248 26.5858 35.8764 27.4191C37.3279 28.2524 38.981 28.669 40.8357 28.669C43.3356 28.669 45.365 27.9701 46.9241 26.5724C48.4831 25.1746 49.4374 23.2796 49.7868 20.8872H39.2632V17.2181H54.7059V20.8066C54.4102 22.9839 53.6307 24.9865 52.3673 26.8143C51.1308 28.6421 49.5046 30.1071 47.4886 31.2092C45.4994 32.2844 43.2818 32.822 40.8357 32.822C38.2015 32.822 35.7957 32.2172 33.6184 31.0076C31.4411 29.7711 29.7074 28.0642 28.4171 25.8869C27.1538 23.7096 26.5221 21.2501 26.5221 18.5084C26.5221 15.7666 27.1538 13.3071 28.4171 11.1298C29.7074 8.95248 31.4411 7.25903 33.6184 6.04943C35.8226 4.81294 38.2284 4.1947 40.8357 4.1947C43.8194 4.1947 46.4671 4.9339 48.7788 6.41231C51.1174 7.86384 52.8108 9.9336 53.8591 12.6216H48.3353ZM72.8272 32.8623C70.2199 32.8623 67.8141 32.2575 65.6099 31.0479C63.4326 29.8114 61.6989 28.1045 60.4086 25.9273C59.1453 23.7231 58.5136 21.2501 58.5136 18.5084C58.5136 15.7666 59.1453 13.3071 60.4086 11.1298C61.6989 8.95248 63.4326 7.25903 65.6099 6.04943C67.8141 4.81294 70.2199 4.1947 72.8272 4.1947C75.4615 4.1947 77.8673 4.81294 80.0445 6.04943C82.2487 7.25903 83.9825 8.95248 85.2458 11.1298C86.5092 13.3071 87.1409 15.7666 87.1409 18.5084C87.1409 21.2501 86.5092 23.7231 85.2458 25.9273C83.9825 28.1045 82.2487 29.8114 80.0445 31.0479C77.8673 32.2575 75.4615 32.8623 72.8272 32.8623ZM72.8272 28.8706C74.682 28.8706 76.3351 28.454 77.7866 27.6207C79.2381 26.7605 80.3671 25.5509 81.1735 23.9919C82.0068 22.406 82.4234 20.5781 82.4234 18.5084C82.4234 16.4386 82.0068 14.6242 81.1735 13.0651C80.3671 11.5061 79.2381 10.3099 77.7866 9.47664C76.3351 8.64336 74.682 8.22672 72.8272 8.22672C70.9725 8.22672 69.3194 8.64336 67.8679 9.47664C66.4163 10.3099 65.2739 11.5061 64.4406 13.0651C63.6342 14.6242 63.231 16.4386 63.231 18.5084C63.231 20.5781 63.6342 22.406 64.4406 23.9919C65.2739 25.5509 66.4163 26.7605 67.8679 27.6207C69.3194 28.454 70.9725 28.8706 72.8272 28.8706ZM101.623 4.55758C104.607 4.55758 107.214 5.13551 109.445 6.29135C111.703 7.42031 113.437 9.06 114.646 11.2104C115.883 13.3339 116.501 15.8203 116.501 18.6696C116.501 21.5189 115.883 23.9919 114.646 26.0885C113.437 28.1852 111.703 29.798 109.445 30.927C107.214 32.029 104.607 32.5801 101.623 32.5801H92.4704V4.55758H101.623ZM101.623 28.8303C104.902 28.8303 107.416 27.9433 109.163 26.1692C110.91 24.3951 111.784 21.8952 111.784 18.6696C111.784 15.4171 110.91 12.877 109.163 11.0491C107.416 9.22128 104.902 8.30736 101.623 8.30736H97.0669V28.8303H101.623ZM126.298 28.5884H139.322V32.5801H120.855V28.9916L133.838 8.54928H120.855V4.55758H139.322V8.14608L126.298 28.5884ZM147.491 7.42031C146.658 7.42031 145.959 7.13807 145.395 6.57359C144.83 6.00911 144.548 5.31023 144.548 4.47694C144.548 3.64366 144.83 2.94478 145.395 2.3803C145.959 1.81582 146.658 1.53357 147.491 1.53357C148.298 1.53357 148.983 1.81582 149.548 2.3803C150.112 2.94478 150.394 3.64366 150.394 4.47694C150.394 5.31023 150.112 6.00911 149.548 6.57359C148.983 7.13807 148.298 7.42031 147.491 7.42031ZM149.749 10.3637V32.5801H145.153V10.3637H149.749ZM167.799 10.0008C169.547 10.0008 171.106 10.3637 172.477 11.0894C173.874 11.8152 174.963 12.8904 175.742 14.3151C176.522 15.7397 176.912 17.46 176.912 19.476V32.5801H172.356V20.1615C172.356 18.1723 171.858 16.6536 170.864 15.6053C169.869 14.5301 168.512 13.9925 166.791 13.9925C165.071 13.9925 163.7 14.5301 162.679 15.6053C161.684 16.6536 161.187 18.1723 161.187 20.1615V32.5801H156.59V10.3637H161.187V12.9039C161.94 11.9899 162.894 11.2776 164.05 10.7669C165.232 10.2562 166.482 10.0008 167.799 10.0008ZM203.701 10.3637V32.5801H199.105V29.9593C198.379 30.8732 197.425 31.599 196.242 32.1366C195.086 32.6473 193.849 32.9026 192.532 32.9026C190.785 32.9026 189.213 32.5398 187.815 31.814C186.444 31.0882 185.355 30.013 184.549 28.5884C183.769 27.1637 183.38 25.4434 183.38 23.4274V10.3637H187.936V22.742C187.936 24.7311 188.433 26.2633 189.428 27.3385C190.422 28.3868 191.78 28.9109 193.5 28.9109C195.22 28.9109 196.578 28.3868 197.572 27.3385C198.594 26.2633 199.105 24.7311 199.105 22.742V10.3637H203.701Z" fill="url(#paint0_linear_208_829)"/>
<defs>
<linearGradient id="paint0_linear_208_829" x1="2.21749" y1="-2.23624" x2="209.418" y2="11.151" gradientUnits="userSpaceOnUse">
<stop stop-color="#FF1CF7"/>
<stop offset="1" stop-color="#00F0FF"/>
</linearGradient>
</defs>
</svg>
