<svg width="209" height="36" viewBox="0 0 209 36" fill="none" xmlns="http://www.w3.org/2000/svg">
<path d="M19.9342 24.2207C19.9342 25.5647 19.5982 26.8281 18.9262 28.0108C18.281 29.1935 17.3133 30.1881 16.0231 30.9945C14.7597 31.8009 13.2545 32.2847 11.5072 32.446V35.712H8.88644V32.446C6.35971 32.2041 4.31682 31.4111 2.75778 30.0671C1.19873 28.7231 0.419208 26.949 0.419208 24.7449H5.33826C5.4189 25.7932 5.75491 26.6668 6.34627 27.3657C6.93763 28.0377 7.78435 28.4678 8.88644 28.6559V19.7855C7.08547 19.3285 5.62051 18.8716 4.49154 18.4146C3.36258 17.9308 2.39489 17.1781 1.58849 16.1567C0.808969 15.1352 0.419208 13.7375 0.419208 11.9634C0.419208 9.73235 1.19873 7.89106 2.75778 6.43953C4.31682 4.96113 6.35971 4.10097 8.88644 3.85905V0.593116H11.5072V3.85905C13.8727 4.07409 15.7677 4.82673 17.1924 6.11697C18.6439 7.38034 19.4638 9.12754 19.6519 11.3586H14.7329C14.6522 10.5253 14.3297 9.78611 13.7652 9.14098C13.2007 8.46898 12.448 8.01202 11.5072 7.7701V16.4792C13.3082 16.9093 14.7732 17.3663 15.9021 17.8501C17.0311 18.3071 17.9853 19.0463 18.7649 20.0677C19.5444 21.0623 19.9342 22.4466 19.9342 24.2207ZM5.09634 11.7215C5.09634 12.8236 5.4189 13.6837 6.06403 14.302C6.73603 14.9202 7.67683 15.4175 8.88644 15.7938V7.64914C7.73059 7.78354 6.80323 8.20018 6.10435 8.89906C5.43234 9.59795 5.09634 10.5387 5.09634 11.7215ZM11.5072 28.6559C12.69 28.4678 13.6173 27.9974 14.2893 27.2447C14.9613 26.4652 15.2973 25.5378 15.2973 24.4626C15.2973 23.3874 14.9613 22.5541 14.2893 21.9628C13.6442 21.3445 12.7168 20.8473 11.5072 20.4709V28.6559ZM48.3353 12.2456C47.6095 10.8479 46.6015 9.79955 45.3113 9.10066C44.021 8.3749 42.5292 8.01202 40.8357 8.01202C38.981 8.01202 37.3279 8.42866 35.8764 9.26195C34.4248 10.0952 33.2824 11.278 32.4491 12.8101C31.6427 14.3423 31.2395 16.1164 31.2395 18.1324C31.2395 20.1484 31.6427 21.9359 32.4491 23.495C33.2824 25.0271 34.4248 26.2098 35.8764 27.0431C37.3279 27.8764 38.981 28.293 40.8357 28.293C43.3356 28.293 45.365 27.5942 46.9241 26.1964C48.4831 24.7986 49.4374 22.9036 49.7868 20.5113H39.2632V16.8421H54.7059V20.4306C54.4102 22.6079 53.6307 24.6105 52.3673 26.4383C51.1308 28.2662 49.5046 29.7311 47.4886 30.8332C45.4994 31.9084 43.2818 32.446 40.8357 32.446C38.2015 32.446 35.7957 31.8412 33.6184 30.6316C31.4411 29.3951 29.7074 27.6882 28.4171 25.511C27.1538 23.3337 26.5221 20.8741 26.5221 18.1324C26.5221 15.3906 27.1538 12.9311 28.4171 10.7538C29.7074 8.5765 31.4411 6.88306 33.6184 5.67345C35.8226 4.43697 38.2284 3.81873 40.8357 3.81873C43.8194 3.81873 46.4671 4.55793 48.7788 6.03633C51.1174 7.48786 52.8108 9.55763 53.8591 12.2456H48.3353ZM72.8272 32.4863C70.2199 32.4863 67.8141 31.8815 65.6099 30.6719C63.4326 29.4355 61.6989 27.7286 60.4086 25.5513C59.1453 23.3471 58.5136 20.8741 58.5136 18.1324C58.5136 15.3906 59.1453 12.9311 60.4086 10.7538C61.6989 8.5765 63.4326 6.88306 65.6099 5.67345C67.8141 4.43697 70.2199 3.81873 72.8272 3.81873C75.4615 3.81873 77.8673 4.43697 80.0445 5.67345C82.2487 6.88306 83.9825 8.5765 85.2458 10.7538C86.5092 12.9311 87.1409 15.3906 87.1409 18.1324C87.1409 20.8741 86.5092 23.3471 85.2458 25.5513C83.9825 27.7286 82.2487 29.4355 80.0445 30.6719C77.8673 31.8815 75.4615 32.4863 72.8272 32.4863ZM72.8272 28.4946C74.682 28.4946 76.3351 28.078 77.7866 27.2447C79.2381 26.3846 80.3671 25.175 81.1735 23.6159C82.0068 22.03 82.4234 20.2021 82.4234 18.1324C82.4234 16.0626 82.0068 14.2482 81.1735 12.6892C80.3671 11.1301 79.2381 9.93395 77.7866 9.10066C76.3351 8.26738 74.682 7.85074 72.8272 7.85074C70.9725 7.85074 69.3194 8.26738 67.8679 9.10066C66.4163 9.93395 65.2739 11.1301 64.4406 12.6892C63.6342 14.2482 63.231 16.0626 63.231 18.1324C63.231 20.2021 63.6342 22.03 64.4406 23.6159C65.2739 25.175 66.4163 26.3846 67.8679 27.2447C69.3194 28.078 70.9725 28.4946 72.8272 28.4946ZM101.623 4.18161C104.607 4.18161 107.214 4.75953 109.445 5.91537C111.703 7.04434 113.437 8.68402 114.646 10.8344C115.883 12.958 116.501 15.4444 116.501 18.2937C116.501 21.1429 115.883 23.6159 114.646 25.7126C113.437 27.8092 111.703 29.422 109.445 30.551C107.214 31.6531 104.607 32.2041 101.623 32.2041H92.4704V4.18161H101.623ZM101.623 28.4543C104.902 28.4543 107.416 27.5673 109.163 25.7932C110.91 24.0191 111.784 21.5193 111.784 18.2937C111.784 15.0412 110.91 12.501 109.163 10.6731C107.416 8.8453 104.902 7.93138 101.623 7.93138H97.0669V28.4543H101.623ZM126.298 28.2124H139.322V32.2041H120.855V28.6156L133.838 8.1733H120.855V4.18161H139.322V7.7701L126.298 28.2124ZM149.749 4.18161V32.2041H145.153V4.18161H149.749ZM179.613 32.2041H175.017L161.187 11.278V32.2041H156.59V4.14129H161.187L175.017 25.0271V4.14129H179.613V32.2041ZM191.012 4.18161V22.0434C191.012 24.167 191.563 25.7663 192.665 26.8415C193.794 27.9167 195.353 28.4543 197.342 28.4543C199.358 28.4543 200.917 27.9167 202.019 26.8415C203.148 25.7663 203.713 24.167 203.713 22.0434V4.18161H208.309V21.9628C208.309 24.2476 207.812 26.183 206.817 27.7689C205.823 29.3548 204.492 30.5375 202.826 31.3171C201.159 32.0966 199.318 32.4863 197.302 32.4863C195.286 32.4863 193.444 32.0966 191.778 31.3171C190.138 30.5375 188.835 29.3548 187.867 27.7689C186.899 26.183 186.415 24.2476 186.415 21.9628V4.18161H191.012Z" fill="url(#paint0_linear_124_495)"/>
<defs>
<linearGradient id="paint0_linear_124_495" x1="2.31839" y1="-2.61222" x2="214.433" y2="11.4204" gradientUnits="userSpaceOnUse">
<stop stop-color="#FF1CF7"/>
<stop offset="1" stop-color="#00F0FF"/>
</linearGradient>
</defs>
</svg>
