<svg width="21" height="20" viewBox="0 0 21 20" fill="none" xmlns="http://www.w3.org/2000/svg">
<path d="M10.709 0.370361C9.40447 0.370361 8.11267 0.627315 6.90741 1.12655C5.70214 1.62579 4.60701 2.35753 3.68454 3.28C1.82153 5.14301 0.774902 7.6698 0.774902 10.3045C0.774902 14.6954 3.626 18.4207 7.56985 19.7419C8.06656 19.8214 8.2255 19.5134 8.2255 19.2452V17.5664C5.47375 18.1624 4.88763 16.2352 4.88763 16.2352C4.43066 15.0828 3.78495 14.7749 3.78495 14.7749C2.88094 14.1589 3.85448 14.1788 3.85448 14.1788C4.8479 14.2483 5.37441 15.202 5.37441 15.202C6.23868 16.712 7.69899 16.265 8.26524 16.0266C8.35465 15.3808 8.61293 14.9437 8.89109 14.6954C6.68571 14.447 4.37106 13.5927 4.37106 9.80779C4.37106 8.7051 4.74856 7.82096 5.39428 7.11564C5.29493 6.86729 4.94724 5.83414 5.49362 4.49303C5.49362 4.49303 6.32808 4.22481 8.2255 5.50631C9.0103 5.28776 9.86464 5.17848 10.709 5.17848C11.5534 5.17848 12.4078 5.28776 13.1926 5.50631C15.09 4.22481 15.9245 4.49303 15.9245 4.49303C16.4708 5.83414 16.1231 6.86729 16.0238 7.11564C16.6695 7.82096 17.047 8.7051 17.047 9.80779C17.047 13.6026 14.7224 14.4371 12.5071 14.6855C12.8647 14.9934 13.1926 15.5994 13.1926 16.5233V19.2452C13.1926 19.5134 13.3515 19.8313 13.8582 19.7419C17.802 18.4108 20.6432 14.6954 20.6432 10.3045C20.6432 8.99993 20.3862 7.70813 19.887 6.50287C19.3877 5.2976 18.656 4.20247 17.7335 3.28C16.8111 2.35753 15.7159 1.62579 14.5107 1.12655C13.3054 0.627315 12.0136 0.370361 10.709 0.370361Z" fill="white"/>
</svg>
