<svg width="1728" height="1934" viewBox="0 0 1728 1934" fill="none" xmlns="http://www.w3.org/2000/svg">
<path opacity="0.0144928" d="M1608.23 1634.65C1617.29 1639.45 1628.43 1637.69 1635.55 1630.32L1861.88 1396.24C1866.1 1391.88 1868.42 1386.04 1868.35 1379.97L1862.73 913.909C1862.67 909.142 1861.14 904.511 1858.33 900.656L1618.19 570.549C1613.1 563.559 1604.53 560.011 1595.99 561.363L1315.54 605.782C1307 607.134 1299.94 613.159 1297.27 621.378L1170.88 1009.54C1169.41 1014.07 1169.37 1018.95 1170.79 1023.5L1309.47 1468.49C1311.28 1474.28 1315.29 1479.12 1320.65 1481.96L1608.23 1634.65Z" stroke="url(#paint0_linear_17_2227)" stroke-width="4"/>
<path opacity="0.0289855" d="M1557.08 1633.16C1565.86 1638.4 1577.04 1637.23 1584.53 1630.27L1821.45 1410.33C1825.9 1406.2 1828.53 1400.47 1828.78 1394.41L1847.61 932.976C1847.8 928.198 1846.5 923.478 1843.89 919.473L1622.81 580.496C1618.09 573.265 1609.73 569.284 1601.14 570.186L1320.43 599.69C1311.84 600.593 1304.49 606.227 1301.38 614.28L1155.6 991.815C1153.88 996.276 1153.59 1001.16 1154.78 1005.8L1269.13 1453.23C1270.63 1459.11 1274.4 1464.16 1279.61 1467.27L1557.08 1633.16Z" stroke="url(#paint1_linear_17_2227)" stroke-width="4"/>
<path opacity="0.0434783" d="M1506.32 1630.12C1514.8 1635.79 1525.99 1635.2 1533.83 1628.68L1780.47 1423.33C1785.14 1419.44 1788.09 1413.85 1788.65 1407.8L1831.43 952.271C1831.88 947.496 1830.82 942.7 1828.41 938.555L1626.66 591.788C1622.32 584.336 1614.18 579.935 1605.58 580.386L1325.39 595.07C1316.78 595.521 1309.15 600.749 1305.61 608.613L1141.21 974.569C1139.25 978.944 1138.7 983.824 1139.65 988.526L1229.8 1437.09C1231 1443.05 1234.51 1448.29 1239.56 1451.67L1506.32 1630.12Z" stroke="url(#paint2_linear_17_2227)" stroke-width="4"/>
<path opacity="0.057971" d="M1456.04 1625.56C1464.19 1631.64 1475.37 1631.64 1483.52 1625.56L1739.02 1435.22C1743.9 1431.58 1747.15 1426.15 1748.03 1420.13L1814.19 971.737C1814.89 966.977 1814.09 962.117 1811.88 957.841L1629.67 604.37C1625.72 596.717 1617.83 591.909 1609.22 591.909L1330.34 591.909C1321.73 591.909 1313.84 596.717 1309.9 604.37L1127.68 957.841C1125.48 962.117 1124.67 966.977 1125.37 971.737L1191.53 1420.13C1192.42 1426.15 1195.66 1431.58 1200.54 1435.22L1456.04 1625.56Z" stroke="url(#paint3_linear_17_2227)" stroke-width="4"/>
<path opacity="0.0724638" d="M1406.31 1619.54C1414.13 1626 1425.25 1626.58 1433.7 1620.97L1697.16 1445.99C1702.24 1442.62 1705.77 1437.36 1706.98 1431.39L1795.89 991.313C1796.84 986.582 1796.29 981.671 1794.3 977.274L1631.77 618.184C1628.22 610.351 1620.6 605.149 1612.02 604.699L1335.2 590.192C1326.62 589.742 1318.5 594.119 1314.15 601.538L1114.97 941.672C1112.53 945.837 1111.47 950.663 1111.92 955.468L1154.35 1402.42C1154.92 1408.49 1157.88 1414.09 1162.58 1417.97L1406.31 1619.54Z" stroke="url(#paint4_linear_17_2227)" stroke-width="4"/>
<path opacity="0.0869565" d="M1357.22 1612.08C1364.67 1618.91 1375.71 1620.07 1384.43 1614.94L1654.95 1455.63C1660.21 1452.53 1664.03 1447.47 1665.55 1441.55L1776.52 1010.94C1777.73 1006.25 1777.43 1001.3 1775.66 996.796L1632.9 633.169C1629.76 625.176 1622.43 619.597 1613.89 618.7L1339.9 589.901C1331.36 589.004 1323.03 592.937 1318.3 600.103L1103.05 926.102C1100.38 930.143 1099.06 934.922 1099.27 939.759L1118.29 1384.03C1118.55 1390.13 1121.22 1395.88 1125.73 1400.01L1357.22 1612.08Z" stroke="url(#paint5_linear_17_2227)" stroke-width="4"/>
<path opacity="0.101449" d="M1308.83 1603.24C1315.91 1610.42 1326.83 1612.15 1335.78 1607.51L1612.46 1464.13C1617.89 1461.32 1621.98 1456.45 1623.81 1450.62L1756.1 1030.56C1757.56 1025.93 1757.52 1020.96 1755.97 1016.35L1633.01 649.26C1630.29 641.13 1623.27 635.19 1614.8 633.849L1344.35 591.013C1335.88 589.672 1327.37 593.152 1322.26 600.043L1091.88 911.168C1088.99 915.071 1087.41 919.79 1087.37 924.647L1083.38 1365.02C1083.32 1371.14 1085.71 1377.03 1090 1381.38L1308.83 1603.24Z" stroke="url(#paint6_linear_17_2227)" stroke-width="4"/>
<path opacity="0.115942" d="M1261.2 1593.08C1267.89 1600.59 1278.68 1602.88 1287.84 1598.74L1569.74 1471.49C1575.33 1468.96 1579.67 1464.32 1581.82 1458.58L1734.63 1050.12C1736.34 1045.56 1736.55 1040.57 1735.24 1035.88L1632.04 666.391C1629.74 658.145 1623.05 651.861 1614.67 650.08L1348.48 593.5C1340.11 591.72 1331.44 594.738 1325.98 601.335L1081.42 896.903C1078.31 900.658 1076.48 905.302 1076.18 910.166L1049.65 1345.46C1049.28 1351.58 1051.36 1357.59 1055.43 1362.17L1261.2 1593.08Z" stroke="url(#paint7_linear_17_2227)" stroke-width="4"/>
<path opacity="0.130435" d="M1214.42 1581.65C1220.7 1589.46 1231.32 1592.3 1240.66 1588.68L1526.87 1477.7C1532.59 1475.48 1537.19 1471.06 1539.64 1465.44L1712.12 1069.56C1714.07 1065.08 1714.55 1060.09 1713.47 1055.32L1629.96 684.492C1628.08 676.152 1621.73 669.542 1613.47 667.329L1352.23 597.33C1343.97 595.118 1335.17 597.668 1329.37 603.951L1071.63 883.341C1068.32 886.935 1066.23 891.492 1065.68 896.35L1017.12 1325.43C1016.43 1331.53 1018.2 1337.65 1022.05 1342.43L1214.42 1581.65Z" stroke="url(#paint8_linear_17_2227)" stroke-width="4"/>
<path opacity="0.144928" d="M1168.54 1569C1174.4 1577.09 1184.81 1580.47 1194.31 1577.37L1483.89 1482.76C1489.74 1480.85 1494.57 1476.69 1497.32 1471.19L1688.58 1088.82C1690.78 1084.44 1691.51 1079.46 1690.68 1074.63L1626.7 703.493C1625.25 695.081 1619.26 688.164 1611.14 685.526L1355.52 602.471C1347.41 599.833 1338.49 601.908 1332.38 607.861L1062.47 870.511C1058.95 873.933 1056.63 878.389 1055.82 883.228L985.805 1304.99C984.799 1311.05 986.261 1317.27 989.866 1322.24L1168.54 1569Z" stroke="url(#paint9_linear_17_2227)" stroke-width="4"/>
<path opacity="0.15942" d="M1123.61 1555.2C1129.04 1563.55 1139.22 1567.46 1148.84 1564.88L1440.89 1486.69C1446.83 1485.1 1451.89 1481.19 1454.93 1475.84L1664.03 1107.86C1666.47 1103.58 1667.46 1098.63 1666.87 1093.74L1622.24 723.32C1621.22 714.858 1615.6 707.653 1607.65 704.599L1358.3 608.882C1350.34 605.828 1341.34 607.424 1334.92 613.03L1053.89 858.441C1050.19 861.679 1047.62 866.021 1046.56 870.829L955.721 1284.21C954.4 1290.22 955.544 1296.51 958.898 1301.68L1123.61 1555.2Z" stroke="url(#paint10_linear_17_2227)" stroke-width="4"/>
<path opacity="0.173913" d="M1079.69 1540.31C1084.67 1548.9 1094.61 1553.32 1104.32 1551.27L1397.9 1489.5C1403.94 1488.23 1409.21 1484.59 1412.53 1479.4L1638.5 1126.6C1641.16 1122.44 1642.42 1117.54 1642.07 1112.61L1616.53 743.898C1615.95 735.408 1610.72 727.937 1602.94 724.475L1360.48 616.524C1352.71 613.062 1343.66 614.176 1336.95 619.42L1045.86 847.155C1041.97 850.199 1039.16 854.415 1037.85 859.178L926.874 1263.17C925.241 1269.11 926.064 1275.47 929.158 1280.8L1079.69 1540.31Z" stroke="url(#paint11_linear_17_2227)" stroke-width="4"/>
<path opacity="0.188406" d="M1036.84 1524.4C1041.36 1533.2 1051.02 1538.12 1060.8 1536.61L1355 1491.19C1361.11 1490.24 1366.58 1486.89 1370.18 1481.87L1611.99 1145.01C1614.88 1140.98 1616.4 1136.13 1616.3 1131.18L1609.56 765.15C1609.4 756.655 1604.57 748.938 1597 745.081L1362.02 625.35C1354.45 621.493 1345.37 622.123 1338.4 626.99L1038.32 836.677C1034.25 839.516 1031.22 843.592 1029.66 848.298L899.271 1241.93C897.329 1247.79 897.826 1254.19 900.652 1259.68L1036.84 1524.4Z" stroke="url(#paint12_linear_17_2227)" stroke-width="4"/>
<path opacity="0.202899" d="M995.088 1507.54C999.153 1516.52 1008.5 1521.92 1018.32 1520.95L1312.25 1491.78C1318.4 1491.17 1324.05 1488.1 1327.92 1483.27L1584.55 1163.03C1587.66 1159.15 1589.43 1154.37 1589.59 1149.39L1601.29 787C1601.56 778.522 1597.14 770.581 1589.8 766.34L1362.86 635.315C1355.51 631.073 1346.42 631.22 1339.22 635.696L1031.23 827.024C1027 829.65 1023.74 833.574 1021.93 838.209L872.911 1220.57C870.664 1226.34 870.835 1232.76 873.384 1238.4L995.088 1507.54Z" stroke="url(#paint13_linear_17_2227)" stroke-width="4"/>
<path opacity="0.217391" d="M954.487 1489.79C958.081 1498.95 967.097 1504.8 976.921 1504.36L1269.69 1491.29C1275.88 1491.01 1281.7 1488.25 1285.82 1483.62L1556.19 1180.62C1559.51 1176.9 1561.53 1172.19 1561.95 1167.21L1591.69 809.37C1592.39 800.93 1588.4 792.788 1581.3 788.175L1362.93 646.366C1355.83 641.754 1346.77 641.418 1339.34 645.492L1024.54 818.216C1020.16 820.618 1016.68 824.379 1014.63 828.931L847.792 1199.16C845.245 1204.81 845.087 1211.25 847.353 1217.02L954.487 1489.79Z" stroke="url(#paint14_linear_17_2227)" stroke-width="4"/>
<path opacity="0.231884" d="M915.07 1471.24C918.189 1480.53 926.852 1486.83 936.652 1486.92L1227.39 1489.73C1233.59 1489.79 1239.56 1487.34 1243.94 1482.94L1526.94 1197.72C1530.47 1194.17 1532.74 1189.55 1533.41 1184.59L1580.77 832.181C1581.89 823.801 1578.33 815.48 1571.49 810.51L1362.2 658.453C1355.36 653.483 1346.35 652.667 1338.72 656.327L1018.2 810.266C1013.68 812.435 1010 816.021 1007.7 820.477L823.905 1177.77C821.065 1183.29 820.577 1189.72 822.553 1195.61L915.07 1471.24Z" stroke="url(#paint15_linear_17_2227)" stroke-width="4"/>
<path opacity="0.246377" d="M876.872 1451.96C879.509 1461.36 887.799 1468.07 897.546 1468.7L1185.39 1487.15C1191.6 1487.55 1197.7 1485.41 1202.31 1481.24L1496.84 1214.3C1500.57 1210.92 1503.09 1206.42 1504.01 1201.47L1568.49 855.352C1570.04 847.055 1566.91 838.577 1560.35 833.266L1360.61 671.519C1354.05 666.207 1345.11 664.915 1337.32 668.152L1012.17 803.185C1007.52 805.115 1003.64 808.514 1001.11 812.862L801.241 1156.46C798.114 1161.83 797.297 1168.25 798.977 1174.24L876.872 1451.96Z" stroke="url(#paint16_linear_17_2227)" stroke-width="4"/>
<path opacity="0.26087" d="M839.919 1432.01C842.072 1441.5 849.967 1448.61 859.632 1449.76L1143.76 1483.55C1149.94 1484.29 1156.16 1482.49 1161 1478.55L1465.93 1230.3C1469.85 1227.12 1472.6 1222.73 1473.78 1217.82L1554.86 878.807C1556.82 870.613 1554.14 862.003 1547.88 856.365L1358.12 685.507C1351.86 679.869 1343.02 678.106 1335.07 680.912L1006.39 796.984C1001.63 798.666 997.558 801.867 994.797 806.095L779.784 1135.31C776.377 1140.52 775.232 1146.9 776.61 1152.97L839.919 1432.01Z" stroke="url(#paint17_linear_17_2227)" stroke-width="4"/>
<path opacity="0.275362" d="M804.235 1411.48C805.902 1421.04 813.384 1428.52 822.938 1430.19L1102.53 1478.98C1108.68 1480.05 1115 1478.58 1120.04 1474.9L1434.24 1245.7C1438.33 1242.71 1441.32 1238.45 1442.75 1233.59L1539.87 902.466C1542.24 894.395 1540.01 885.676 1534.06 879.729L1354.69 700.357C1348.74 694.41 1340.02 692.183 1331.95 694.55L1000.83 791.669C995.967 793.095 991.711 796.089 988.723 800.184L759.515 1114.38C755.837 1119.42 754.366 1125.74 755.439 1131.89L804.235 1411.48Z" stroke="url(#paint18_linear_17_2227)" stroke-width="4"/>
<path opacity="0.289855" d="M769.839 1390.45C771.02 1400.04 778.07 1407.87 787.485 1410.05L1061.77 1473.46C1067.86 1474.87 1074.26 1473.74 1079.5 1470.33L1401.8 1260.44C1406.07 1257.66 1409.29 1253.55 1410.97 1248.74L1523.52 926.25C1526.29 918.323 1524.52 909.52 1518.9 903.281L1350.28 716.01C1344.66 709.772 1336.09 707.089 1327.92 709.012L995.428 787.243C990.475 788.408 986.047 791.184 982.84 795.134L740.413 1093.73C736.472 1098.58 734.677 1104.83 735.441 1111.04L769.839 1390.45Z" stroke="url(#paint19_linear_17_2227)" stroke-width="4"/>
<path opacity="0.304348" d="M736.746 1368.98C737.441 1378.59 744.044 1386.74 753.293 1389.42L1021.5 1467.03C1027.52 1468.77 1033.99 1467.98 1039.41 1464.85L1368.67 1274.49C1373.09 1271.94 1376.54 1267.98 1378.46 1263.25L1505.83 950.082C1508.98 942.32 1507.67 933.455 1502.4 926.943L1344.86 732.403C1339.59 725.891 1331.19 722.762 1322.94 724.236L990.138 783.708C985.109 784.606 980.522 787.154 977.101 790.949L722.451 1073.44C718.258 1078.09 716.143 1084.25 716.595 1090.5L736.746 1368.98Z" stroke="url(#paint20_linear_17_2227)" stroke-width="4"/>
<path opacity="0.318841" d="M704.966 1347.17C705.177 1356.76 711.318 1365.21 720.373 1368.37L981.788 1459.72C987.711 1461.79 994.223 1461.35 999.814 1458.5L1334.88 1287.83C1339.45 1285.5 1343.11 1281.71 1345.28 1277.06L1486.79 973.886C1490.33 966.307 1489.47 957.405 1484.56 950.639L1338.4 749.473C1333.48 742.706 1325.28 739.142 1316.98 740.164L984.913 781.062C979.821 781.689 975.086 784 971.459 787.628L705.6 1053.55C701.164 1057.99 698.733 1064.05 698.871 1070.32L704.966 1347.17Z" stroke="url(#paint21_linear_17_2227)" stroke-width="4"/>
<path opacity="0.333333" d="M674.505 1325.07C674.235 1334.63 679.901 1343.35 688.736 1346.99L942.659 1451.57C948.471 1453.97 955.01 1453.88 960.755 1451.33L1300.47 1300.41C1305.18 1298.32 1309.05 1294.71 1311.46 1290.16L1466.43 997.585C1470.34 990.208 1469.94 981.294 1465.39 974.293L1330.87 767.154C1326.33 760.153 1318.35 756.165 1310.02 756.734L979.705 779.302C974.566 779.653 969.694 781.719 965.869 785.169L689.829 1034.14C685.161 1038.35 682.42 1044.28 682.243 1050.57L674.505 1325.07Z" stroke="url(#paint22_linear_17_2227)" stroke-width="4"/>
<path opacity="0.347826" d="M645.362 1302.78C644.617 1312.27 649.795 1321.24 658.386 1325.34L904.155 1442.63C909.839 1445.34 916.386 1445.6 922.269 1443.36L1265.5 1312.22C1270.33 1310.37 1274.4 1306.95 1277.05 1302.51L1444.76 1021.11C1449.02 1013.95 1449.09 1005.05 1444.92 997.832L1322.26 785.381C1318.1 778.166 1310.35 773.768 1302.02 773.883L974.468 778.421C969.296 778.492 964.299 780.305 960.284 783.567L675.101 1015.25C670.213 1019.22 667.167 1025.02 666.674 1031.3L645.362 1302.78Z" stroke="url(#paint23_linear_17_2227)" stroke-width="4"/>
<path opacity="0.362319" d="M617.536 1280.37C616.322 1289.78 621.002 1298.96 629.323 1303.5L866.312 1432.93C871.85 1435.95 878.387 1436.57 884.392 1434.63L1230.01 1323.22C1234.96 1321.63 1239.21 1318.41 1242.09 1314.08L1421.81 1044.38C1426.42 1037.46 1426.93 1028.59 1423.16 1021.18L1312.54 804.089C1308.77 796.681 1301.29 791.887 1292.98 791.55L969.155 778.41C963.965 778.199 958.856 779.752 954.66 782.815L661.377 996.941C656.281 1000.66 652.937 1006.31 652.129 1012.57L617.536 1280.37Z" stroke="url(#paint24_linear_17_2227)" stroke-width="4"/>
<path opacity="0.376812" d="M591.019 1257.91C589.341 1267.2 593.515 1276.58 601.543 1281.55L829.163 1422.51C834.538 1425.84 841.046 1426.81 847.157 1425.2L1194.05 1333.39C1199.09 1332.06 1203.53 1329.05 1206.64 1324.86L1397.6 1067.33C1402.54 1060.67 1403.51 1051.86 1400.13 1044.28L1301.71 823.211C1298.33 815.632 1291.14 810.457 1282.88 809.67L963.721 779.258C958.528 778.763 953.32 780.049 948.953 782.904L648.617 979.267C643.326 982.727 639.692 988.211 638.569 994.433L591.019 1257.91Z" stroke="url(#paint25_linear_17_2227)" stroke-width="4"/>
<path opacity="0.391304" d="M565.798 1235.48C563.667 1244.64 567.327 1254.17 575.04 1259.55L792.74 1411.43C797.935 1415.06 804.394 1416.38 810.595 1415.09L1157.66 1342.72C1162.79 1341.65 1167.4 1338.86 1170.73 1334.81L1372.16 1089.89C1377.42 1083.5 1378.84 1074.77 1375.87 1067.04L1289.75 842.682C1286.78 834.953 1279.89 829.414 1271.7 828.181L958.123 780.952C952.941 780.172 947.648 781.184 943.121 783.822L636.777 962.276C631.304 965.464 627.388 970.768 625.952 976.937L565.798 1235.48Z" stroke="url(#paint26_linear_17_2227)" stroke-width="4"/>
<path opacity="0.405797" d="M541.859 1213.14C539.283 1222.15 542.424 1231.81 549.8 1237.58L757.068 1399.73C762.067 1403.64 768.459 1405.31 774.732 1404.35L1120.9 1351.18C1126.1 1350.38 1130.88 1347.82 1134.42 1343.93L1345.53 1112C1351.09 1105.89 1352.95 1097.27 1350.4 1089.41L1276.65 862.435C1274.1 854.578 1267.52 848.693 1259.43 847.019L952.316 783.476C947.161 782.409 941.797 783.143 937.118 785.555L625.809 946.013C620.168 948.921 615.979 954.03 614.233 960.132L541.859 1213.14Z" stroke="url(#paint27_linear_17_2227)" stroke-width="4"/>
<path opacity="0.42029" d="M519.18 1190.98C516.171 1199.8 518.789 1209.57 525.808 1215.71L722.174 1387.46C726.96 1391.64 733.266 1393.66 739.594 1393.03L1083.82 1358.76C1089.08 1358.24 1094 1355.92 1097.75 1352.19L1317.75 1133.59C1323.6 1127.78 1325.89 1119.29 1323.76 1111.33L1262.42 882.404C1260.28 874.442 1254.05 868.23 1246.08 866.122L946.259 786.811C941.147 785.459 935.725 785.909 930.907 788.086L615.666 930.522C609.871 933.141 605.419 938.041 603.366 944.06L519.18 1190.98Z" stroke="url(#paint28_linear_17_2227)" stroke-width="4"/>
<path opacity="0.434783" d="M497.739 1169.05C494.308 1177.68 496.4 1187.52 503.044 1194.01L688.078 1374.65C692.637 1379.1 698.839 1381.46 705.203 1381.17L1046.46 1365.45C1051.77 1365.21 1056.83 1363.13 1060.78 1359.58L1288.86 1154.61C1294.97 1149.11 1297.69 1140.76 1295.98 1132.72L1247.05 902.525C1245.34 894.48 1239.46 887.96 1231.64 885.426L939.91 790.937C934.857 789.3 929.392 789.463 924.445 791.398L606.295 915.844C600.362 918.165 595.657 922.843 593.302 928.764L497.739 1169.05Z" stroke="url(#paint29_linear_17_2227)" stroke-width="4"/>
<path opacity="0.449275" d="M477.507 1147.43C473.667 1155.84 475.233 1165.73 481.483 1172.54L654.8 1361.37C659.117 1366.07 665.195 1368.77 671.579 1368.82L1008.89 1371.24C1014.22 1371.28 1019.41 1369.46 1023.55 1366.1L1258.89 1174.99C1265.26 1169.81 1268.39 1161.64 1267.11 1153.53L1230.55 922.732C1229.27 914.628 1223.77 907.821 1216.11 904.869L933.231 795.833C928.251 793.914 922.758 793.786 917.694 795.472L597.645 902.015C591.587 904.031 586.641 908.475 583.988 914.282L477.507 1147.43Z" stroke="url(#paint30_linear_17_2227)" stroke-width="4"/>
<path opacity="0.463768" d="M458.454 1126.18C454.219 1134.35 455.26 1144.26 461.101 1151.37L622.356 1347.66C626.417 1352.6 632.353 1355.63 638.739 1356.02L971.142 1376.13C976.495 1376.46 981.794 1374.9 986.12 1371.73L1227.91 1194.67C1234.51 1189.84 1238.05 1181.85 1237.19 1173.71L1212.94 942.963C1212.08 934.821 1206.96 927.748 1199.5 924.391L926.184 801.474C921.293 799.274 915.787 798.853 910.618 800.283L589.661 889.068C583.495 890.774 578.318 894.97 575.374 900.65L458.454 1126.18Z" stroke="url(#paint31_linear_17_2227)" stroke-width="4"/>
<path opacity="0.478261" d="M440.545 1105.36C435.93 1113.27 436.448 1123.17 441.865 1130.56L590.76 1333.57C594.552 1338.74 600.328 1342.09 606.697 1342.82L933.279 1380.11C938.633 1380.72 944.032 1379.43 948.534 1376.47L1195.95 1213.62C1202.77 1209.13 1206.7 1201.36 1206.27 1193.21L1194.22 963.155C1193.79 955 1189.07 947.682 1181.81 943.93L918.733 807.834C913.946 805.358 908.442 804.641 903.181 805.809L582.287 877.035C576.029 878.424 570.634 882.362 567.404 887.899L440.545 1105.36Z" stroke="url(#paint32_linear_17_2227)" stroke-width="4"/>
<path opacity="0.492754" d="M423.742 1085.04C418.762 1092.68 418.762 1102.53 423.742 1110.17L560.022 1319.15C563.531 1324.53 569.13 1328.2 575.464 1329.27L895.348 1383.18C900.688 1384.08 906.175 1383.07 910.842 1380.32L1163.07 1231.78C1170.09 1227.64 1174.4 1220.11 1174.4 1211.96L1174.4 983.247C1174.4 975.101 1170.09 967.563 1163.07 963.429L910.842 814.886C906.175 812.138 900.688 811.125 895.348 812.025L575.464 865.942C569.13 867.01 563.531 870.678 560.022 876.059L423.742 1085.04Z" stroke="url(#paint33_linear_17_2227)" stroke-width="4"/>
<path opacity="0.507246" d="M408.004 1065.27C402.677 1072.61 402.164 1082.4 406.694 1090.26L530.149 1304.45C533.363 1310.03 538.768 1314 545.05 1315.41L857.401 1385.35C862.713 1386.54 868.274 1385.81 873.096 1383.28L1129.33 1249.1C1136.53 1245.33 1141.2 1238.04 1141.63 1229.93L1153.51 1003.18C1153.94 995.066 1150.05 987.33 1143.29 982.828L902.48 822.6C897.949 819.585 892.494 818.274 887.087 818.902L569.136 855.812C562.742 856.555 556.951 859.943 553.171 865.154L408.004 1065.27Z" stroke="url(#paint34_linear_17_2227)" stroke-width="4"/>
<path opacity="0.521739" d="M393.288 1046.1C387.631 1053.13 386.613 1062.83 390.683 1070.88L501.146 1289.52C504.055 1295.28 509.249 1299.55 515.46 1301.29L819.488 1386.62C824.755 1388.1 830.378 1387.65 835.345 1385.36L1094.78 1265.55C1102.14 1262.15 1107.17 1255.13 1108.01 1247.07L1131.58 1022.9C1132.42 1014.84 1128.97 1006.93 1122.48 1002.07L893.616 830.946C889.234 827.669 883.828 826.062 878.368 826.413L563.242 846.666C556.805 847.08 550.837 850.178 546.794 855.206L393.288 1046.1Z" stroke="url(#paint35_linear_17_2227)" stroke-width="4"/>
<path opacity="0.536232" d="M379.547 1027.58C373.578 1034.29 372.062 1043.87 375.665 1052.09L473.015 1274.41C475.608 1280.33 480.574 1284.89 486.696 1286.96L781.657 1387C786.866 1388.76 792.535 1388.61 797.637 1386.55L1059.48 1281.09C1066.98 1278.07 1072.34 1271.33 1073.61 1263.35L1108.61 1042.34C1109.88 1034.36 1106.86 1026.3 1100.66 1021.11L884.22 839.891C880.003 836.36 874.66 834.457 869.16 834.528L557.722 838.52C551.258 838.603 545.127 841.402 540.831 846.233L379.547 1027.58Z" stroke="url(#paint36_linear_17_2227)" stroke-width="4"/>
<path opacity="0.550725" d="M366.732 1009.77C360.47 1016.15 358.467 1025.57 361.595 1033.94L445.755 1259.16C448.023 1265.23 452.745 1270.06 458.761 1272.47L743.959 1386.5C749.094 1388.55 754.796 1388.69 760.022 1386.88L1023.5 1295.68C1031.12 1293.04 1036.8 1286.61 1038.47 1278.72L1084.65 1061.46C1086.33 1053.58 1083.76 1045.39 1077.87 1039.88L874.266 849.402C870.228 845.624 864.964 843.427 859.438 843.214L552.516 831.386C546.042 831.136 539.763 833.629 535.223 838.251L366.732 1009.77Z" stroke="url(#paint37_linear_17_2227)" stroke-width="4"/>
<path opacity="0.565217" d="M354.792 992.707C348.256 998.731 345.778 1007.98 348.425 1016.47L419.363 1243.84C421.297 1250.03 425.761 1255.13 431.653 1257.85L706.442 1385.13C711.487 1387.47 717.208 1387.9 722.545 1386.35L986.888 1309.29C994.605 1307.04 1000.59 1300.93 1002.67 1293.16L1059.73 1080.2C1061.81 1072.44 1059.69 1064.15 1054.13 1058.35L863.728 859.443C859.883 855.427 854.714 852.939 849.177 852.441L547.563 825.273C541.096 824.691 534.684 826.869 529.91 831.27L354.792 992.707Z" stroke="url(#paint38_linear_17_2227)" stroke-width="4"/>
<path opacity="0.57971" d="M343.672 976.431C336.884 982.094 333.942 991.148 336.105 999.72L393.833 1228.47C395.425 1234.78 399.616 1240.12 405.366 1243.17L669.151 1382.92C674.091 1385.54 679.816 1386.27 685.254 1384.97L949.713 1321.9C957.509 1320.04 963.775 1314.26 966.252 1306.64L1033.87 1098.52C1036.35 1090.9 1034.68 1082.53 1029.47 1076.45L852.584 869.981C848.947 865.735 843.888 862.96 838.352 862.173L542.801 820.188C536.358 819.272 529.829 821.129 524.832 825.298L343.672 976.431Z" stroke="url(#paint39_linear_17_2227)" stroke-width="4"/>
<path opacity="0.594203" d="M333.32 960.98C326.298 966.272 322.908 975.104 324.585 983.735L369.155 1213.12C370.399 1219.52 374.303 1225.09 379.895 1228.45L632.133 1379.88C636.953 1382.77 642.667 1383.8 648.194 1382.77L912.039 1333.49C919.894 1332.02 926.425 1326.59 929.289 1319.13L1007.12 1116.36C1009.99 1108.9 1008.77 1100.49 1003.92 1094.14L840.813 880.977C837.397 876.512 832.463 873.453 826.944 872.378L538.17 816.131C531.768 814.884 525.138 816.413 519.929 820.339L333.32 960.98Z" stroke="url(#paint40_linear_17_2227)" stroke-width="4"/>
<path opacity="0.608696" d="M323.676 946.39C316.442 951.301 312.619 959.889 313.809 968.55L345.319 1197.82C346.209 1204.3 349.813 1210.09 355.229 1213.75L595.431 1376.03C600.117 1379.2 605.804 1380.52 611.408 1379.76L873.931 1344.04C881.825 1342.97 888.601 1337.88 891.841 1330.6L979.513 1133.69C982.754 1126.41 981.997 1117.98 977.513 1111.39L828.397 892.395C825.214 887.721 820.421 884.383 814.933 883.019L533.609 813.101C527.265 811.525 520.55 812.722 515.142 816.394L323.676 946.39Z" stroke="url(#paint41_linear_17_2227)" stroke-width="4"/>
<path opacity="0.623188" d="M314.683 932.69C307.259 937.212 303.019 945.533 303.724 954.198L322.311 1182.63C322.842 1189.16 326.133 1195.15 331.358 1199.1L559.088 1371.4C563.624 1374.83 569.271 1376.46 574.939 1375.97L835.453 1353.53C843.366 1352.85 850.367 1348.13 853.973 1341.06L951.088 1150.46C954.693 1143.38 954.393 1134.95 950.293 1128.15L815.319 904.196C812.382 899.324 807.745 895.713 802.302 894.061L529.058 811.095C522.789 809.191 516.006 810.051 510.411 813.46L314.683 932.69Z" stroke="url(#paint42_linear_17_2227)" stroke-width="4"/>
<path opacity="0.637681" d="M306.282 919.906C298.689 924.032 294.051 932.067 294.273 940.706L300.115 1167.57C300.284 1174.14 303.251 1180.32 308.268 1184.55L523.146 1366C527.518 1369.69 533.109 1371.62 538.828 1371.41L796.672 1361.96C804.584 1361.67 811.79 1357.33 815.748 1350.47L921.888 1166.63C925.846 1159.78 926 1151.37 922.296 1144.37L801.564 916.342C798.887 911.285 794.42 907.407 789.037 905.467L524.459 810.101C518.281 807.874 511.446 808.395 505.677 811.531L306.282 919.906Z" stroke="url(#paint43_linear_17_2227)" stroke-width="4"/>
<path opacity="0.652174" d="M298.412 908.061C290.672 911.786 285.654 919.514 285.398 928.1L278.712 1152.71C278.516 1159.29 281.149 1165.64 285.943 1170.14L487.643 1359.88C491.837 1363.83 497.357 1366.05 503.114 1366.13L757.653 1369.31C765.543 1369.41 772.933 1365.46 777.23 1358.84L891.958 1182.17C896.255 1175.56 896.86 1167.2 893.561 1160.03L787.122 928.793C784.714 923.563 780.433 919.426 775.123 917.2L519.752 810.11C513.682 807.564 506.813 807.741 500.882 810.596L298.412 908.061Z" stroke="url(#paint44_linear_17_2227)" stroke-width="4"/>
<path opacity="0.666667" d="M291.011 897.174C283.147 900.494 277.768 907.897 277.04 916.403L258.082 1138.07C257.52 1144.64 259.808 1151.14 264.364 1155.91L452.617 1353.06C456.618 1357.25 462.053 1359.77 467.835 1360.13L718.461 1375.59C726.31 1376.07 733.862 1372.51 738.485 1366.15L861.343 1197.05C865.965 1190.69 867.017 1182.41 864.131 1175.09L771.981 941.511C769.854 936.121 765.773 931.733 760.552 929.223L514.881 811.105C508.935 808.246 502.047 808.079 495.969 810.645L291.011 897.174Z" stroke="url(#paint45_linear_17_2227)" stroke-width="4"/>
<path opacity="0.681159" d="M284.019 887.26C276.052 890.171 270.334 897.232 269.142 905.631L238.204 1123.69C237.275 1130.24 239.209 1136.87 243.513 1141.89L418.103 1345.57C421.898 1350 427.232 1352.82 433.027 1353.46L679.162 1380.8C686.95 1381.66 694.644 1378.5 699.575 1372.41L830.091 1211.24C835.023 1205.15 836.514 1196.97 834.049 1189.53L756.134 954.454C754.3 948.92 750.432 944.289 745.314 941.498L509.79 813.069C503.984 809.903 497.096 809.389 490.884 811.659L284.019 887.26Z" stroke="url(#paint46_linear_17_2227)" stroke-width="4"/>
<path opacity="0.695652" d="M277.374 878.33C269.325 880.831 263.29 887.535 261.643 895.8L219.051 1109.62C217.756 1116.12 219.329 1122.87 223.367 1128.12L384.136 1337.44C387.711 1342.1 392.929 1345.21 398.723 1346.14L639.819 1384.94C647.528 1386.18 655.34 1383.42 660.565 1377.62L798.251 1224.7C803.475 1218.9 805.399 1210.84 803.36 1203.31L739.577 967.585C738.044 961.92 734.404 957.056 729.402 953.987L504.424 815.979C498.773 812.513 491.901 811.653 485.571 813.621L277.374 878.33Z" stroke="url(#paint47_linear_17_2227)" stroke-width="4"/>
<path opacity="0.710145" d="M271.013 870.392C262.906 872.483 256.575 878.813 254.484 886.921L200.6 1095.89C198.94 1102.32 200.145 1109.16 203.904 1114.64L350.747 1328.72C354.088 1333.59 359.176 1336.99 364.956 1338.21L600.496 1388.02C608.107 1389.63 616.016 1387.28 621.517 1381.78L765.871 1237.42C771.372 1231.92 773.719 1224.01 772.11 1216.4L722.307 980.863C721.084 975.084 717.685 969.996 712.814 966.654L498.731 819.812C493.251 816.053 486.413 814.848 479.978 816.507L271.013 870.392Z" stroke="url(#paint48_linear_17_2227)" stroke-width="4"/>
<path opacity="0.724638" d="M264.874 863.45C256.73 865.13 250.127 871.076 247.605 878.999L182.82 1082.52C180.799 1088.87 181.63 1095.78 185.097 1101.47L317.963 1319.44C321.059 1324.52 326.001 1328.2 331.753 1329.71L561.254 1390.05C568.749 1392.02 576.733 1390.09 582.493 1384.9L733 1249.38C738.76 1244.2 741.52 1236.46 740.344 1228.8L704.32 994.249C703.417 988.371 700.272 983.07 695.545 979.461L492.659 824.539C487.365 820.497 480.577 818.948 474.053 820.294L264.874 863.45Z" stroke="url(#paint49_linear_17_2227)" stroke-width="4"/>
<path opacity="0.73913" d="M258.897 857.504C250.738 858.775 243.887 864.323 240.947 872.04L165.684 1069.56C163.306 1075.8 163.758 1082.77 166.922 1088.65L285.813 1309.63C288.651 1314.9 293.434 1318.86 299.145 1320.67L522.155 1391.06C529.517 1393.39 537.554 1391.86 543.553 1387L699.692 1260.56C705.691 1255.71 708.853 1248.16 708.111 1240.48L685.62 1007.7C685.044 1001.74 682.165 996.242 677.596 992.37L486.16 830.132C481.066 825.814 474.346 823.924 467.748 824.952L258.897 857.504Z" stroke="url(#paint50_linear_17_2227)" stroke-width="4"/>
<path opacity="0.753623" d="M253.021 852.549C244.868 853.415 237.793 858.556 234.45 866.042L149.16 1057.03C146.431 1063.14 146.5 1070.14 149.349 1076.2L254.322 1299.34C256.889 1304.8 261.497 1309.03 267.154 1311.12L483.259 1391.06C490.47 1393.73 498.538 1392.62 504.758 1388.1L665.995 1270.95C672.215 1266.43 675.766 1259.1 675.457 1251.42L666.209 1021.19C665.966 1015.16 663.367 1009.47 658.97 1005.34L479.188 836.555C474.307 831.973 467.672 829.745 461.015 830.452L253.021 852.549Z" stroke="url(#paint51_linear_17_2227)" stroke-width="4"/>
<path opacity="0.768116" d="M247.186 848.579C239.06 849.044 231.786 853.768 228.056 861.002L133.217 1044.96C130.142 1050.92 129.825 1057.93 132.351 1064.15L223.51 1288.6C225.796 1294.23 230.216 1298.73 235.805 1301.11L444.623 1390.07C451.667 1393.08 459.743 1392.37 466.164 1388.2L631.961 1280.53C638.383 1276.36 642.308 1269.27 642.432 1261.62L646.092 1034.67C646.19 1028.59 643.881 1022.73 639.669 1018.35L471.697 843.776C467.044 838.94 460.51 836.377 453.81 836.76L247.186 848.579Z" stroke="url(#paint52_linear_17_2227)" stroke-width="4"/>
<path opacity="0.782609" d="M241.332 845.584C233.255 845.652 225.806 849.953 221.708 856.914L117.821 1033.37C114.408 1039.16 113.704 1046.17 115.896 1052.53L193.399 1277.47C195.392 1283.26 199.61 1288.01 205.118 1290.68L406.302 1388.13C413.164 1391.45 421.226 1391.16 427.829 1387.35L597.642 1289.31C604.245 1285.49 608.529 1278.66 609.082 1271.05L625.278 1048.1C625.721 1041.99 623.714 1035.97 619.699 1031.35L463.645 851.755C459.232 846.676 452.816 843.784 446.088 843.842L241.332 845.584Z" stroke="url(#paint53_linear_17_2227)" stroke-width="4"/>
<path opacity="0.797101" d="M235.404 843.548C227.395 843.227 219.797 847.098 215.349 853.766L102.938 1022.28C99.1951 1027.9 98.104 1034.87 99.9537 1041.35L164.005 1265.98C165.696 1271.91 169.697 1276.91 175.11 1279.86L368.351 1385.26C375.014 1388.89 383.042 1389 389.805 1385.56L563.088 1297.26C569.851 1293.82 574.479 1287.26 575.455 1279.73L603.775 1061.45C604.568 1055.33 602.873 1049.15 599.069 1044.3L454.994 860.452C450.833 855.143 444.551 851.928 437.811 851.658L235.404 843.548Z" stroke="url(#paint54_linear_17_2227)" stroke-width="4"/>
<path opacity="0.811594" d="M229.343 842.454C221.423 841.751 213.701 845.189 208.924 851.545L88.5328 1011.73C84.4696 1017.13 82.9916 1024.06 84.4918 1030.65L135.342 1254.17C136.72 1260.23 140.492 1265.47 145.798 1268.71L330.819 1381.48C337.271 1385.42 345.243 1385.93 352.145 1382.86L528.351 1304.41C535.253 1301.33 540.206 1295.06 541.6 1287.64L581.593 1074.68C582.74 1068.57 581.367 1062.26 577.787 1057.18L445.705 869.827C441.808 864.3 435.676 860.768 428.94 860.17L229.343 842.454Z" stroke="url(#paint55_linear_17_2227)" stroke-width="4"/>
<path opacity="0.826087" d="M223.098 842.282C215.285 841.205 207.465 844.207 202.379 850.235L74.5702 1001.72C70.1979 1006.9 68.335 1013.75 69.479 1020.43L107.424 1242.09C108.481 1248.26 112.009 1253.74 117.195 1257.25L293.759 1376.85C299.985 1381.07 307.88 1381.98 314.9 1379.28L493.48 1310.73C500.501 1308.04 505.76 1302.08 507.565 1294.78L558.748 1087.75C560.252 1081.67 559.21 1075.24 555.865 1069.95L435.745 879.835C432.124 874.103 426.157 870.261 419.441 869.335L223.098 842.282Z" stroke="url(#paint56_linear_17_2227)" stroke-width="4"/>
<path opacity="0.84058" d="M216.613 843.007C208.926 841.567 201.034 844.131 195.662 849.815L61.0127 992.27C56.3431 997.21 54.0982 1003.96 54.8805 1010.72L80.259 1229.78C80.9857 1236.05 84.2588 1241.75 89.311 1245.54L257.214 1371.4C263.202 1375.89 270.999 1377.18 278.117 1374.87L458.525 1316.25C465.642 1313.94 471.189 1308.31 473.395 1301.16L535.253 1100.64C537.115 1094.61 536.414 1088.08 533.315 1082.58L425.083 890.43C421.746 884.507 415.961 880.363 409.279 879.111L216.613 843.007Z" stroke="url(#paint57_linear_17_2227)" stroke-width="4"/>
<path opacity="0.855072" d="M209.839 844.604C202.296 842.81 194.357 844.938 188.722 850.263L47.8241 983.397C42.8701 988.078 40.2474 994.715 40.6633 1001.52L53.8551 1217.29C54.2435 1223.65 57.2486 1229.56 62.1548 1233.61L221.229 1365.16C226.967 1369.91 234.647 1371.58 241.839 1369.65L423.533 1320.97C430.725 1319.04 436.54 1313.75 439.136 1306.77L511.125 1113.31C513.346 1107.35 512.993 1100.73 510.153 1095.03L413.689 901.566C410.648 895.466 405.058 891.03 398.427 889.453L209.839 844.604Z" stroke="url(#paint58_linear_17_2227)" stroke-width="4"/>
<path opacity="0.869565" d="M202.728 847.042C195.346 844.907 187.386 846.599 181.511 851.552L34.9671 975.11C29.7427 979.515 26.7476 986.015 26.7935 992.849L28.2164 1204.67C28.2595 1211.09 30.9844 1217.2 35.7321 1221.52L185.845 1358.18C191.322 1363.17 198.865 1365.21 206.11 1363.67L388.554 1324.89C395.799 1323.35 401.859 1318.42 404.835 1311.64L486.382 1125.73C488.962 1119.85 488.966 1113.16 486.394 1107.28L401.54 913.194C398.802 906.932 393.422 902.213 386.858 900.313L202.728 847.042Z" stroke="url(#paint59_linear_17_2227)" stroke-width="4"/>
<path opacity="0.884058" d="M195.234 850.29C188.029 847.825 180.072 849.085 173.982 853.656L22.4045 967.419C16.9245 971.532 13.5635 977.874 13.2369 984.718L3.34507 1191.94C3.03626 1198.41 5.46915 1204.71 10.046 1209.3L151.099 1350.51C156.306 1355.72 163.694 1358.13 170.97 1356.98L353.632 1328.04C360.909 1326.89 367.193 1322.32 370.533 1315.76L461.044 1137.86C463.981 1132.09 464.349 1125.35 462.056 1119.29L388.612 925.265C386.186 918.857 381.03 913.864 374.547 911.646L195.234 850.29Z" stroke="url(#paint60_linear_17_2227)" stroke-width="4"/>
<path opacity="0.898551" d="M187.312 854.312C180.3 851.531 172.37 852.364 166.09 856.543L10.0982 960.331C4.37856 964.137 0.659529 970.3 -0.0413046 977.134L-20.7601 1179.17C-21.4267 1185.68 -19.297 1192.15 -14.9031 1196.99L117.027 1342.19C121.953 1347.62 129.168 1350.37 136.454 1349.6L318.813 1330.43C326.099 1329.67 332.584 1325.48 336.275 1319.15L435.132 1149.69C438.425 1144.04 439.161 1137.27 437.158 1131.05L374.885 937.728C372.779 931.189 367.86 925.934 361.474 923.4L187.312 854.312Z" stroke="url(#paint61_linear_17_2227)" stroke-width="4"/>
<path opacity="0.913043" d="M178.922 859.072C172.118 855.988 164.24 856.401 157.795 860.179L-1.98823 953.851C-7.9306 957.334 -11.9988 963.298 -13.0742 970.102L-44.1013 1166.4C-45.1307 1172.91 -43.3153 1179.55 -39.116 1184.64L83.6603 1333.27C88.2988 1338.89 95.3231 1341.98 102.597 1341.6L284.139 1332.08C291.413 1331.7 298.076 1327.9 302.102 1321.83L408.669 1161.17C412.314 1155.68 413.425 1148.88 411.721 1142.51L360.345 950.532C358.564 943.877 353.895 938.372 347.621 935.528L178.922 859.072Z" stroke="url(#paint62_linear_17_2227)" stroke-width="4"/>
<path opacity="0.927536" d="M170.024 864.53C163.442 861.159 155.639 861.159 149.057 864.53L-13.8925 947.98C-20.0399 951.128 -24.4471 956.872 -25.8965 963.625L-66.6847 1153.66C-68.0814 1160.17 -66.5906 1166.96 -62.5976 1172.29L51.0271 1323.81C55.3707 1329.6 62.1881 1333.01 69.4279 1333.01L249.653 1333.01C256.893 1333.01 263.71 1329.6 268.054 1323.81L381.679 1172.29C385.672 1166.96 387.162 1160.17 385.766 1153.66L344.978 963.625C343.528 956.872 339.121 951.128 332.974 947.98L170.024 864.53Z" stroke="url(#paint63_linear_17_2227)" stroke-width="4"/>
<path opacity="0.942029" d="M160.585 870.646C154.236 867.003 146.533 866.599 139.838 869.559L-25.6511 942.718C-31.9848 945.518 -36.7198 951.023 -38.5414 957.705L-88.518 1141.01C-90.2855 1147.49 -89.1296 1154.42 -85.354 1159.98L19.153 1313.84C23.1956 1319.79 29.7904 1323.51 36.9754 1323.89L215.394 1333.24C222.579 1333.61 229.526 1330.61 234.169 1325.11L354.186 1183.02C358.522 1177.88 360.396 1171.11 359.316 1164.48L328.774 976.955C327.66 970.12 323.527 964.15 317.52 960.703L160.585 870.646Z" stroke="url(#paint64_linear_17_2227)" stroke-width="4"/>
<path opacity="0.956522" d="M150.571 877.376C144.468 873.477 136.885 872.68 130.105 875.225L-37.3003 938.065C-43.801 940.505 -48.8514 945.752 -51.0423 952.341L-109.612 1128.48C-111.753 1134.92 -110.941 1141.97 -107.394 1147.76L-11.9404 1303.43C-8.20381 1309.52 -1.84625 1313.53 5.26291 1314.28L181.4 1332.79C188.509 1333.54 195.561 1330.94 200.483 1325.76L326.217 1193.33C330.89 1188.41 333.15 1181.68 332.395 1174.93L311.726 990.469C310.953 983.569 307.104 977.387 301.253 973.648L150.571 877.376Z" stroke="url(#paint65_linear_17_2227)" stroke-width="4"/>
<path opacity="0.971014" d="M139.952 884.676C134.106 880.538 126.665 879.359 119.826 881.489L-48.8759 934.016C-55.5234 936.085 -60.8756 941.055 -63.432 947.531L-129.979 1116.11C-132.495 1122.49 -132.037 1129.65 -128.729 1135.66L-42.235 1292.63C-38.8083 1298.85 -32.7016 1303.13 -25.6887 1304.24L147.706 1331.71C154.719 1332.82 161.851 1330.63 167.032 1325.77L297.8 1203.21C302.801 1198.53 305.451 1191.85 305.027 1185.01L293.832 1004.12C293.402 997.167 289.848 990.787 284.165 986.764L139.952 884.676Z" stroke="url(#paint66_linear_17_2227)" stroke-width="4"/>
<path opacity="0.985507" d="M128.702 892.501C123.122 888.14 115.844 886.593 108.972 888.307L-60.4127 930.564C-67.186 932.254 -72.8253 936.928 -75.7419 943.27L-149.634 1103.95C-152.527 1110.24 -152.431 1117.51 -149.373 1123.72L-71.7154 1281.49C-68.6016 1287.81 -62.7584 1292.36 -55.8618 1293.83L114.346 1330.01C121.243 1331.47 128.431 1329.69 133.848 1325.18L268.961 1212.64C274.283 1208.21 277.324 1201.61 277.24 1194.69L275.091 1017.84C275.007 1010.86 271.756 1004.3 266.256 999.999L128.702 892.501Z" stroke="url(#paint67_linear_17_2227)" stroke-width="4"/>
<path d="M116.797 900.803C111.492 896.237 104.396 894.336 97.5185 895.637L-71.9454 927.702C-78.8228 929.003 -84.7334 933.365 -88.0041 939.553L-168.594 1092.04C-171.865 1098.23 -172.139 1105.57 -169.34 1111.98L-100.371 1270.06C-97.5718 1276.48 -92.0037 1281.27 -85.2427 1283.08L81.3511 1327.72C88.112 1329.53 95.33 1328.17 100.962 1324.01L239.731 1221.59C245.363 1217.44 248.796 1210.94 249.057 1203.95L255.506 1031.6C255.768 1024.6 252.83 1017.87 247.525 1013.3L116.797 900.803Z" stroke="url(#paint68_linear_17_2227)" stroke-width="4"/>
<defs>
<linearGradient id="paint0_linear_17_2227" x1="1623.91" y1="1645.24" x2="1440.03" y2="484.222" gradientUnits="userSpaceOnUse">
<stop stop-color="#FF1CF7"/>
<stop offset="1" stop-color="#00F0FF"/>
</linearGradient>
<linearGradient id="paint1_linear_17_2227" x1="1572.15" y1="1644.5" x2="1450.36" y2="485.766" gradientUnits="userSpaceOnUse">
<stop stop-color="#FF1CF7"/>
<stop offset="1" stop-color="#00F0FF"/>
</linearGradient>
<linearGradient id="paint2_linear_17_2227" x1="1520.74" y1="1642.17" x2="1460.31" y2="489.015" gradientUnits="userSpaceOnUse">
<stop stop-color="#FF1CF7"/>
<stop offset="1" stop-color="#00F0FF"/>
</linearGradient>
<linearGradient id="paint3_linear_17_2227" x1="1469.78" y1="1638.29" x2="1469.78" y2="493.93" gradientUnits="userSpaceOnUse">
<stop stop-color="#FF1CF7"/>
<stop offset="1" stop-color="#00F0FF"/>
</linearGradient>
<linearGradient id="paint4_linear_17_2227" x1="1419.34" y1="1632.9" x2="1478.69" y2="500.471" gradientUnits="userSpaceOnUse">
<stop stop-color="#FF1CF7"/>
<stop offset="1" stop-color="#00F0FF"/>
</linearGradient>
<linearGradient id="paint5_linear_17_2227" x1="1369.51" y1="1626.05" x2="1486.95" y2="508.59" gradientUnits="userSpaceOnUse">
<stop stop-color="#FF1CF7"/>
<stop offset="1" stop-color="#00F0FF"/>
</linearGradient>
<linearGradient id="paint6_linear_17_2227" x1="1320.34" y1="1617.77" x2="1494.49" y2="518.237" gradientUnits="userSpaceOnUse">
<stop stop-color="#FF1CF7"/>
<stop offset="1" stop-color="#00F0FF"/>
</linearGradient>
<linearGradient id="paint7_linear_17_2227" x1="1271.93" y1="1608.12" x2="1501.23" y2="529.358" gradientUnits="userSpaceOnUse">
<stop stop-color="#FF1CF7"/>
<stop offset="1" stop-color="#00F0FF"/>
</linearGradient>
<linearGradient id="paint8_linear_17_2227" x1="1224.33" y1="1597.15" x2="1507.08" y2="541.893" gradientUnits="userSpaceOnUse">
<stop stop-color="#FF1CF7"/>
<stop offset="1" stop-color="#00F0FF"/>
</linearGradient>
<linearGradient id="paint9_linear_17_2227" x1="1177.61" y1="1584.93" x2="1512" y2="555.781" gradientUnits="userSpaceOnUse">
<stop stop-color="#FF1CF7"/>
<stop offset="1" stop-color="#00F0FF"/>
</linearGradient>
<linearGradient id="paint10_linear_17_2227" x1="1131.82" y1="1571.51" x2="1515.9" y2="570.957" gradientUnits="userSpaceOnUse">
<stop stop-color="#FF1CF7"/>
<stop offset="1" stop-color="#00F0FF"/>
</linearGradient>
<linearGradient id="paint11_linear_17_2227" x1="1087.04" y1="1556.95" x2="1518.73" y2="587.351" gradientUnits="userSpaceOnUse">
<stop stop-color="#FF1CF7"/>
<stop offset="1" stop-color="#00F0FF"/>
</linearGradient>
<linearGradient id="paint12_linear_17_2227" x1="1043.3" y1="1541.33" x2="1520.44" y2="604.894" gradientUnits="userSpaceOnUse">
<stop stop-color="#FF1CF7"/>
<stop offset="1" stop-color="#00F0FF"/>
</linearGradient>
<linearGradient id="paint13_linear_17_2227" x1="1000.66" y1="1524.71" x2="1520.96" y2="623.511" gradientUnits="userSpaceOnUse">
<stop stop-color="#FF1CF7"/>
<stop offset="1" stop-color="#00F0FF"/>
</linearGradient>
<linearGradient id="paint14_linear_17_2227" x1="959.158" y1="1507.16" x2="1520.27" y2="643.127" gradientUnits="userSpaceOnUse">
<stop stop-color="#FF1CF7"/>
<stop offset="1" stop-color="#00F0FF"/>
</linearGradient>
<linearGradient id="paint15_linear_17_2227" x1="918.837" y1="1488.75" x2="1518.3" y2="663.663" gradientUnits="userSpaceOnUse">
<stop stop-color="#FF1CF7"/>
<stop offset="1" stop-color="#00F0FF"/>
</linearGradient>
<linearGradient id="paint16_linear_17_2227" x1="879.732" y1="1469.56" x2="1515.02" y2="685.04" gradientUnits="userSpaceOnUse">
<stop stop-color="#FF1CF7"/>
<stop offset="1" stop-color="#00F0FF"/>
</linearGradient>
<linearGradient id="paint17_linear_17_2227" x1="841.873" y1="1449.66" x2="1510.41" y2="707.177" gradientUnits="userSpaceOnUse">
<stop stop-color="#FF1CF7"/>
<stop offset="1" stop-color="#00F0FF"/>
</linearGradient>
<linearGradient id="paint18_linear_17_2227" x1="805.285" y1="1429.13" x2="1504.43" y2="729.992" gradientUnits="userSpaceOnUse">
<stop stop-color="#FF1CF7"/>
<stop offset="1" stop-color="#00F0FF"/>
</linearGradient>
<linearGradient id="paint19_linear_17_2227" x1="769.991" y1="1408.05" x2="1497.06" y2="753.401" gradientUnits="userSpaceOnUse">
<stop stop-color="#FF1CF7"/>
<stop offset="1" stop-color="#00F0FF"/>
</linearGradient>
<linearGradient id="paint20_linear_17_2227" x1="736.009" y1="1386.5" x2="1488.28" y2="777.323" gradientUnits="userSpaceOnUse">
<stop stop-color="#FF1CF7"/>
<stop offset="1" stop-color="#00F0FF"/>
</linearGradient>
<linearGradient id="paint21_linear_17_2227" x1="703.348" y1="1364.54" x2="1478.07" y2="801.672" gradientUnits="userSpaceOnUse">
<stop stop-color="#FF1CF7"/>
<stop offset="1" stop-color="#00F0FF"/>
</linearGradient>
<linearGradient id="paint22_linear_17_2227" x1="672.019" y1="1342.27" x2="1466.44" y2="826.365" gradientUnits="userSpaceOnUse">
<stop stop-color="#FF1CF7"/>
<stop offset="1" stop-color="#00F0FF"/>
</linearGradient>
<linearGradient id="paint23_linear_17_2227" x1="642.024" y1="1319.75" x2="1453.37" y2="851.319" gradientUnits="userSpaceOnUse">
<stop stop-color="#FF1CF7"/>
<stop offset="1" stop-color="#00F0FF"/>
</linearGradient>
<linearGradient id="paint24_linear_17_2227" x1="613.363" y1="1297.07" x2="1438.87" y2="876.451" gradientUnits="userSpaceOnUse">
<stop stop-color="#FF1CF7"/>
<stop offset="1" stop-color="#00F0FF"/>
</linearGradient>
<linearGradient id="paint25_linear_17_2227" x1="586.03" y1="1274.29" x2="1422.94" y2="901.679" gradientUnits="userSpaceOnUse">
<stop stop-color="#FF1CF7"/>
<stop offset="1" stop-color="#00F0FF"/>
</linearGradient>
<linearGradient id="paint26_linear_17_2227" x1="560.015" y1="1251.51" x2="1405.59" y2="926.922" gradientUnits="userSpaceOnUse">
<stop stop-color="#FF1CF7"/>
<stop offset="1" stop-color="#00F0FF"/>
</linearGradient>
<linearGradient id="paint27_linear_17_2227" x1="535.304" y1="1228.78" x2="1386.84" y2="952.1" gradientUnits="userSpaceOnUse">
<stop stop-color="#FF1CF7"/>
<stop offset="1" stop-color="#00F0FF"/>
</linearGradient>
<linearGradient id="paint28_linear_17_2227" x1="511.881" y1="1206.19" x2="1366.71" y2="977.137" gradientUnits="userSpaceOnUse">
<stop stop-color="#FF1CF7"/>
<stop offset="1" stop-color="#00F0FF"/>
</linearGradient>
<linearGradient id="paint29_linear_17_2227" x1="489.722" y1="1183.8" x2="1345.22" y2="1001.95" gradientUnits="userSpaceOnUse">
<stop stop-color="#FF1CF7"/>
<stop offset="1" stop-color="#00F0FF"/>
</linearGradient>
<linearGradient id="paint30_linear_17_2227" x1="468.801" y1="1161.68" x2="1322.4" y2="1026.48" gradientUnits="userSpaceOnUse">
<stop stop-color="#FF1CF7"/>
<stop offset="1" stop-color="#00F0FF"/>
</linearGradient>
<linearGradient id="paint31_linear_17_2227" x1="449.09" y1="1139.9" x2="1298.27" y2="1050.64" gradientUnits="userSpaceOnUse">
<stop stop-color="#FF1CF7"/>
<stop offset="1" stop-color="#00F0FF"/>
</linearGradient>
<linearGradient id="paint32_linear_17_2227" x1="430.556" y1="1118.52" x2="1272.89" y2="1074.37" gradientUnits="userSpaceOnUse">
<stop stop-color="#FF1CF7"/>
<stop offset="1" stop-color="#00F0FF"/>
</linearGradient>
<linearGradient id="paint33_linear_17_2227" x1="413.161" y1="1097.6" x2="1246.27" y2="1097.6" gradientUnits="userSpaceOnUse">
<stop stop-color="#FF1CF7"/>
<stop offset="1" stop-color="#00F0FF"/>
</linearGradient>
<linearGradient id="paint34_linear_17_2227" x1="396.867" y1="1077.21" x2="1218.48" y2="1120.27" gradientUnits="userSpaceOnUse">
<stop stop-color="#FF1CF7"/>
<stop offset="1" stop-color="#00F0FF"/>
</linearGradient>
<linearGradient id="paint35_linear_17_2227" x1="381.631" y1="1057.4" x2="1189.54" y2="1142.32" gradientUnits="userSpaceOnUse">
<stop stop-color="#FF1CF7"/>
<stop offset="1" stop-color="#00F0FF"/>
</linearGradient>
<linearGradient id="paint36_linear_17_2227" x1="367.407" y1="1038.22" x2="1159.52" y2="1163.68" gradientUnits="userSpaceOnUse">
<stop stop-color="#FF1CF7"/>
<stop offset="1" stop-color="#00F0FF"/>
</linearGradient>
<linearGradient id="paint37_linear_17_2227" x1="354.148" y1="1019.73" x2="1128.46" y2="1184.31" gradientUnits="userSpaceOnUse">
<stop stop-color="#FF1CF7"/>
<stop offset="1" stop-color="#00F0FF"/>
</linearGradient>
<linearGradient id="paint38_linear_17_2227" x1="341.803" y1="1001.96" x2="1096.42" y2="1204.16" gradientUnits="userSpaceOnUse">
<stop stop-color="#FF1CF7"/>
<stop offset="1" stop-color="#00F0FF"/>
</linearGradient>
<linearGradient id="paint39_linear_17_2227" x1="330.32" y1="984.966" x2="1063.45" y2="1223.18" gradientUnits="userSpaceOnUse">
<stop stop-color="#FF1CF7"/>
<stop offset="1" stop-color="#00F0FF"/>
</linearGradient>
<linearGradient id="paint40_linear_17_2227" x1="319.642" y1="968.784" x2="1029.62" y2="1241.32" gradientUnits="userSpaceOnUse">
<stop stop-color="#FF1CF7"/>
<stop offset="1" stop-color="#00F0FF"/>
</linearGradient>
<linearGradient id="paint41_linear_17_2227" x1="309.716" y1="953.451" x2="994.977" y2="1258.55" gradientUnits="userSpaceOnUse">
<stop stop-color="#FF1CF7"/>
<stop offset="1" stop-color="#00F0FF"/>
</linearGradient>
<linearGradient id="paint42_linear_17_2227" x1="300.481" y1="938.999" x2="959.592" y2="1274.83" gradientUnits="userSpaceOnUse">
<stop stop-color="#FF1CF7"/>
<stop offset="1" stop-color="#00F0FF"/>
</linearGradient>
<linearGradient id="paint43_linear_17_2227" x1="291.88" y1="925.457" x2="923.526" y2="1290.14" gradientUnits="userSpaceOnUse">
<stop stop-color="#FF1CF7"/>
<stop offset="1" stop-color="#00F0FF"/>
</linearGradient>
<linearGradient id="paint44_linear_17_2227" x1="283.851" y1="912.85" x2="886.845" y2="1304.44" gradientUnits="userSpaceOnUse">
<stop stop-color="#FF1CF7"/>
<stop offset="1" stop-color="#00F0FF"/>
</linearGradient>
<linearGradient id="paint45_linear_17_2227" x1="276.333" y1="901.199" x2="849.613" y2="1317.71" gradientUnits="userSpaceOnUse">
<stop stop-color="#FF1CF7"/>
<stop offset="1" stop-color="#00F0FF"/>
</linearGradient>
<linearGradient id="paint46_linear_17_2227" x1="269.266" y1="890.522" x2="811.898" y2="1329.94" gradientUnits="userSpaceOnUse">
<stop stop-color="#FF1CF7"/>
<stop offset="1" stop-color="#00F0FF"/>
</linearGradient>
<linearGradient id="paint47_linear_17_2227" x1="262.586" y1="880.832" x2="773.767" y2="1341.1" gradientUnits="userSpaceOnUse">
<stop stop-color="#FF1CF7"/>
<stop offset="1" stop-color="#00F0FF"/>
</linearGradient>
<linearGradient id="paint48_linear_17_2227" x1="256.231" y1="872.139" x2="735.287" y2="1351.19" gradientUnits="userSpaceOnUse">
<stop stop-color="#FF1CF7"/>
<stop offset="1" stop-color="#00F0FF"/>
</linearGradient>
<linearGradient id="paint49_linear_17_2227" x1="250.138" y1="864.448" x2="696.523" y2="1360.21" gradientUnits="userSpaceOnUse">
<stop stop-color="#FF1CF7"/>
<stop offset="1" stop-color="#00F0FF"/>
</linearGradient>
<linearGradient id="paint50_linear_17_2227" x1="244.246" y1="857.763" x2="657.545" y2="1368.14" gradientUnits="userSpaceOnUse">
<stop stop-color="#FF1CF7"/>
<stop offset="1" stop-color="#00F0FF"/>
</linearGradient>
<linearGradient id="paint51_linear_17_2227" x1="238.494" y1="852.081" x2="618.416" y2="1375" gradientUnits="userSpaceOnUse">
<stop stop-color="#FF1CF7"/>
<stop offset="1" stop-color="#00F0FF"/>
</linearGradient>
<linearGradient id="paint52_linear_17_2227" x1="232.82" y1="847.398" x2="579.203" y2="1380.78" gradientUnits="userSpaceOnUse">
<stop stop-color="#FF1CF7"/>
<stop offset="1" stop-color="#00F0FF"/>
</linearGradient>
<linearGradient id="paint53_linear_17_2227" x1="227.164" y1="843.704" x2="539.971" y2="1385.5" gradientUnits="userSpaceOnUse">
<stop stop-color="#FF1CF7"/>
<stop offset="1" stop-color="#00F0FF"/>
</linearGradient>
<linearGradient id="paint54_linear_17_2227" x1="221.469" y1="840.988" x2="500.781" y2="1389.17" gradientUnits="userSpaceOnUse">
<stop stop-color="#FF1CF7"/>
<stop offset="1" stop-color="#00F0FF"/>
</linearGradient>
<linearGradient id="paint55_linear_17_2227" x1="215.675" y1="839.233" x2="461.695" y2="1391.8" gradientUnits="userSpaceOnUse">
<stop stop-color="#FF1CF7"/>
<stop offset="1" stop-color="#00F0FF"/>
</linearGradient>
<linearGradient id="paint56_linear_17_2227" x1="209.73" y1="838.421" x2="422.775" y2="1393.42" gradientUnits="userSpaceOnUse">
<stop stop-color="#FF1CF7"/>
<stop offset="1" stop-color="#00F0FF"/>
</linearGradient>
<linearGradient id="paint57_linear_17_2227" x1="203.577" y1="838.53" x2="384.077" y2="1394.05" gradientUnits="userSpaceOnUse">
<stop stop-color="#FF1CF7"/>
<stop offset="1" stop-color="#00F0FF"/>
</linearGradient>
<linearGradient id="paint58_linear_17_2227" x1="197.164" y1="839.534" x2="345.658" y2="1393.72" gradientUnits="userSpaceOnUse">
<stop stop-color="#FF1CF7"/>
<stop offset="1" stop-color="#00F0FF"/>
</linearGradient>
<linearGradient id="paint59_linear_17_2227" x1="190.442" y1="841.406" x2="307.572" y2="1392.46" gradientUnits="userSpaceOnUse">
<stop stop-color="#FF1CF7"/>
<stop offset="1" stop-color="#00F0FF"/>
</linearGradient>
<linearGradient id="paint60_linear_17_2227" x1="183.363" y1="844.114" x2="269.869" y2="1390.29" gradientUnits="userSpaceOnUse">
<stop stop-color="#FF1CF7"/>
<stop offset="1" stop-color="#00F0FF"/>
</linearGradient>
<linearGradient id="paint61_linear_17_2227" x1="175.881" y1="847.626" x2="232.599" y2="1387.27" gradientUnits="userSpaceOnUse">
<stop stop-color="#FF1CF7"/>
<stop offset="1" stop-color="#00F0FF"/>
</linearGradient>
<linearGradient id="paint62_linear_17_2227" x1="167.954" y1="851.905" x2="195.809" y2="1383.41" gradientUnits="userSpaceOnUse">
<stop stop-color="#FF1CF7"/>
<stop offset="1" stop-color="#00F0FF"/>
</linearGradient>
<linearGradient id="paint63_linear_17_2227" x1="159.541" y1="856.914" x2="159.541" y2="1378.78" gradientUnits="userSpaceOnUse">
<stop stop-color="#FF1CF7"/>
<stop offset="1" stop-color="#00F0FF"/>
</linearGradient>
<linearGradient id="paint64_linear_17_2227" x1="150.604" y1="862.612" x2="123.835" y2="1373.4" gradientUnits="userSpaceOnUse">
<stop stop-color="#FF1CF7"/>
<stop offset="1" stop-color="#00F0FF"/>
</linearGradient>
<linearGradient id="paint65_linear_17_2227" x1="141.11" y1="868.958" x2="88.7291" y2="1367.33" gradientUnits="userSpaceOnUse">
<stop stop-color="#FF1CF7"/>
<stop offset="1" stop-color="#00F0FF"/>
</linearGradient>
<linearGradient id="paint66_linear_17_2227" x1="131.025" y1="875.907" x2="54.2571" y2="1360.6" gradientUnits="userSpaceOnUse">
<stop stop-color="#FF1CF7"/>
<stop offset="1" stop-color="#00F0FF"/>
</linearGradient>
<linearGradient id="paint67_linear_17_2227" x1="120.323" y1="883.415" x2="20.4499" y2="1353.28" gradientUnits="userSpaceOnUse">
<stop stop-color="#FF1CF7"/>
<stop offset="1" stop-color="#00F0FF"/>
</linearGradient>
<linearGradient id="paint68_linear_17_2227" x1="108.976" y1="891.434" x2="-12.6656" y2="1345.41" gradientUnits="userSpaceOnUse">
<stop stop-color="#FF1CF7"/>
<stop offset="1" stop-color="#00F0FF"/>
</linearGradient>
</defs>
</svg>
