<svg width="1081" height="421" viewBox="0 0 1081 421" fill="none" xmlns="http://www.w3.org/2000/svg">
<path d="M135.029 0L193.079 29.3954L251.942 57.5888L251.129 115.178L251.942 172.766L193.079 200.96L135.029 230.355L76.9788 200.96L18.1154 172.766L18.9288 115.178L18.1154 57.5888L76.9788 29.3954L135.029 0Z" fill="url(#paint0_linear_62_47)"/>
<path d="M135.029 0L193.079 29.3954L251.942 57.5888L251.129 115.178L251.942 172.766L193.079 200.96L135.029 230.355L76.9788 200.96L18.1154 172.766L18.9288 115.178L18.1154 57.5888L76.9788 29.3954L135.029 0Z" fill="url(#paint1_linear_62_47)"/>
<path d="M270.029 190L328.079 219.395L386.942 247.589L386.129 305.178L386.942 362.766L328.079 390.96L270.029 420.355L211.979 390.96L153.115 362.766L153.929 305.178L153.115 247.589L211.979 219.395L270.029 190Z" fill="url(#paint2_linear_62_47)"/>
<path d="M540.029 190L598.079 219.395L656.942 247.589L656.129 305.178L656.942 362.766L598.079 390.96L540.029 420.355L481.979 390.96L423.115 362.766L423.929 305.178L423.115 247.589L481.979 219.395L540.029 190Z" fill="url(#paint3_linear_62_47)"/>
<path d="M810.029 190L868.079 219.395L926.942 247.589L926.129 305.178L926.942 362.766L868.079 390.96L810.029 420.355L751.979 390.96L693.115 362.766L693.929 305.178L693.115 247.589L751.979 219.395L810.029 190Z" fill="url(#paint4_linear_62_47)"/>
<path d="M405.029 0L463.079 29.3954L521.942 57.5888L521.129 115.178L521.942 172.766L463.079 200.96L405.029 230.355L346.979 200.96L288.115 172.766L288.929 115.178L288.115 57.5888L346.979 29.3954L405.029 0Z" fill="url(#paint5_linear_62_47)"/>
<path d="M675.029 0L733.079 29.3954L791.942 57.5888L791.129 115.178L791.942 172.766L733.079 200.96L675.029 230.355L616.979 200.96L558.115 172.766L558.929 115.178L558.115 57.5888L616.979 29.3954L675.029 0Z" fill="url(#paint6_linear_62_47)"/>
<path d="M945.029 0L1003.08 29.3954L1061.94 57.5888L1061.13 115.178L1061.94 172.766L1003.08 200.96L945.029 230.355L886.979 200.96L828.115 172.766L828.929 115.178L828.115 57.5888L886.979 29.3954L945.029 0Z" fill="url(#paint7_linear_62_47)"/>
<path d="M85.1067 106.819C85.1067 108.23 84.7404 109.56 84.0078 110.808C83.3023 112.029 82.244 113.046 80.833 113.86C79.4492 114.647 77.8075 115.109 75.9081 115.244V118.541H73.3032V115.204C70.5897 114.959 68.4054 114.145 66.7502 112.761C65.095 111.35 64.2403 109.451 64.186 107.063H70.2913C70.4541 109.017 71.458 110.197 73.3032 110.604V102.83C71.3495 102.342 69.7757 101.853 68.5818 101.365C67.3879 100.876 66.3568 100.09 65.4885 99.0042C64.6202 97.9188 64.186 96.44 64.186 94.5677C64.186 92.207 65.0272 90.2805 66.7095 88.7881C68.419 87.2957 70.6169 86.4409 73.3032 86.2239V82.927H75.9081V86.2239C78.513 86.4409 80.5888 87.2278 82.1355 88.5846C83.7093 89.9413 84.5911 91.8136 84.7811 94.2014H78.6351C78.5537 93.4145 78.2688 92.7361 77.7804 92.1663C77.3191 91.5694 76.695 91.1488 75.9081 90.9046V98.5972C77.9432 99.1127 79.5441 99.6147 80.7109 100.103C81.9048 100.564 82.9359 101.338 83.8042 102.423C84.6726 103.481 85.1067 104.947 85.1067 106.819ZM70.1285 94.2828C70.1285 95.1782 70.3998 95.9109 70.9425 96.4807C71.4852 97.0234 72.2721 97.4711 73.3032 97.8239V90.7825C72.3264 90.9181 71.553 91.2844 70.9832 91.8814C70.4134 92.4784 70.1285 93.2788 70.1285 94.2828ZM75.9081 110.686C76.9392 110.496 77.7397 110.075 78.3095 109.424C78.9065 108.773 79.2049 107.986 79.2049 107.063C79.2049 106.168 78.92 105.449 78.3502 104.906C77.7804 104.363 76.9664 103.916 75.9081 103.563V110.686ZM112.063 95.1375C111.412 93.9436 110.517 93.0346 109.377 92.4105C108.237 91.7864 106.908 91.4744 105.388 91.4744C103.706 91.4744 102.214 91.8543 100.911 92.614C99.6086 93.3738 98.5911 94.4592 97.8584 95.8702C97.1258 97.2812 96.7595 98.9092 96.7595 100.754C96.7595 102.654 97.1258 104.309 97.8584 105.72C98.6182 107.131 99.6629 108.216 100.992 108.976C102.322 109.736 103.869 110.116 105.632 110.116C107.803 110.116 109.581 109.546 110.964 108.406C112.348 107.24 113.257 105.625 113.691 103.563H103.923V99.2077H119.308V104.173C118.928 106.154 118.114 107.986 116.866 109.668C115.618 111.35 114.003 112.707 112.023 113.738C110.069 114.742 107.871 115.244 105.429 115.244C102.688 115.244 100.206 114.634 97.9805 113.413C95.7826 112.164 94.046 110.441 92.7707 108.244C91.5225 106.046 90.8984 103.549 90.8984 100.754C90.8984 97.9595 91.5225 95.4632 92.7707 93.2653C94.046 91.0402 95.7826 89.3172 97.9805 88.0961C100.206 86.848 102.675 86.2239 105.388 86.2239C108.59 86.2239 111.371 87.0108 113.732 88.5846C116.093 90.1312 117.721 92.3156 118.616 95.1375H112.063ZM137.525 115.285C134.866 115.285 132.424 114.661 130.199 113.413C127.974 112.164 126.21 110.441 124.908 108.244C123.605 106.018 122.954 103.509 122.954 100.714C122.954 97.946 123.605 95.4632 124.908 93.2653C126.21 91.0402 127.974 89.3036 130.199 88.0554C132.424 86.8073 134.866 86.1832 137.525 86.1832C140.212 86.1832 142.654 86.8073 144.852 88.0554C147.077 89.3036 148.827 91.0402 150.102 93.2653C151.405 95.4632 152.056 97.946 152.056 100.714C152.056 103.509 151.405 106.018 150.102 108.244C148.827 110.441 147.077 112.164 144.852 113.413C142.627 114.661 140.185 115.285 137.525 115.285ZM137.525 110.197C139.235 110.197 140.741 109.817 142.043 109.058C143.346 108.271 144.363 107.158 145.096 105.72C145.829 104.282 146.195 102.613 146.195 100.714C146.195 98.8143 145.829 97.1591 145.096 95.7481C144.363 94.3099 143.346 93.211 142.043 92.4512C140.741 91.6915 139.235 91.3116 137.525 91.3116C135.816 91.3116 134.296 91.6915 132.967 92.4512C131.664 93.211 130.647 94.3099 129.914 95.7481C129.182 97.1591 128.815 98.8143 128.815 100.714C128.815 102.613 129.182 104.282 129.914 105.72C130.647 107.158 131.664 108.271 132.967 109.058C134.296 109.817 135.816 110.197 137.525 110.197ZM167.041 86.5902C170.025 86.5902 172.644 87.1736 174.896 88.3404C177.175 89.5071 178.926 91.1759 180.147 93.3467C181.395 95.4903 182.019 97.9867 182.019 100.836C182.019 103.685 181.395 106.181 180.147 108.325C178.926 110.441 177.175 112.083 174.896 113.25C172.644 114.417 170.025 115 167.041 115H157.109V86.5902H167.041ZM166.837 110.156C169.822 110.156 172.128 109.342 173.756 107.714C175.384 106.086 176.198 103.793 176.198 100.836C176.198 97.8781 175.384 95.5717 173.756 93.9165C172.128 92.2342 169.822 91.393 166.837 91.393H162.808V110.156H166.837ZM192.919 110.197H205.699V115H186.325V110.604L199.024 91.393H186.325V86.5902H205.699V90.986L192.919 110.197Z" fill="#010737"/>
<path d="M44.9803 139.1V140.96H41.2803V153H39.0003V140.96H35.2803V139.1H44.9803ZM53.3894 141.8C54.2294 141.8 54.976 141.98 55.6294 142.34C56.296 142.7 56.816 143.233 57.1894 143.94C57.576 144.647 57.7694 145.5 57.7694 146.5V153H55.5094V146.84C55.5094 145.853 55.2627 145.1 54.7694 144.58C54.276 144.047 53.6027 143.78 52.7494 143.78C51.896 143.78 51.216 144.047 50.7094 144.58C50.216 145.1 49.9694 145.853 49.9694 146.84V153H47.6894V138.2H49.9694V143.26C50.356 142.793 50.8427 142.433 51.4294 142.18C52.0294 141.927 52.6827 141.8 53.3894 141.8ZM71.1776 147.22C71.1776 147.633 71.151 148.007 71.0976 148.34H62.6776C62.7443 149.22 63.071 149.927 63.6576 150.46C64.2443 150.993 64.9643 151.26 65.8176 151.26C67.0443 151.26 67.911 150.747 68.4176 149.72H70.8776C70.5443 150.733 69.9376 151.567 69.0576 152.22C68.191 152.86 67.111 153.18 65.8176 153.18C64.7643 153.18 63.8176 152.947 62.9776 152.48C62.151 152 61.4976 151.333 61.0176 150.48C60.551 149.613 60.3176 148.613 60.3176 147.48C60.3176 146.347 60.5443 145.353 60.9976 144.5C61.4643 143.633 62.111 142.967 62.9376 142.5C63.7776 142.033 64.7376 141.8 65.8176 141.8C66.8576 141.8 67.7843 142.027 68.5976 142.48C69.411 142.933 70.0443 143.573 70.4976 144.4C70.951 145.213 71.1776 146.153 71.1776 147.22ZM68.7976 146.5C68.7843 145.66 68.4843 144.987 67.8976 144.48C67.311 143.973 66.5843 143.72 65.7176 143.72C64.931 143.72 64.2576 143.973 63.6976 144.48C63.1376 144.973 62.8043 145.647 62.6976 146.5H68.7976ZM88.3967 139.1V140.96H84.6967V153H82.4167V140.96H78.6967V139.1H88.3967ZM95.8858 153.18C94.8458 153.18 93.9058 152.947 93.0658 152.48C92.2258 152 91.5658 151.333 91.0858 150.48C90.6058 149.613 90.3658 148.613 90.3658 147.48C90.3658 146.36 90.6124 145.367 91.1058 144.5C91.5991 143.633 92.2724 142.967 93.1258 142.5C93.9791 142.033 94.9324 141.8 95.9858 141.8C97.0391 141.8 97.9924 142.033 98.8458 142.5C99.6991 142.967 100.372 143.633 100.866 144.5C101.359 145.367 101.606 146.36 101.606 147.48C101.606 148.6 101.352 149.593 100.846 150.46C100.339 151.327 99.6458 152 98.7658 152.48C97.8991 152.947 96.9391 153.18 95.8858 153.18ZM95.8858 151.2C96.4724 151.2 97.0191 151.06 97.5258 150.78C98.0458 150.5 98.4658 150.08 98.7858 149.52C99.1058 148.96 99.2658 148.28 99.2658 147.48C99.2658 146.68 99.1124 146.007 98.8058 145.46C98.4991 144.9 98.0924 144.48 97.5858 144.2C97.0791 143.92 96.5324 143.78 95.9458 143.78C95.3591 143.78 94.8124 143.92 94.3058 144.2C93.8124 144.48 93.4191 144.9 93.1258 145.46C92.8324 146.007 92.6858 146.68 92.6858 147.48C92.6858 148.667 92.9858 149.587 93.5858 150.24C94.1991 150.88 94.9658 151.2 95.8858 151.2ZM108.62 147.5L113.7 153H110.62L106.54 148.26V153H104.26V138.2H106.54V146.8L110.54 141.98H113.7L108.62 147.5ZM125.834 147.22C125.834 147.633 125.807 148.007 125.754 148.34H117.334C117.401 149.22 117.727 149.927 118.314 150.46C118.901 150.993 119.621 151.26 120.474 151.26C121.701 151.26 122.567 150.747 123.074 149.72H125.534C125.201 150.733 124.594 151.567 123.714 152.22C122.847 152.86 121.767 153.18 120.474 153.18C119.421 153.18 118.474 152.947 117.634 152.48C116.807 152 116.154 151.333 115.674 150.48C115.207 149.613 114.974 148.613 114.974 147.48C114.974 146.347 115.201 145.353 115.654 144.5C116.121 143.633 116.767 142.967 117.594 142.5C118.434 142.033 119.394 141.8 120.474 141.8C121.514 141.8 122.441 142.027 123.254 142.48C124.067 142.933 124.701 143.573 125.154 144.4C125.607 145.213 125.834 146.153 125.834 147.22ZM123.454 146.5C123.441 145.66 123.141 144.987 122.554 144.48C121.967 143.973 121.241 143.72 120.374 143.72C119.587 143.72 118.914 143.973 118.354 144.48C117.794 144.973 117.461 145.647 117.354 146.5H123.454ZM134.038 141.8C134.904 141.8 135.678 141.98 136.358 142.34C137.051 142.7 137.591 143.233 137.978 143.94C138.364 144.647 138.558 145.5 138.558 146.5V153H136.298V146.84C136.298 145.853 136.051 145.1 135.558 144.58C135.064 144.047 134.391 143.78 133.538 143.78C132.684 143.78 132.004 144.047 131.498 144.58C131.004 145.1 130.758 145.853 130.758 146.84V153H128.478V141.98H130.758V143.24C131.131 142.787 131.604 142.433 132.178 142.18C132.764 141.927 133.384 141.8 134.038 141.8ZM156.441 139.1V140.96H152.741V153H150.461V140.96H146.741V139.1H156.441ZM160.31 140.52C159.897 140.52 159.55 140.38 159.27 140.1C158.99 139.82 158.85 139.473 158.85 139.06C158.85 138.647 158.99 138.3 159.27 138.02C159.55 137.74 159.897 137.6 160.31 137.6C160.71 137.6 161.05 137.74 161.33 138.02C161.61 138.3 161.75 138.647 161.75 139.06C161.75 139.473 161.61 139.82 161.33 140.1C161.05 140.38 160.71 140.52 160.31 140.52ZM161.43 141.98V153H159.15V141.98H161.43ZM164.064 147.48C164.064 146.347 164.29 145.353 164.744 144.5C165.21 143.633 165.85 142.967 166.664 142.5C167.477 142.033 168.41 141.8 169.464 141.8C170.797 141.8 171.897 142.12 172.764 142.76C173.644 143.387 174.237 144.287 174.544 145.46H172.084C171.884 144.913 171.564 144.487 171.124 144.18C170.684 143.873 170.13 143.72 169.464 143.72C168.53 143.72 167.784 144.053 167.224 144.72C166.677 145.373 166.404 146.293 166.404 147.48C166.404 148.667 166.677 149.593 167.224 150.26C167.784 150.927 168.53 151.26 169.464 151.26C170.784 151.26 171.657 150.68 172.084 149.52H174.544C174.224 150.64 173.624 151.533 172.744 152.2C171.864 152.853 170.77 153.18 169.464 153.18C168.41 153.18 167.477 152.947 166.664 152.48C165.85 152 165.21 151.333 164.744 150.48C164.29 149.613 164.064 148.613 164.064 147.48ZM181.576 147.5L186.656 153H183.576L179.496 148.26V153H177.216V138.2H179.496V146.8L183.496 141.98H186.656L181.576 147.5ZM198.79 147.22C198.79 147.633 198.763 148.007 198.71 148.34H190.29C190.357 149.22 190.683 149.927 191.27 150.46C191.857 150.993 192.577 151.26 193.43 151.26C194.657 151.26 195.523 150.747 196.03 149.72H198.49C198.157 150.733 197.55 151.567 196.67 152.22C195.803 152.86 194.723 153.18 193.43 153.18C192.377 153.18 191.43 152.947 190.59 152.48C189.763 152 189.11 151.333 188.63 150.48C188.163 149.613 187.93 148.613 187.93 147.48C187.93 146.347 188.157 145.353 188.61 144.5C189.077 143.633 189.723 142.967 190.55 142.5C191.39 142.033 192.35 141.8 193.43 141.8C194.47 141.8 195.397 142.027 196.21 142.48C197.023 142.933 197.657 143.573 198.11 144.4C198.563 145.213 198.79 146.153 198.79 147.22ZM196.41 146.5C196.397 145.66 196.097 144.987 195.51 144.48C194.923 143.973 194.197 143.72 193.33 143.72C192.543 143.72 191.87 143.973 191.31 144.48C190.75 144.973 190.417 145.647 190.31 146.5H196.41ZM203.714 143.58C204.047 143.02 204.487 142.587 205.034 142.28C205.594 141.96 206.254 141.8 207.014 141.8V144.16H206.434C205.541 144.16 204.861 144.387 204.394 144.84C203.941 145.293 203.714 146.08 203.714 147.2V153H201.434V141.98H203.714V143.58ZM217.385 139.1V153H215.105V139.1H217.385ZM224.778 153.18C223.912 153.18 223.132 153.027 222.438 152.72C221.758 152.4 221.218 151.973 220.818 151.44C220.418 150.893 220.205 150.287 220.178 149.62H222.538C222.578 150.087 222.798 150.48 223.198 150.8C223.612 151.107 224.125 151.26 224.738 151.26C225.378 151.26 225.872 151.14 226.218 150.9C226.578 150.647 226.758 150.327 226.758 149.94C226.758 149.527 226.558 149.22 226.158 149.02C225.772 148.82 225.152 148.6 224.298 148.36C223.472 148.133 222.798 147.913 222.278 147.7C221.758 147.487 221.305 147.16 220.918 146.72C220.545 146.28 220.358 145.7 220.358 144.98C220.358 144.393 220.532 143.86 220.878 143.38C221.225 142.887 221.718 142.5 222.358 142.22C223.012 141.94 223.758 141.8 224.598 141.8C225.852 141.8 226.858 142.12 227.618 142.76C228.392 143.387 228.805 144.247 228.858 145.34H226.578C226.538 144.847 226.338 144.453 225.978 144.16C225.618 143.867 225.132 143.72 224.518 143.72C223.918 143.72 223.458 143.833 223.138 144.06C222.818 144.287 222.658 144.587 222.658 144.96C222.658 145.253 222.765 145.5 222.978 145.7C223.192 145.9 223.452 146.06 223.758 146.18C224.065 146.287 224.518 146.427 225.118 146.6C225.918 146.813 226.572 147.033 227.078 147.26C227.598 147.473 228.045 147.793 228.418 148.22C228.792 148.647 228.985 149.213 228.998 149.92C228.998 150.547 228.825 151.107 228.478 151.6C228.132 152.093 227.638 152.48 226.998 152.76C226.372 153.04 225.632 153.18 224.778 153.18ZM110.363 179.04C110.363 179.707 110.196 180.333 109.863 180.92C109.543 181.507 109.063 182 108.423 182.4C107.796 182.8 107.049 183.04 106.183 183.12V184.74H104.883V183.12C103.629 183 102.616 182.607 101.843 181.94C101.069 181.273 100.683 180.393 100.683 179.3H103.123C103.163 179.82 103.329 180.253 103.623 180.6C103.916 180.933 104.336 181.147 104.883 181.24V176.84C103.989 176.613 103.263 176.387 102.703 176.16C102.143 175.92 101.663 175.547 101.263 175.04C100.876 174.533 100.683 173.84 100.683 172.96C100.683 171.853 101.069 170.94 101.843 170.22C102.616 169.487 103.629 169.06 104.883 168.94V167.32H106.183V168.94C107.356 169.047 108.296 169.42 109.003 170.06C109.723 170.687 110.129 171.553 110.223 172.66H107.783C107.743 172.247 107.583 171.88 107.303 171.56C107.023 171.227 106.649 171 106.183 170.88V175.2C107.076 175.413 107.803 175.64 108.363 175.88C108.923 176.107 109.396 176.473 109.783 176.98C110.169 177.473 110.363 178.16 110.363 179.04ZM103.003 172.84C103.003 173.387 103.163 173.813 103.483 174.12C103.816 174.427 104.283 174.673 104.883 174.86V170.82C104.309 170.887 103.849 171.093 103.503 171.44C103.169 171.787 103.003 172.253 103.003 172.84ZM106.183 181.24C106.769 181.147 107.229 180.913 107.563 180.54C107.896 180.153 108.063 179.693 108.063 179.16C108.063 178.627 107.896 178.213 107.563 177.92C107.243 177.613 106.783 177.367 106.183 177.18V181.24ZM124.451 173.1C124.091 172.407 123.591 171.887 122.951 171.54C122.311 171.18 121.571 171 120.731 171C119.811 171 118.991 171.207 118.271 171.62C117.551 172.033 116.984 172.62 116.571 173.38C116.171 174.14 115.971 175.02 115.971 176.02C115.971 177.02 116.171 177.907 116.571 178.68C116.984 179.44 117.551 180.027 118.271 180.44C118.991 180.853 119.811 181.06 120.731 181.06C121.971 181.06 122.977 180.713 123.751 180.02C124.524 179.327 124.997 178.387 125.171 177.2H119.951V175.38H127.611V177.16C127.464 178.24 127.077 179.233 126.451 180.14C125.837 181.047 125.031 181.773 124.031 182.32C123.044 182.853 121.944 183.12 120.731 183.12C119.424 183.12 118.231 182.82 117.151 182.22C116.071 181.607 115.211 180.76 114.571 179.68C113.944 178.6 113.631 177.38 113.631 176.02C113.631 174.66 113.944 173.44 114.571 172.36C115.211 171.28 116.071 170.44 117.151 169.84C118.244 169.227 119.437 168.92 120.731 168.92C122.211 168.92 123.524 169.287 124.671 170.02C125.831 170.74 126.671 171.767 127.191 173.1H124.451ZM136.599 183.14C135.306 183.14 134.113 182.84 133.019 182.24C131.939 181.627 131.079 180.78 130.439 179.7C129.813 178.607 129.499 177.38 129.499 176.02C129.499 174.66 129.813 173.44 130.439 172.36C131.079 171.28 131.939 170.44 133.019 169.84C134.113 169.227 135.306 168.92 136.599 168.92C137.906 168.92 139.099 169.227 140.179 169.84C141.273 170.44 142.133 171.28 142.759 172.36C143.386 173.44 143.699 174.66 143.699 176.02C143.699 177.38 143.386 178.607 142.759 179.7C142.133 180.78 141.273 181.627 140.179 182.24C139.099 182.84 137.906 183.14 136.599 183.14ZM136.599 181.16C137.519 181.16 138.339 180.953 139.059 180.54C139.779 180.113 140.339 179.513 140.739 178.74C141.153 177.953 141.359 177.047 141.359 176.02C141.359 174.993 141.153 174.093 140.739 173.32C140.339 172.547 139.779 171.953 139.059 171.54C138.339 171.127 137.519 170.92 136.599 170.92C135.679 170.92 134.859 171.127 134.139 171.54C133.419 171.953 132.853 172.547 132.439 173.32C132.039 174.093 131.839 174.993 131.839 176.02C131.839 177.047 132.039 177.953 132.439 178.74C132.853 179.513 133.419 180.113 134.139 180.54C134.859 180.953 135.679 181.16 136.599 181.16ZM150.883 169.1C152.363 169.1 153.656 169.387 154.763 169.96C155.883 170.52 156.743 171.333 157.343 172.4C157.956 173.453 158.263 174.687 158.263 176.1C158.263 177.513 157.956 178.74 157.343 179.78C156.743 180.82 155.883 181.62 154.763 182.18C153.656 182.727 152.363 183 150.883 183H146.343V169.1H150.883ZM150.883 181.14C152.51 181.14 153.756 180.7 154.623 179.82C155.49 178.94 155.923 177.7 155.923 176.1C155.923 174.487 155.49 173.227 154.623 172.32C153.756 171.413 152.51 170.96 150.883 170.96H148.623V181.14H150.883ZM163.123 181.02H169.583V183H160.423V181.22L166.863 171.08H160.423V169.1H169.583V170.88L163.123 181.02Z" fill="#010737"/>
<path d="M361.994 90.5789V85.3284H371.803V115H365.942V90.5789H361.994ZM378.246 99.7775C378.246 95.0833 379.088 91.4065 380.77 88.7474C382.479 86.0882 385.301 84.7586 389.236 84.7586C393.17 84.7586 395.979 86.0882 397.661 88.7474C399.371 91.4065 400.225 95.0833 400.225 99.7775C400.225 104.499 399.371 108.203 397.661 110.889C395.979 113.575 393.17 114.919 389.236 114.919C385.301 114.919 382.479 113.575 380.77 110.889C379.088 108.203 378.246 104.499 378.246 99.7775ZM394.609 99.7775C394.609 97.7696 394.473 96.0873 394.202 94.7305C393.957 93.3467 393.442 92.2206 392.655 91.3523C391.895 90.484 390.755 90.0498 389.236 90.0498C387.716 90.0498 386.563 90.484 385.776 91.3523C385.017 92.2206 384.501 93.3467 384.23 94.7305C383.985 96.0873 383.863 97.7696 383.863 99.7775C383.863 101.84 383.985 103.576 384.23 104.987C384.474 106.371 384.989 107.497 385.776 108.366C386.563 109.207 387.716 109.627 389.236 109.627C390.755 109.627 391.909 109.207 392.696 108.366C393.482 107.497 393.998 106.371 394.242 104.987C394.486 103.576 394.609 101.84 394.609 99.7775ZM405.374 99.7775C405.374 95.0833 406.215 91.4065 407.897 88.7474C409.607 86.0882 412.429 84.7586 416.363 84.7586C420.298 84.7586 423.106 86.0882 424.788 88.7474C426.498 91.4065 427.353 95.0833 427.353 99.7775C427.353 104.499 426.498 108.203 424.788 110.889C423.106 113.575 420.298 114.919 416.363 114.919C412.429 114.919 409.607 113.575 407.897 110.889C406.215 108.203 405.374 104.499 405.374 99.7775ZM421.736 99.7775C421.736 97.7696 421.6 96.0873 421.329 94.7305C421.084 93.3467 420.569 92.2206 419.782 91.3523C419.022 90.484 417.883 90.0498 416.363 90.0498C414.843 90.0498 413.69 90.484 412.903 91.3523C412.144 92.2206 411.628 93.3467 411.357 94.7305C411.113 96.0873 410.99 97.7696 410.99 99.7775C410.99 101.84 411.113 103.576 411.357 104.987C411.601 106.371 412.116 107.497 412.903 108.366C413.69 109.207 414.843 109.627 416.363 109.627C417.883 109.627 419.036 109.207 419.823 108.366C420.61 107.497 421.125 106.371 421.369 104.987C421.614 103.576 421.736 101.84 421.736 99.7775ZM449.27 100.429C450.871 100.727 452.187 101.528 453.218 102.83C454.249 104.133 454.764 105.625 454.764 107.307C454.764 108.827 454.385 110.17 453.625 111.337C452.892 112.476 451.82 113.372 450.409 114.023C448.998 114.674 447.33 115 445.403 115H433.152V86.5902H444.874C446.801 86.5902 448.456 86.9022 449.84 87.5263C451.251 88.1504 452.309 89.0187 453.014 90.1312C453.747 91.2437 454.113 92.5055 454.113 93.9165C454.113 95.5717 453.666 96.9556 452.77 98.0681C451.902 99.1806 450.735 99.9675 449.27 100.429ZM438.85 98.3123H444.06C445.417 98.3123 446.461 98.0138 447.194 97.4168C447.927 96.7927 448.293 95.9109 448.293 94.7712C448.293 93.6316 447.927 92.7497 447.194 92.1256C446.461 91.5015 445.417 91.1895 444.06 91.1895H438.85V98.3123ZM444.589 110.36C445.973 110.36 447.045 110.034 447.804 109.383C448.591 108.732 448.985 107.809 448.985 106.615C448.985 105.394 448.578 104.445 447.764 103.766C446.95 103.061 445.851 102.708 444.467 102.708H438.85V110.36H444.589Z" fill="#010737"/>
<path d="M354.514 139.1V140.96H350.814V153H348.534V140.96H344.814V139.1H354.514ZM362.003 153.18C360.963 153.18 360.023 152.947 359.183 152.48C358.343 152 357.683 151.333 357.203 150.48C356.723 149.613 356.483 148.613 356.483 147.48C356.483 146.36 356.73 145.367 357.223 144.5C357.716 143.633 358.39 142.967 359.243 142.5C360.096 142.033 361.05 141.8 362.103 141.8C363.156 141.8 364.11 142.033 364.963 142.5C365.816 142.967 366.49 143.633 366.983 144.5C367.476 145.367 367.723 146.36 367.723 147.48C367.723 148.6 367.47 149.593 366.963 150.46C366.456 151.327 365.763 152 364.883 152.48C364.016 152.947 363.056 153.18 362.003 153.18ZM362.003 151.2C362.59 151.2 363.136 151.06 363.643 150.78C364.163 150.5 364.583 150.08 364.903 149.52C365.223 148.96 365.383 148.28 365.383 147.48C365.383 146.68 365.23 146.007 364.923 145.46C364.616 144.9 364.21 144.48 363.703 144.2C363.196 143.92 362.65 143.78 362.063 143.78C361.476 143.78 360.93 143.92 360.423 144.2C359.93 144.48 359.536 144.9 359.243 145.46C358.95 146.007 358.803 146.68 358.803 147.48C358.803 148.667 359.103 149.587 359.703 150.24C360.316 150.88 361.083 151.2 362.003 151.2ZM373.037 143.84V149.94C373.037 150.353 373.13 150.653 373.317 150.84C373.517 151.013 373.85 151.1 374.317 151.1H375.717V153H373.917C372.89 153 372.104 152.76 371.557 152.28C371.01 151.8 370.737 151.02 370.737 149.94V143.84H369.437V141.98H370.737V139.24H373.037V141.98H375.717V143.84H373.037ZM377.458 147.44C377.458 146.333 377.685 145.353 378.138 144.5C378.605 143.647 379.232 142.987 380.018 142.52C380.818 142.04 381.698 141.8 382.658 141.8C383.525 141.8 384.278 141.973 384.918 142.32C385.572 142.653 386.092 143.073 386.478 143.58V141.98H388.778V153H386.478V151.36C386.092 151.88 385.565 152.313 384.898 152.66C384.232 153.007 383.472 153.18 382.618 153.18C381.672 153.18 380.805 152.94 380.018 152.46C379.232 151.967 378.605 151.287 378.138 150.42C377.685 149.54 377.458 148.547 377.458 147.44ZM386.478 147.48C386.478 146.72 386.318 146.06 385.998 145.5C385.692 144.94 385.285 144.513 384.778 144.22C384.272 143.927 383.725 143.78 383.138 143.78C382.552 143.78 382.005 143.927 381.498 144.22C380.992 144.5 380.578 144.92 380.258 145.48C379.952 146.027 379.798 146.68 379.798 147.44C379.798 148.2 379.952 148.867 380.258 149.44C380.578 150.013 380.992 150.453 381.498 150.76C382.018 151.053 382.565 151.2 383.138 151.2C383.725 151.2 384.272 151.053 384.778 150.76C385.285 150.467 385.692 150.04 385.998 149.48C386.318 148.907 386.478 148.24 386.478 147.48ZM394.453 138.2V153H392.173V138.2H394.453ZM408.022 153.14C407.088 153.14 406.248 152.98 405.502 152.66C404.755 152.327 404.168 151.86 403.742 151.26C403.315 150.66 403.102 149.96 403.102 149.16H405.542C405.595 149.76 405.828 150.253 406.242 150.64C406.668 151.027 407.262 151.22 408.022 151.22C408.808 151.22 409.422 151.033 409.862 150.66C410.302 150.273 410.522 149.78 410.522 149.18C410.522 148.713 410.382 148.333 410.102 148.04C409.835 147.747 409.495 147.52 409.082 147.36C408.682 147.2 408.122 147.027 407.402 146.84C406.495 146.6 405.755 146.36 405.182 146.12C404.622 145.867 404.142 145.48 403.742 144.96C403.342 144.44 403.142 143.747 403.142 142.88C403.142 142.08 403.342 141.38 403.742 140.78C404.142 140.18 404.702 139.72 405.422 139.4C406.142 139.08 406.975 138.92 407.922 138.92C409.268 138.92 410.368 139.26 411.222 139.94C412.088 140.607 412.568 141.527 412.662 142.7H410.142C410.102 142.193 409.862 141.76 409.422 141.4C408.982 141.04 408.402 140.86 407.682 140.86C407.028 140.86 406.495 141.027 406.082 141.36C405.668 141.693 405.462 142.173 405.462 142.8C405.462 143.227 405.588 143.58 405.842 143.86C406.108 144.127 406.442 144.34 406.842 144.5C407.242 144.66 407.788 144.833 408.482 145.02C409.402 145.273 410.148 145.527 410.722 145.78C411.308 146.033 411.802 146.427 412.202 146.96C412.615 147.48 412.822 148.18 412.822 149.06C412.822 149.767 412.628 150.433 412.242 151.06C411.868 151.687 411.315 152.193 410.582 152.58C409.862 152.953 409.008 153.14 408.022 153.14ZM425.892 141.98V153H423.612V151.7C423.252 152.153 422.779 152.513 422.192 152.78C421.619 153.033 421.005 153.16 420.352 153.16C419.485 153.16 418.705 152.98 418.012 152.62C417.332 152.26 416.792 151.727 416.392 151.02C416.005 150.313 415.812 149.46 415.812 148.46V141.98H418.072V148.12C418.072 149.107 418.319 149.867 418.812 150.4C419.305 150.92 419.979 151.18 420.832 151.18C421.685 151.18 422.359 150.92 422.852 150.4C423.359 149.867 423.612 149.107 423.612 148.12V141.98H425.892ZM431.58 143.6C431.967 143.093 432.494 142.667 433.16 142.32C433.827 141.973 434.58 141.8 435.42 141.8C436.38 141.8 437.254 142.04 438.04 142.52C438.84 142.987 439.467 143.647 439.92 144.5C440.374 145.353 440.6 146.333 440.6 147.44C440.6 148.547 440.374 149.54 439.92 150.42C439.467 151.287 438.84 151.967 438.04 152.46C437.254 152.94 436.38 153.18 435.42 153.18C434.58 153.18 433.834 153.013 433.18 152.68C432.527 152.333 431.994 151.907 431.58 151.4V158.24H429.3V141.98H431.58V143.6ZM438.28 147.44C438.28 146.68 438.12 146.027 437.8 145.48C437.494 144.92 437.08 144.5 436.56 144.22C436.054 143.927 435.507 143.78 434.92 143.78C434.347 143.78 433.8 143.927 433.28 144.22C432.774 144.513 432.36 144.94 432.04 145.5C431.734 146.06 431.58 146.72 431.58 147.48C431.58 148.24 431.734 148.907 432.04 149.48C432.36 150.04 432.774 150.467 433.28 150.76C433.8 151.053 434.347 151.2 434.92 151.2C435.507 151.2 436.054 151.053 436.56 150.76C437.08 150.453 437.494 150.013 437.8 149.44C438.12 148.867 438.28 148.2 438.28 147.44ZM445.535 143.6C445.922 143.093 446.448 142.667 447.115 142.32C447.782 141.973 448.535 141.8 449.375 141.8C450.335 141.8 451.208 142.04 451.995 142.52C452.795 142.987 453.422 143.647 453.875 144.5C454.328 145.353 454.555 146.333 454.555 147.44C454.555 148.547 454.328 149.54 453.875 150.42C453.422 151.287 452.795 151.967 451.995 152.46C451.208 152.94 450.335 153.18 449.375 153.18C448.535 153.18 447.788 153.013 447.135 152.68C446.482 152.333 445.948 151.907 445.535 151.4V158.24H443.255V141.98H445.535V143.6ZM452.235 147.44C452.235 146.68 452.075 146.027 451.755 145.48C451.448 144.92 451.035 144.5 450.515 144.22C450.008 143.927 449.462 143.78 448.875 143.78C448.302 143.78 447.755 143.927 447.235 144.22C446.728 144.513 446.315 144.94 445.995 145.5C445.688 146.06 445.535 146.72 445.535 147.48C445.535 148.24 445.688 148.907 445.995 149.48C446.315 150.04 446.728 150.467 447.235 150.76C447.755 151.053 448.302 151.2 448.875 151.2C449.462 151.2 450.008 151.053 450.515 150.76C451.035 150.453 451.448 150.013 451.755 149.44C452.075 148.867 452.235 148.2 452.235 147.44ZM459.49 138.2V153H457.21V138.2H459.49ZM472.803 141.98L466.043 158.18H463.683L465.923 152.82L461.583 141.98H464.123L467.223 150.38L470.443 141.98H472.803Z" fill="#010737"/>
<path d="M632.455 100.429C634.056 100.727 635.372 101.528 636.403 102.83C637.434 104.133 637.95 105.625 637.95 107.307C637.95 108.827 637.57 110.17 636.81 111.337C636.078 112.476 635.006 113.372 633.595 114.023C632.184 114.674 630.515 115 628.588 115H616.337V86.5902H628.059C629.986 86.5902 631.641 86.9022 633.025 87.5263C634.436 88.1504 635.494 89.0187 636.2 90.1312C636.932 91.2437 637.299 92.5055 637.299 93.9165C637.299 95.5717 636.851 96.9556 635.955 98.0681C635.087 99.1806 633.92 99.9675 632.455 100.429ZM622.035 98.3123H627.245C628.602 98.3123 629.647 98.0138 630.379 97.4168C631.112 96.7927 631.478 95.9109 631.478 94.7712C631.478 93.6316 631.112 92.7497 630.379 92.1256C629.647 91.5015 628.602 91.1895 627.245 91.1895H622.035V98.3123ZM627.774 110.36C629.158 110.36 630.23 110.034 630.99 109.383C631.777 108.732 632.17 107.809 632.17 106.615C632.17 105.394 631.763 104.445 630.949 103.766C630.135 103.061 629.036 102.708 627.652 102.708H622.035V110.36H627.774ZM649.004 91.1895V98.3123H658.568V102.83H649.004V110.36H659.79V115H643.305V86.5495H659.79V91.1895H649.004ZM686.499 95.3818C686.499 96.9013 686.133 98.3258 685.4 99.6554C684.695 100.985 683.569 102.057 682.022 102.871C680.502 103.685 678.576 104.092 676.242 104.092H671.48V115H665.782V86.5902H676.242C678.44 86.5902 680.312 86.9701 681.859 87.7298C683.406 88.4896 684.559 89.5343 685.319 90.8639C686.106 92.1935 686.499 93.6994 686.499 95.3818ZM675.998 99.4926C677.572 99.4926 678.739 99.1399 679.498 98.4344C680.258 97.7018 680.638 96.6842 680.638 95.3818C680.638 92.614 679.091 91.2302 675.998 91.2302H671.48V99.4926H675.998ZM692.498 108.569C695.103 106.398 697.179 104.594 698.726 103.156C700.273 101.691 701.561 100.171 702.593 98.5972C703.624 97.0234 704.139 95.4767 704.139 93.9572C704.139 92.5733 703.814 91.488 703.162 90.7011C702.511 89.9142 701.507 89.5207 700.15 89.5207C698.794 89.5207 697.749 89.982 697.016 90.9046C696.284 91.8 695.904 93.0346 695.877 94.6084H690.341C690.45 91.3523 691.413 88.883 693.231 87.2007C695.076 85.5184 697.41 84.6772 700.232 84.6772C703.325 84.6772 705.699 85.5048 707.355 87.16C709.01 88.7881 709.837 90.9453 709.837 93.6316C709.837 95.7481 709.268 97.7696 708.128 99.6961C706.988 101.623 705.686 103.305 704.221 104.743C702.755 106.154 700.842 107.864 698.482 109.872H710.489V114.593H690.382V110.36L692.498 108.569ZM714.893 99.7775C714.893 95.0833 715.735 91.4065 717.417 88.7474C719.126 86.0882 721.948 84.7586 725.883 84.7586C729.817 84.7586 732.626 86.0882 734.308 88.7474C736.018 91.4065 736.872 95.0833 736.872 99.7775C736.872 104.499 736.018 108.203 734.308 110.889C732.626 113.575 729.817 114.919 725.883 114.919C721.948 114.919 719.126 113.575 717.417 110.889C715.735 108.203 714.893 104.499 714.893 99.7775ZM731.255 99.7775C731.255 97.7696 731.12 96.0873 730.848 94.7305C730.604 93.3467 730.089 92.2206 729.302 91.3523C728.542 90.484 727.402 90.0498 725.883 90.0498C724.363 90.0498 723.21 90.484 722.423 91.3523C721.663 92.2206 721.148 93.3467 720.877 94.7305C720.632 96.0873 720.51 97.7696 720.51 99.7775C720.51 101.84 720.632 103.576 720.877 104.987C721.121 106.371 721.636 107.497 722.423 108.366C723.21 109.207 724.363 109.627 725.883 109.627C727.402 109.627 728.556 109.207 729.342 108.366C730.129 107.497 730.645 106.371 730.889 104.987C731.133 103.576 731.255 101.84 731.255 99.7775Z" fill="#010737"/>
<path d="M605.809 139.1V153H603.529V139.1H605.809ZM613.203 153.18C612.336 153.18 611.556 153.027 610.863 152.72C610.183 152.4 609.643 151.973 609.243 151.44C608.843 150.893 608.629 150.287 608.603 149.62H610.963C611.003 150.087 611.223 150.48 611.623 150.8C612.036 151.107 612.549 151.26 613.163 151.26C613.803 151.26 614.296 151.14 614.643 150.9C615.003 150.647 615.183 150.327 615.183 149.94C615.183 149.527 614.983 149.22 614.583 149.02C614.196 148.82 613.576 148.6 612.723 148.36C611.896 148.133 611.223 147.913 610.703 147.7C610.183 147.487 609.729 147.16 609.343 146.72C608.969 146.28 608.783 145.7 608.783 144.98C608.783 144.393 608.956 143.86 609.303 143.38C609.649 142.887 610.143 142.5 610.783 142.22C611.436 141.94 612.183 141.8 613.023 141.8C614.276 141.8 615.283 142.12 616.043 142.76C616.816 143.387 617.229 144.247 617.283 145.34H615.003C614.963 144.847 614.763 144.453 614.403 144.16C614.043 143.867 613.556 143.72 612.943 143.72C612.343 143.72 611.883 143.833 611.563 144.06C611.243 144.287 611.083 144.587 611.083 144.96C611.083 145.253 611.189 145.5 611.403 145.7C611.616 145.9 611.876 146.06 612.183 146.18C612.489 146.287 612.943 146.427 613.543 146.6C614.343 146.813 614.996 147.033 615.503 147.26C616.023 147.473 616.469 147.793 616.843 148.22C617.216 148.647 617.409 149.213 617.423 149.92C617.423 150.547 617.249 151.107 616.903 151.6C616.556 152.093 616.063 152.48 615.423 152.76C614.796 153.04 614.056 153.18 613.203 153.18ZM624.286 153.18C623.42 153.18 622.64 153.027 621.946 152.72C621.266 152.4 620.726 151.973 620.326 151.44C619.926 150.893 619.713 150.287 619.686 149.62H622.046C622.086 150.087 622.306 150.48 622.706 150.8C623.12 151.107 623.633 151.26 624.246 151.26C624.886 151.26 625.38 151.14 625.726 150.9C626.086 150.647 626.266 150.327 626.266 149.94C626.266 149.527 626.066 149.22 625.666 149.02C625.28 148.82 624.66 148.6 623.806 148.36C622.98 148.133 622.306 147.913 621.786 147.7C621.266 147.487 620.813 147.16 620.426 146.72C620.053 146.28 619.866 145.7 619.866 144.98C619.866 144.393 620.04 143.86 620.386 143.38C620.733 142.887 621.226 142.5 621.866 142.22C622.52 141.94 623.266 141.8 624.106 141.8C625.36 141.8 626.366 142.12 627.126 142.76C627.9 143.387 628.313 144.247 628.366 145.34H626.086C626.046 144.847 625.846 144.453 625.486 144.16C625.126 143.867 624.64 143.72 624.026 143.72C623.426 143.72 622.966 143.833 622.646 144.06C622.326 144.287 622.166 144.587 622.166 144.96C622.166 145.253 622.273 145.5 622.486 145.7C622.7 145.9 622.96 146.06 623.266 146.18C623.573 146.287 624.026 146.427 624.626 146.6C625.426 146.813 626.08 147.033 626.586 147.26C627.106 147.473 627.553 147.793 627.926 148.22C628.3 148.647 628.493 149.213 628.506 149.92C628.506 150.547 628.333 151.107 627.986 151.6C627.64 152.093 627.146 152.48 626.506 152.76C625.88 153.04 625.14 153.18 624.286 153.18ZM641.35 141.98V153H639.07V151.7C638.71 152.153 638.236 152.513 637.65 152.78C637.076 153.033 636.463 153.16 635.81 153.16C634.943 153.16 634.163 152.98 633.47 152.62C632.79 152.26 632.25 151.727 631.85 151.02C631.463 150.313 631.27 149.46 631.27 148.46V141.98H633.53V148.12C633.53 149.107 633.776 149.867 634.27 150.4C634.763 150.92 635.436 151.18 636.29 151.18C637.143 151.18 637.816 150.92 638.31 150.4C638.816 149.867 639.07 149.107 639.07 148.12V141.98H641.35ZM654.858 147.22C654.858 147.633 654.831 148.007 654.778 148.34H646.358C646.425 149.22 646.751 149.927 647.338 150.46C647.925 150.993 648.645 151.26 649.498 151.26C650.725 151.26 651.591 150.747 652.098 149.72H654.558C654.225 150.733 653.618 151.567 652.738 152.22C651.871 152.86 650.791 153.18 649.498 153.18C648.445 153.18 647.498 152.947 646.658 152.48C645.831 152 645.178 151.333 644.698 150.48C644.231 149.613 643.998 148.613 643.998 147.48C643.998 146.347 644.225 145.353 644.678 144.5C645.145 143.633 645.791 142.967 646.618 142.5C647.458 142.033 648.418 141.8 649.498 141.8C650.538 141.8 651.465 142.027 652.278 142.48C653.091 142.933 653.725 143.573 654.178 144.4C654.631 145.213 654.858 146.153 654.858 147.22ZM652.478 146.5C652.465 145.66 652.165 144.987 651.578 144.48C650.991 143.973 650.265 143.72 649.398 143.72C648.611 143.72 647.938 143.973 647.378 144.48C646.818 144.973 646.485 145.647 646.378 146.5H652.478ZM656.742 147.44C656.742 146.333 656.969 145.353 657.422 144.5C657.889 143.647 658.515 142.987 659.302 142.52C660.102 142.04 660.989 141.8 661.962 141.8C662.682 141.8 663.389 141.96 664.082 142.28C664.789 142.587 665.349 143 665.762 143.52V138.2H668.062V153H665.762V151.34C665.389 151.873 664.869 152.313 664.202 152.66C663.549 153.007 662.795 153.18 661.942 153.18C660.982 153.18 660.102 152.94 659.302 152.46C658.515 151.967 657.889 151.287 657.422 150.42C656.969 149.54 656.742 148.547 656.742 147.44ZM665.762 147.48C665.762 146.72 665.602 146.06 665.282 145.5C664.975 144.94 664.569 144.513 664.062 144.22C663.555 143.927 663.009 143.78 662.422 143.78C661.835 143.78 661.289 143.927 660.782 144.22C660.275 144.5 659.862 144.92 659.542 145.48C659.235 146.027 659.082 146.68 659.082 147.44C659.082 148.2 659.235 148.867 659.542 149.44C659.862 150.013 660.275 150.453 660.782 150.76C661.302 151.053 661.849 151.2 662.422 151.2C663.009 151.2 663.555 151.053 664.062 150.76C664.569 150.467 664.975 150.04 665.282 149.48C665.602 148.907 665.762 148.24 665.762 147.48ZM683.392 153.14C682.099 153.14 680.905 152.84 679.812 152.24C678.732 151.627 677.872 150.78 677.232 149.7C676.605 148.607 676.292 147.38 676.292 146.02C676.292 144.66 676.605 143.44 677.232 142.36C677.872 141.28 678.732 140.44 679.812 139.84C680.905 139.227 682.099 138.92 683.392 138.92C684.699 138.92 685.892 139.227 686.972 139.84C688.065 140.44 688.925 141.28 689.552 142.36C690.179 143.44 690.492 144.66 690.492 146.02C690.492 147.38 690.179 148.607 689.552 149.7C688.925 150.78 688.065 151.627 686.972 152.24C685.892 152.84 684.699 153.14 683.392 153.14ZM683.392 151.16C684.312 151.16 685.132 150.953 685.852 150.54C686.572 150.113 687.132 149.513 687.532 148.74C687.945 147.953 688.152 147.047 688.152 146.02C688.152 144.993 687.945 144.093 687.532 143.32C687.132 142.547 686.572 141.953 685.852 141.54C685.132 141.127 684.312 140.92 683.392 140.92C682.472 140.92 681.652 141.127 680.932 141.54C680.212 141.953 679.645 142.547 679.232 143.32C678.832 144.093 678.632 144.993 678.632 146.02C678.632 147.047 678.832 147.953 679.232 148.74C679.645 149.513 680.212 150.113 680.932 150.54C681.652 150.953 682.472 151.16 683.392 151.16ZM698.695 141.8C699.562 141.8 700.335 141.98 701.015 142.34C701.709 142.7 702.249 143.233 702.635 143.94C703.022 144.647 703.215 145.5 703.215 146.5V153H700.955V146.84C700.955 145.853 700.709 145.1 700.215 144.58C699.722 144.047 699.049 143.78 698.195 143.78C697.342 143.78 696.662 144.047 696.155 144.58C695.662 145.1 695.415 145.853 695.415 146.84V153H693.135V141.98H695.415V143.24C695.789 142.787 696.262 142.433 696.835 142.18C697.422 141.927 698.042 141.8 698.695 141.8ZM719.559 145.86C720.306 145.993 720.939 146.387 721.459 147.04C721.979 147.693 722.239 148.433 722.239 149.26C722.239 149.967 722.052 150.607 721.679 151.18C721.319 151.74 720.792 152.187 720.099 152.52C719.406 152.84 718.599 153 717.679 153H712.119V139.1H717.419C718.366 139.1 719.179 139.26 719.859 139.58C720.539 139.9 721.052 140.333 721.399 140.88C721.746 141.413 721.919 142.013 721.919 142.68C721.919 143.48 721.706 144.147 721.279 144.68C720.852 145.213 720.279 145.607 719.559 145.86ZM714.399 144.94H717.219C717.966 144.94 718.546 144.773 718.959 144.44C719.386 144.093 719.599 143.6 719.599 142.96C719.599 142.333 719.386 141.847 718.959 141.5C718.546 141.14 717.966 140.96 717.219 140.96H714.399V144.94ZM717.479 151.14C718.252 151.14 718.859 150.953 719.299 150.58C719.739 150.207 719.959 149.687 719.959 149.02C719.959 148.34 719.726 147.8 719.259 147.4C718.792 147 718.172 146.8 717.399 146.8H714.399V151.14H717.479ZM736.537 153H734.257L727.397 142.62V153H725.117V139.08H727.397L734.257 149.44V139.08H736.537V153ZM747.371 145.86C748.117 145.993 748.751 146.387 749.271 147.04C749.791 147.693 750.051 148.433 750.051 149.26C750.051 149.967 749.864 150.607 749.491 151.18C749.131 151.74 748.604 152.187 747.911 152.52C747.217 152.84 746.411 153 745.491 153H739.931V139.1H745.231C746.177 139.1 746.991 139.26 747.671 139.58C748.351 139.9 748.864 140.333 749.211 140.88C749.557 141.413 749.731 142.013 749.731 142.68C749.731 143.48 749.517 144.147 749.091 144.68C748.664 145.213 748.091 145.607 747.371 145.86ZM742.211 144.94H745.031C745.777 144.94 746.357 144.773 746.771 144.44C747.197 144.093 747.411 143.6 747.411 142.96C747.411 142.333 747.197 141.847 746.771 141.5C746.357 141.14 745.777 140.96 745.031 140.96H742.211V144.94ZM745.291 151.14C746.064 151.14 746.671 150.953 747.111 150.58C747.551 150.207 747.771 149.687 747.771 149.02C747.771 148.34 747.537 147.8 747.071 147.4C746.604 147 745.984 146.8 745.211 146.8H742.211V151.14H745.291Z" fill="#010737"/>
<path d="M932.571 92.7361C932.3 91.5965 931.825 90.7418 931.147 90.1719C930.495 89.6021 929.546 89.3172 928.298 89.3172C926.425 89.3172 925.041 90.077 924.146 91.5965C923.278 93.0889 922.83 95.531 922.803 98.9228C923.454 97.8374 924.404 96.9963 925.652 96.3993C926.9 95.7752 928.257 95.4632 929.722 95.4632C931.486 95.4632 933.046 95.843 934.403 96.6028C935.76 97.3626 936.818 98.4751 937.578 99.9404C938.337 101.378 938.717 103.115 938.717 105.15C938.717 107.077 938.324 108.8 937.537 110.319C936.777 111.812 935.651 112.978 934.159 113.82C932.666 114.661 930.889 115.081 928.827 115.081C926.005 115.081 923.78 114.457 922.152 113.209C920.551 111.961 919.425 110.224 918.773 107.999C918.149 105.747 917.837 102.979 917.837 99.6961C917.837 94.7305 918.692 90.986 920.401 88.4625C922.111 85.9118 924.811 84.6365 928.501 84.6365C931.35 84.6365 933.562 85.4098 935.135 86.9565C936.709 88.5032 937.618 90.4297 937.862 92.7361H932.571ZM928.42 100.144C926.982 100.144 925.774 100.564 924.797 101.406C923.82 102.247 923.332 103.468 923.332 105.069C923.332 106.67 923.78 107.931 924.675 108.854C925.598 109.777 926.887 110.238 928.542 110.238C930.007 110.238 931.16 109.79 932.001 108.895C932.87 107.999 933.304 106.792 933.304 105.272C933.304 103.698 932.883 102.45 932.042 101.528C931.228 100.605 930.021 100.144 928.42 100.144ZM943.384 92.614C943.384 90.5518 943.981 88.9373 945.174 87.7705C946.396 86.6037 947.956 86.0204 949.855 86.0204C951.755 86.0204 953.301 86.6037 954.495 87.7705C955.716 88.9373 956.327 90.5518 956.327 92.614C956.327 94.7034 955.716 96.3315 954.495 97.4982C953.301 98.665 951.755 99.2484 949.855 99.2484C947.956 99.2484 946.396 98.665 945.174 97.4982C943.981 96.3315 943.384 94.7034 943.384 92.614ZM969.514 86.5088L953.518 115H947.983L963.938 86.5088H969.514ZM949.814 89.4393C948.322 89.4393 947.576 90.4975 947.576 92.614C947.576 94.7577 948.322 95.8295 949.814 95.8295C950.547 95.8295 951.117 95.5717 951.524 95.0561C951.931 94.5135 952.134 93.6994 952.134 92.614C952.134 90.4975 951.361 89.4393 949.814 89.4393ZM961.252 108.854C961.252 106.765 961.849 105.15 963.043 104.011C964.264 102.844 965.824 102.26 967.723 102.26C969.623 102.26 971.156 102.844 972.323 104.011C973.516 105.15 974.113 106.765 974.113 108.854C974.113 110.943 973.516 112.571 972.323 113.738C971.156 114.905 969.623 115.488 967.723 115.488C965.797 115.488 964.236 114.905 963.043 113.738C961.849 112.571 961.252 110.943 961.252 108.854ZM967.683 105.679C966.136 105.679 965.363 106.738 965.363 108.854C965.363 110.998 966.136 112.069 967.683 112.069C969.202 112.069 969.962 110.998 969.962 108.854C969.962 106.738 969.202 105.679 967.683 105.679Z" fill="#010737"/>
<path d="M891.029 145.86C891.775 145.993 892.409 146.387 892.929 147.04C893.449 147.693 893.709 148.433 893.709 149.26C893.709 149.967 893.522 150.607 893.149 151.18C892.789 151.74 892.262 152.187 891.569 152.52C890.875 152.84 890.069 153 889.149 153H883.589V139.1H888.889C889.835 139.1 890.649 139.26 891.329 139.58C892.009 139.9 892.522 140.333 892.869 140.88C893.215 141.413 893.389 142.013 893.389 142.68C893.389 143.48 893.175 144.147 892.749 144.68C892.322 145.213 891.749 145.607 891.029 145.86ZM885.869 144.94H888.689C889.435 144.94 890.015 144.773 890.429 144.44C890.855 144.093 891.069 143.6 891.069 142.96C891.069 142.333 890.855 141.847 890.429 141.5C890.015 141.14 889.435 140.96 888.689 140.96H885.869V144.94ZM888.949 151.14C889.722 151.14 890.329 150.953 890.769 150.58C891.209 150.207 891.429 149.687 891.429 149.02C891.429 148.34 891.195 147.8 890.729 147.4C890.262 147 889.642 146.8 888.869 146.8H885.869V151.14H888.949ZM906.566 141.98V153H904.286V151.7C903.926 152.153 903.453 152.513 902.866 152.78C902.293 153.033 901.68 153.16 901.026 153.16C900.16 153.16 899.38 152.98 898.686 152.62C898.006 152.26 897.466 151.727 897.066 151.02C896.68 150.313 896.486 149.46 896.486 148.46V141.98H898.746V148.12C898.746 149.107 898.993 149.867 899.486 150.4C899.98 150.92 900.653 151.18 901.506 151.18C902.36 151.18 903.033 150.92 903.526 150.4C904.033 149.867 904.286 149.107 904.286 148.12V141.98H906.566ZM919.895 141.98L913.135 158.18H910.775L913.015 152.82L908.675 141.98H911.215L914.315 150.38L917.535 141.98H919.895ZM929.415 134.12L923.975 156.5H921.735L927.155 134.12H929.415ZM937.269 153.14C936.335 153.14 935.495 152.98 934.749 152.66C934.002 152.327 933.415 151.86 932.989 151.26C932.562 150.66 932.349 149.96 932.349 149.16H934.789C934.842 149.76 935.075 150.253 935.489 150.64C935.915 151.027 936.509 151.22 937.269 151.22C938.055 151.22 938.669 151.033 939.109 150.66C939.549 150.273 939.769 149.78 939.769 149.18C939.769 148.713 939.629 148.333 939.349 148.04C939.082 147.747 938.742 147.52 938.329 147.36C937.929 147.2 937.369 147.027 936.649 146.84C935.742 146.6 935.002 146.36 934.429 146.12C933.869 145.867 933.389 145.48 932.989 144.96C932.589 144.44 932.389 143.747 932.389 142.88C932.389 142.08 932.589 141.38 932.989 140.78C933.389 140.18 933.949 139.72 934.669 139.4C935.389 139.08 936.222 138.92 937.169 138.92C938.515 138.92 939.615 139.26 940.469 139.94C941.335 140.607 941.815 141.527 941.909 142.7H939.389C939.349 142.193 939.109 141.76 938.669 141.4C938.229 141.04 937.649 140.86 936.929 140.86C936.275 140.86 935.742 141.027 935.329 141.36C934.915 141.693 934.709 142.173 934.709 142.8C934.709 143.227 934.835 143.58 935.089 143.86C935.355 144.127 935.689 144.34 936.089 144.5C936.489 144.66 937.035 144.833 937.729 145.02C938.649 145.273 939.395 145.527 939.969 145.78C940.555 146.033 941.049 146.427 941.449 146.96C941.862 147.48 942.069 148.18 942.069 149.06C942.069 149.767 941.875 150.433 941.489 151.06C941.115 151.687 940.562 152.193 939.829 152.58C939.109 152.953 938.255 153.14 937.269 153.14ZM955.259 147.22C955.259 147.633 955.232 148.007 955.179 148.34H946.759C946.826 149.22 947.152 149.927 947.739 150.46C948.326 150.993 949.046 151.26 949.899 151.26C951.126 151.26 951.992 150.747 952.499 149.72H954.959C954.626 150.733 954.019 151.567 953.139 152.22C952.272 152.86 951.192 153.18 949.899 153.18C948.846 153.18 947.899 152.947 947.059 152.48C946.232 152 945.579 151.333 945.099 150.48C944.632 149.613 944.399 148.613 944.399 147.48C944.399 146.347 944.626 145.353 945.079 144.5C945.546 143.633 946.192 142.967 947.019 142.5C947.859 142.033 948.819 141.8 949.899 141.8C950.939 141.8 951.866 142.027 952.679 142.48C953.492 142.933 954.126 143.573 954.579 144.4C955.032 145.213 955.259 146.153 955.259 147.22ZM952.879 146.5C952.866 145.66 952.566 144.987 951.979 144.48C951.392 143.973 950.666 143.72 949.799 143.72C949.012 143.72 948.339 143.973 947.779 144.48C947.219 144.973 946.886 145.647 946.779 146.5H952.879ZM960.183 138.2V153H957.903V138.2H960.183ZM965.856 138.2V153H963.576V138.2H965.856ZM983.825 139.1V140.96H980.125V153H977.845V140.96H974.125V139.1H983.825ZM985.774 147.44C985.774 146.333 986.001 145.353 986.454 144.5C986.921 143.647 987.547 142.987 988.334 142.52C989.134 142.04 990.014 141.8 990.974 141.8C991.841 141.8 992.594 141.973 993.234 142.32C993.887 142.653 994.407 143.073 994.794 143.58V141.98H997.094V153H994.794V151.36C994.407 151.88 993.881 152.313 993.214 152.66C992.547 153.007 991.787 153.18 990.934 153.18C989.987 153.18 989.121 152.94 988.334 152.46C987.547 151.967 986.921 151.287 986.454 150.42C986.001 149.54 985.774 148.547 985.774 147.44ZM994.794 147.48C994.794 146.72 994.634 146.06 994.314 145.5C994.007 144.94 993.601 144.513 993.094 144.22C992.587 143.927 992.041 143.78 991.454 143.78C990.867 143.78 990.321 143.927 989.814 144.22C989.307 144.5 988.894 144.92 988.574 145.48C988.267 146.027 988.114 146.68 988.114 147.44C988.114 148.2 988.267 148.867 988.574 149.44C988.894 150.013 989.307 150.453 989.814 150.76C990.334 151.053 990.881 151.2 991.454 151.2C992.041 151.2 992.587 151.053 993.094 150.76C993.601 150.467 994.007 150.04 994.314 149.48C994.634 148.907 994.794 148.24 994.794 147.48ZM1005.21 147.42L1008.77 153H1006.19L1003.81 149.26L1001.57 153H999.189L1002.75 147.58L999.189 141.98H1001.77L1004.15 145.72L1006.39 141.98H1008.77L1005.21 147.42Z" fill="#010737"/>
<path d="M243.267 269.143C243.403 266.43 244.353 264.34 246.117 262.875C247.907 261.383 250.255 260.636 253.158 260.636C255.139 260.636 256.835 260.989 258.246 261.695C259.657 262.373 260.715 263.309 261.42 264.503C262.153 265.67 262.519 267 262.519 268.492C262.519 270.201 262.072 271.653 261.176 272.847C260.308 274.014 259.263 274.801 258.042 275.208V275.371C259.616 275.859 260.837 276.727 261.705 277.975C262.601 279.224 263.048 280.825 263.048 282.778C263.048 284.406 262.669 285.858 261.909 287.133C261.176 288.409 260.077 289.413 258.612 290.145C257.174 290.851 255.437 291.204 253.402 291.204C250.336 291.204 247.84 290.43 245.913 288.884C243.986 287.337 242.969 285.058 242.86 282.046H248.396C248.45 283.375 248.898 284.447 249.739 285.261C250.607 286.048 251.788 286.441 253.28 286.441C254.664 286.441 255.722 286.062 256.455 285.302C257.215 284.515 257.594 283.511 257.594 282.29C257.594 280.662 257.079 279.495 256.048 278.789C255.017 278.084 253.416 277.731 251.245 277.731H250.065V273.051H251.245C255.098 273.051 257.025 271.762 257.025 269.184C257.025 268.017 256.672 267.108 255.966 266.457C255.288 265.806 254.298 265.48 252.995 265.48C251.72 265.48 250.729 265.833 250.024 266.538C249.346 267.217 248.952 268.085 248.844 269.143H243.267ZM267.714 268.614C267.714 266.552 268.311 264.937 269.505 263.771C270.726 262.604 272.286 262.02 274.186 262.02C276.085 262.02 277.632 262.604 278.826 263.771C280.047 264.937 280.657 266.552 280.657 268.614C280.657 270.703 280.047 272.331 278.826 273.498C277.632 274.665 276.085 275.248 274.186 275.248C272.286 275.248 270.726 274.665 269.505 273.498C268.311 272.331 267.714 270.703 267.714 268.614ZM293.845 262.509L277.849 291H272.314L288.269 262.509H293.845ZM274.145 265.439C272.653 265.439 271.906 266.498 271.906 268.614C271.906 270.758 272.653 271.829 274.145 271.829C274.878 271.829 275.448 271.572 275.855 271.056C276.262 270.513 276.465 269.699 276.465 268.614C276.465 266.498 275.692 265.439 274.145 265.439ZM285.582 284.854C285.582 282.765 286.179 281.15 287.373 280.011C288.594 278.844 290.154 278.26 292.054 278.26C293.953 278.26 295.486 278.844 296.653 280.011C297.847 281.15 298.444 282.765 298.444 284.854C298.444 286.943 297.847 288.571 296.653 289.738C295.486 290.905 293.953 291.488 292.054 291.488C290.127 291.488 288.567 290.905 287.373 289.738C286.179 288.571 285.582 286.943 285.582 284.854ZM292.013 281.679C290.466 281.679 289.693 282.738 289.693 284.854C289.693 286.998 290.466 288.069 292.013 288.069C293.533 288.069 294.292 286.998 294.292 284.854C294.292 282.738 293.533 281.679 292.013 281.679Z" fill="#010737"/>
<path d="M205.83 327.16H210.53V329H203.55V315.1H205.83V327.16ZM213.997 316.52C213.583 316.52 213.237 316.38 212.957 316.1C212.677 315.82 212.537 315.473 212.537 315.06C212.537 314.647 212.677 314.3 212.957 314.02C213.237 313.74 213.583 313.6 213.997 313.6C214.397 313.6 214.737 313.74 215.017 314.02C215.297 314.3 215.437 314.647 215.437 315.06C215.437 315.473 215.297 315.82 215.017 316.1C214.737 316.38 214.397 316.52 213.997 316.52ZM215.117 317.98V329H212.837V317.98H215.117ZM217.75 323.44C217.75 322.333 217.977 321.353 218.43 320.5C218.897 319.647 219.523 318.987 220.31 318.52C221.11 318.04 221.997 317.8 222.97 317.8C223.823 317.8 224.577 317.973 225.23 318.32C225.897 318.667 226.41 319.087 226.77 319.58V317.98H229.07V334.24H226.77V327.4C226.41 327.893 225.89 328.313 225.21 328.66C224.53 329.007 223.757 329.18 222.89 329.18C221.943 329.18 221.077 328.94 220.29 328.46C219.517 327.967 218.897 327.287 218.43 326.42C217.977 325.54 217.75 324.547 217.75 323.44ZM226.77 323.48C226.77 322.72 226.61 322.06 226.29 321.5C225.983 320.94 225.577 320.513 225.07 320.22C224.563 319.927 224.017 319.78 223.43 319.78C222.843 319.78 222.297 319.927 221.79 320.22C221.283 320.5 220.87 320.92 220.55 321.48C220.243 322.027 220.09 322.68 220.09 323.44C220.09 324.2 220.243 324.867 220.55 325.44C220.87 326.013 221.283 326.453 221.79 326.76C222.31 327.053 222.857 327.2 223.43 327.2C224.017 327.2 224.563 327.053 225.07 326.76C225.577 326.467 225.983 326.04 226.29 325.48C226.61 324.907 226.77 324.24 226.77 323.48ZM242.445 317.98V329H240.165V327.7C239.805 328.153 239.331 328.513 238.745 328.78C238.171 329.033 237.558 329.16 236.905 329.16C236.038 329.16 235.258 328.98 234.565 328.62C233.885 328.26 233.345 327.727 232.945 327.02C232.558 326.313 232.365 325.46 232.365 324.46V317.98H234.625V324.12C234.625 325.107 234.871 325.867 235.365 326.4C235.858 326.92 236.531 327.18 237.385 327.18C238.238 327.18 238.911 326.92 239.405 326.4C239.911 325.867 240.165 325.107 240.165 324.12V317.98H242.445ZM247.013 316.52C246.6 316.52 246.253 316.38 245.973 316.1C245.693 315.82 245.553 315.473 245.553 315.06C245.553 314.647 245.693 314.3 245.973 314.02C246.253 313.74 246.6 313.6 247.013 313.6C247.413 313.6 247.753 313.74 248.033 314.02C248.313 314.3 248.453 314.647 248.453 315.06C248.453 315.473 248.313 315.82 248.033 316.1C247.753 316.38 247.413 316.52 247.013 316.52ZM248.133 317.98V329H245.853V317.98H248.133ZM250.766 323.44C250.766 322.333 250.993 321.353 251.446 320.5C251.913 319.647 252.54 318.987 253.326 318.52C254.126 318.04 255.013 317.8 255.986 317.8C256.706 317.8 257.413 317.96 258.106 318.28C258.813 318.587 259.373 319 259.786 319.52V314.2H262.086V329H259.786V327.34C259.413 327.873 258.893 328.313 258.226 328.66C257.573 329.007 256.82 329.18 255.966 329.18C255.006 329.18 254.126 328.94 253.326 328.46C252.54 327.967 251.913 327.287 251.446 326.42C250.993 325.54 250.766 324.547 250.766 323.44ZM259.786 323.48C259.786 322.72 259.626 322.06 259.306 321.5C259 320.94 258.593 320.513 258.086 320.22C257.58 319.927 257.033 319.78 256.446 319.78C255.86 319.78 255.313 319.927 254.806 320.22C254.3 320.5 253.886 320.92 253.566 321.48C253.26 322.027 253.106 322.68 253.106 323.44C253.106 324.2 253.26 324.867 253.566 325.44C253.886 326.013 254.3 326.453 254.806 326.76C255.326 327.053 255.873 327.2 256.446 327.2C257.033 327.2 257.58 327.053 258.086 326.76C258.593 326.467 259 326.04 259.306 325.48C259.626 324.907 259.786 324.24 259.786 323.48ZM266.641 316.52C266.228 316.52 265.881 316.38 265.601 316.1C265.321 315.82 265.181 315.473 265.181 315.06C265.181 314.647 265.321 314.3 265.601 314.02C265.881 313.74 266.228 313.6 266.641 313.6C267.041 313.6 267.381 313.74 267.661 314.02C267.941 314.3 268.081 314.647 268.081 315.06C268.081 315.473 267.941 315.82 267.661 316.1C267.381 316.38 267.041 316.52 266.641 316.52ZM267.761 317.98V329H265.481V317.98H267.761ZM273.815 319.84V325.94C273.815 326.353 273.908 326.653 274.095 326.84C274.295 327.013 274.628 327.1 275.095 327.1H276.495V329H274.695C273.668 329 272.881 328.76 272.335 328.28C271.788 327.8 271.515 327.02 271.515 325.94V319.84H270.215V317.98H271.515V315.24H273.815V317.98H276.495V319.84H273.815ZM288.916 317.98L282.156 334.18H279.796L282.036 328.82L277.696 317.98H280.236L283.336 326.38L286.556 317.98H288.916ZM306.352 319.24C306.352 319.947 306.185 320.613 305.852 321.24C305.519 321.867 304.985 322.38 304.252 322.78C303.519 323.167 302.579 323.36 301.432 323.36H298.912V329H296.632V315.1H301.432C302.499 315.1 303.399 315.287 304.132 315.66C304.879 316.02 305.432 316.513 305.792 317.14C306.165 317.767 306.352 318.467 306.352 319.24ZM301.432 321.5C302.299 321.5 302.945 321.307 303.372 320.92C303.799 320.52 304.012 319.96 304.012 319.24C304.012 317.72 303.152 316.96 301.432 316.96H298.912V321.5H301.432ZM313.706 329.18C312.666 329.18 311.726 328.947 310.886 328.48C310.046 328 309.386 327.333 308.906 326.48C308.426 325.613 308.186 324.613 308.186 323.48C308.186 322.36 308.433 321.367 308.926 320.5C309.42 319.633 310.093 318.967 310.946 318.5C311.8 318.033 312.753 317.8 313.806 317.8C314.86 317.8 315.813 318.033 316.666 318.5C317.52 318.967 318.193 319.633 318.686 320.5C319.18 321.367 319.426 322.36 319.426 323.48C319.426 324.6 319.173 325.593 318.666 326.46C318.16 327.327 317.466 328 316.586 328.48C315.72 328.947 314.76 329.18 313.706 329.18ZM313.706 327.2C314.293 327.2 314.84 327.06 315.346 326.78C315.866 326.5 316.286 326.08 316.606 325.52C316.926 324.96 317.086 324.28 317.086 323.48C317.086 322.68 316.933 322.007 316.626 321.46C316.32 320.9 315.913 320.48 315.406 320.2C314.9 319.92 314.353 319.78 313.766 319.78C313.18 319.78 312.633 319.92 312.126 320.2C311.633 320.48 311.24 320.9 310.946 321.46C310.653 322.007 310.506 322.68 310.506 323.48C310.506 324.667 310.806 325.587 311.406 326.24C312.02 326.88 312.786 327.2 313.706 327.2ZM326.86 329.18C325.82 329.18 324.88 328.947 324.04 328.48C323.2 328 322.54 327.333 322.06 326.48C321.58 325.613 321.34 324.613 321.34 323.48C321.34 322.36 321.587 321.367 322.08 320.5C322.574 319.633 323.247 318.967 324.1 318.5C324.954 318.033 325.907 317.8 326.96 317.8C328.014 317.8 328.967 318.033 329.82 318.5C330.674 318.967 331.347 319.633 331.84 320.5C332.334 321.367 332.58 322.36 332.58 323.48C332.58 324.6 332.327 325.593 331.82 326.46C331.314 327.327 330.62 328 329.74 328.48C328.874 328.947 327.914 329.18 326.86 329.18ZM326.86 327.2C327.447 327.2 327.994 327.06 328.5 326.78C329.02 326.5 329.44 326.08 329.76 325.52C330.08 324.96 330.24 324.28 330.24 323.48C330.24 322.68 330.087 322.007 329.78 321.46C329.474 320.9 329.067 320.48 328.56 320.2C328.054 319.92 327.507 319.78 326.92 319.78C326.334 319.78 325.787 319.92 325.28 320.2C324.787 320.48 324.394 320.9 324.1 321.46C323.807 322.007 323.66 322.68 323.66 323.48C323.66 324.667 323.96 325.587 324.56 326.24C325.174 326.88 325.94 327.2 326.86 327.2ZM337.514 314.2V329H335.234V314.2H337.514Z" fill="#010737"/>
<path d="M514.977 284.569C517.582 282.398 519.658 280.594 521.204 279.156C522.751 277.691 524.04 276.171 525.071 274.597C526.102 273.023 526.618 271.477 526.618 269.957C526.618 268.573 526.292 267.488 525.641 266.701C524.99 265.914 523.986 265.521 522.629 265.521C521.272 265.521 520.227 265.982 519.495 266.905C518.762 267.8 518.382 269.035 518.355 270.608H512.82C512.928 267.352 513.891 264.883 515.71 263.201C517.555 261.518 519.888 260.677 522.71 260.677C525.804 260.677 528.178 261.505 529.833 263.16C531.488 264.788 532.316 266.945 532.316 269.632C532.316 271.748 531.746 273.77 530.606 275.696C529.467 277.623 528.164 279.305 526.699 280.743C525.234 282.154 523.321 283.864 520.96 285.872H532.967V290.593H512.86V286.36L514.977 284.569ZM536.721 268.614C536.721 266.552 537.317 264.937 538.511 263.771C539.732 262.604 541.293 262.02 543.192 262.02C545.092 262.02 546.638 262.604 547.832 263.771C549.053 264.937 549.664 266.552 549.664 268.614C549.664 270.703 549.053 272.331 547.832 273.498C546.638 274.665 545.092 275.248 543.192 275.248C541.293 275.248 539.732 274.665 538.511 273.498C537.317 272.331 536.721 270.703 536.721 268.614ZM562.851 262.509L546.855 291H541.32L557.275 262.509H562.851ZM543.151 265.439C541.659 265.439 540.913 266.498 540.913 268.614C540.913 270.758 541.659 271.829 543.151 271.829C543.884 271.829 544.454 271.572 544.861 271.056C545.268 270.513 545.471 269.699 545.471 268.614C545.471 266.498 544.698 265.439 543.151 265.439ZM554.589 284.854C554.589 282.765 555.186 281.15 556.379 280.011C557.601 278.844 559.161 278.26 561.06 278.26C562.96 278.26 564.493 278.844 565.659 280.011C566.853 281.15 567.45 282.765 567.45 284.854C567.45 286.943 566.853 288.571 565.659 289.738C564.493 290.905 562.96 291.488 561.06 291.488C559.134 291.488 557.573 290.905 556.379 289.738C555.186 288.571 554.589 286.943 554.589 284.854ZM561.019 281.679C559.473 281.679 558.699 282.738 558.699 284.854C558.699 286.998 559.473 288.069 561.019 288.069C562.539 288.069 563.299 286.998 563.299 284.854C563.299 282.738 562.539 281.679 561.019 281.679Z" fill="#010737"/>
<path d="M470.181 329.14C468.888 329.14 467.694 328.84 466.601 328.24C465.521 327.627 464.661 326.78 464.021 325.7C463.394 324.607 463.081 323.38 463.081 322.02C463.081 320.66 463.394 319.44 464.021 318.36C464.661 317.28 465.521 316.44 466.601 315.84C467.694 315.227 468.888 314.92 470.181 314.92C471.488 314.92 472.681 315.227 473.761 315.84C474.854 316.44 475.714 317.28 476.341 318.36C476.968 319.44 477.281 320.66 477.281 322.02C477.281 323.38 476.968 324.607 476.341 325.7C475.714 326.78 474.854 327.627 473.761 328.24C472.681 328.84 471.488 329.14 470.181 329.14ZM470.181 327.16C471.101 327.16 471.921 326.953 472.641 326.54C473.361 326.113 473.921 325.513 474.321 324.74C474.734 323.953 474.941 323.047 474.941 322.02C474.941 320.993 474.734 320.093 474.321 319.32C473.921 318.547 473.361 317.953 472.641 317.54C471.921 317.127 471.101 316.92 470.181 316.92C469.261 316.92 468.441 317.127 467.721 317.54C467.001 317.953 466.434 318.547 466.021 319.32C465.621 320.093 465.421 320.993 465.421 322.02C465.421 323.047 465.621 323.953 466.021 324.74C466.434 325.513 467.001 326.113 467.721 326.54C468.441 326.953 469.261 327.16 470.181 327.16ZM489.645 319.24C489.645 319.947 489.478 320.613 489.145 321.24C488.811 321.867 488.278 322.38 487.545 322.78C486.811 323.167 485.871 323.36 484.725 323.36H482.205V329H479.925V315.1H484.725C485.791 315.1 486.691 315.287 487.425 315.66C488.171 316.02 488.725 316.513 489.085 317.14C489.458 317.767 489.645 318.467 489.645 319.24ZM484.725 321.5C485.591 321.5 486.238 321.307 486.665 320.92C487.091 320.52 487.305 319.96 487.305 319.24C487.305 317.72 486.445 316.96 484.725 316.96H482.205V321.5H484.725ZM496.799 329.14C495.866 329.14 495.026 328.98 494.279 328.66C493.532 328.327 492.946 327.86 492.519 327.26C492.092 326.66 491.879 325.96 491.879 325.16H494.319C494.372 325.76 494.606 326.253 495.019 326.64C495.446 327.027 496.039 327.22 496.799 327.22C497.586 327.22 498.199 327.033 498.639 326.66C499.079 326.273 499.299 325.78 499.299 325.18C499.299 324.713 499.159 324.333 498.879 324.04C498.612 323.747 498.272 323.52 497.859 323.36C497.459 323.2 496.899 323.027 496.179 322.84C495.272 322.6 494.532 322.36 493.959 322.12C493.399 321.867 492.919 321.48 492.519 320.96C492.119 320.44 491.919 319.747 491.919 318.88C491.919 318.08 492.119 317.38 492.519 316.78C492.919 316.18 493.479 315.72 494.199 315.4C494.919 315.08 495.752 314.92 496.699 314.92C498.046 314.92 499.146 315.26 499.999 315.94C500.866 316.607 501.346 317.527 501.439 318.7H498.919C498.879 318.193 498.639 317.76 498.199 317.4C497.759 317.04 497.179 316.86 496.459 316.86C495.806 316.86 495.272 317.027 494.859 317.36C494.446 317.693 494.239 318.173 494.239 318.8C494.239 319.227 494.366 319.58 494.619 319.86C494.886 320.127 495.219 320.34 495.619 320.5C496.019 320.66 496.566 320.833 497.259 321.02C498.179 321.273 498.926 321.527 499.499 321.78C500.086 322.033 500.579 322.427 500.979 322.96C501.392 323.48 501.599 324.18 501.599 325.06C501.599 325.767 501.406 326.433 501.019 327.06C500.646 327.687 500.092 328.193 499.359 328.58C498.639 328.953 497.786 329.14 496.799 329.14ZM507.189 326.26L504.769 331.78H503.289L504.709 326.26H507.189ZM524.222 315.1V329H521.942V319.48L517.702 329H516.122L511.862 319.48V329H509.582V315.1H512.042L516.922 326L521.782 315.1H524.222ZM526.858 323.44C526.858 322.333 527.085 321.353 527.538 320.5C528.005 319.647 528.632 318.987 529.418 318.52C530.218 318.04 531.098 317.8 532.058 317.8C532.925 317.8 533.678 317.973 534.318 318.32C534.972 318.653 535.492 319.073 535.878 319.58V317.98H538.178V329H535.878V327.36C535.492 327.88 534.965 328.313 534.298 328.66C533.632 329.007 532.872 329.18 532.018 329.18C531.072 329.18 530.205 328.94 529.418 328.46C528.632 327.967 528.005 327.287 527.538 326.42C527.085 325.54 526.858 324.547 526.858 323.44ZM535.878 323.48C535.878 322.72 535.718 322.06 535.398 321.5C535.092 320.94 534.685 320.513 534.178 320.22C533.672 319.927 533.125 319.78 532.538 319.78C531.952 319.78 531.405 319.927 530.898 320.22C530.392 320.5 529.978 320.92 529.658 321.48C529.352 322.027 529.198 322.68 529.198 323.44C529.198 324.2 529.352 324.867 529.658 325.44C529.978 326.013 530.392 326.453 530.898 326.76C531.418 327.053 531.965 327.2 532.538 327.2C533.125 327.2 533.672 327.053 534.178 326.76C534.685 326.467 535.092 326.04 535.398 325.48C535.718 324.907 535.878 324.24 535.878 323.48ZM543.853 319.58C544.186 319.02 544.626 318.587 545.173 318.28C545.733 317.96 546.393 317.8 547.153 317.8V320.16H546.573C545.68 320.16 545 320.387 544.533 320.84C544.08 321.293 543.853 322.08 543.853 323.2V329H541.573V317.98H543.853V319.58ZM554.009 323.5L559.089 329H556.009L551.929 324.26V329H549.649V314.2H551.929V322.8L555.929 317.98H559.089L554.009 323.5ZM571.223 323.22C571.223 323.633 571.196 324.007 571.143 324.34H562.723C562.79 325.22 563.116 325.927 563.703 326.46C564.29 326.993 565.01 327.26 565.863 327.26C567.09 327.26 567.956 326.747 568.463 325.72H570.923C570.59 326.733 569.983 327.567 569.103 328.22C568.236 328.86 567.156 329.18 565.863 329.18C564.81 329.18 563.863 328.947 563.023 328.48C562.196 328 561.543 327.333 561.063 326.48C560.596 325.613 560.363 324.613 560.363 323.48C560.363 322.347 560.59 321.353 561.043 320.5C561.51 319.633 562.156 318.967 562.983 318.5C563.823 318.033 564.783 317.8 565.863 317.8C566.903 317.8 567.83 318.027 568.643 318.48C569.456 318.933 570.09 319.573 570.543 320.4C570.996 321.213 571.223 322.153 571.223 323.22ZM568.843 322.5C568.83 321.66 568.53 320.987 567.943 320.48C567.356 319.973 566.63 319.72 565.763 319.72C564.976 319.72 564.303 319.973 563.743 320.48C563.183 320.973 562.85 321.647 562.743 322.5H568.843ZM576.527 319.84V325.94C576.527 326.353 576.62 326.653 576.807 326.84C577.007 327.013 577.34 327.1 577.807 327.1H579.207V329H577.407C576.38 329 575.593 328.76 575.047 328.28C574.5 327.8 574.227 327.02 574.227 325.94V319.84H572.927V317.98H574.227V315.24H576.527V317.98H579.207V319.84H576.527ZM582.868 316.52C582.455 316.52 582.108 316.38 581.828 316.1C581.548 315.82 581.408 315.473 581.408 315.06C581.408 314.647 581.548 314.3 581.828 314.02C582.108 313.74 582.455 313.6 582.868 313.6C583.268 313.6 583.608 313.74 583.888 314.02C584.168 314.3 584.308 314.647 584.308 315.06C584.308 315.473 584.168 315.82 583.888 316.1C583.608 316.38 583.268 316.52 582.868 316.52ZM583.988 317.98V329H581.708V317.98H583.988ZM592.942 317.8C593.808 317.8 594.582 317.98 595.262 318.34C595.955 318.7 596.495 319.233 596.882 319.94C597.268 320.647 597.462 321.5 597.462 322.5V329H595.202V322.84C595.202 321.853 594.955 321.1 594.462 320.58C593.968 320.047 593.295 319.78 592.442 319.78C591.588 319.78 590.908 320.047 590.402 320.58C589.908 321.1 589.662 321.853 589.662 322.84V329H587.382V317.98H589.662V319.24C590.035 318.787 590.508 318.433 591.082 318.18C591.668 317.927 592.288 317.8 592.942 317.8ZM605.21 317.8C606.063 317.8 606.817 317.973 607.47 318.32C608.137 318.653 608.657 319.073 609.03 319.58V317.98H611.33V329.18C611.33 330.193 611.117 331.093 610.69 331.88C610.263 332.68 609.643 333.307 608.83 333.76C608.03 334.213 607.07 334.44 605.95 334.44C604.457 334.44 603.217 334.087 602.23 333.38C601.243 332.687 600.683 331.74 600.55 330.54H602.81C602.983 331.113 603.35 331.573 603.91 331.92C604.483 332.28 605.163 332.46 605.95 332.46C606.87 332.46 607.61 332.18 608.17 331.62C608.743 331.06 609.03 330.247 609.03 329.18V327.34C608.643 327.86 608.117 328.3 607.45 328.66C606.797 329.007 606.05 329.18 605.21 329.18C604.25 329.18 603.37 328.94 602.57 328.46C601.783 327.967 601.157 327.287 600.69 326.42C600.237 325.54 600.01 324.547 600.01 323.44C600.01 322.333 600.237 321.353 600.69 320.5C601.157 319.647 601.783 318.987 602.57 318.52C603.37 318.04 604.25 317.8 605.21 317.8ZM609.03 323.48C609.03 322.72 608.87 322.06 608.55 321.5C608.243 320.94 607.837 320.513 607.33 320.22C606.823 319.927 606.277 319.78 605.69 319.78C605.103 319.78 604.557 319.927 604.05 320.22C603.543 320.5 603.13 320.92 602.81 321.48C602.503 322.027 602.35 322.68 602.35 323.44C602.35 324.2 602.503 324.867 602.81 325.44C603.13 326.013 603.543 326.453 604.05 326.76C604.57 327.053 605.117 327.2 605.69 327.2C606.277 327.2 606.823 327.053 607.33 326.76C607.837 326.467 608.243 326.04 608.55 325.48C608.87 324.907 609.03 324.24 609.03 323.48ZM617.225 326.26L614.805 331.78H613.325L614.745 326.26H617.225ZM506.93 359.14C505.997 359.14 505.157 358.98 504.41 358.66C503.664 358.327 503.077 357.86 502.65 357.26C502.224 356.66 502.01 355.96 502.01 355.16H504.45C504.504 355.76 504.737 356.253 505.15 356.64C505.577 357.027 506.17 357.22 506.93 357.22C507.717 357.22 508.33 357.033 508.77 356.66C509.21 356.273 509.43 355.78 509.43 355.18C509.43 354.713 509.29 354.333 509.01 354.04C508.744 353.747 508.404 353.52 507.99 353.36C507.59 353.2 507.03 353.027 506.31 352.84C505.404 352.6 504.664 352.36 504.09 352.12C503.53 351.867 503.05 351.48 502.65 350.96C502.25 350.44 502.05 349.747 502.05 348.88C502.05 348.08 502.25 347.38 502.65 346.78C503.05 346.18 503.61 345.72 504.33 345.4C505.05 345.08 505.884 344.92 506.83 344.92C508.177 344.92 509.277 345.26 510.13 345.94C510.997 346.607 511.477 347.527 511.57 348.7H509.05C509.01 348.193 508.77 347.76 508.33 347.4C507.89 347.04 507.31 346.86 506.59 346.86C505.937 346.86 505.404 347.027 504.99 347.36C504.577 347.693 504.37 348.173 504.37 348.8C504.37 349.227 504.497 349.58 504.75 349.86C505.017 350.127 505.35 350.34 505.75 350.5C506.15 350.66 506.697 350.833 507.39 351.02C508.31 351.273 509.057 351.527 509.63 351.78C510.217 352.033 510.71 352.427 511.11 352.96C511.524 353.48 511.73 354.18 511.73 355.06C511.73 355.767 511.537 356.433 511.15 357.06C510.777 357.687 510.224 358.193 509.49 358.58C508.77 358.953 507.917 359.14 506.93 359.14ZM517.481 349.84V355.94C517.481 356.353 517.574 356.653 517.761 356.84C517.961 357.013 518.294 357.1 518.761 357.1H520.161V359H518.361C517.334 359 516.547 358.76 516.001 358.28C515.454 357.8 515.181 357.02 515.181 355.94V349.84H513.881V347.98H515.181V345.24H517.481V347.98H520.161V349.84H517.481ZM521.902 353.44C521.902 352.333 522.129 351.353 522.582 350.5C523.049 349.647 523.675 348.987 524.462 348.52C525.262 348.04 526.142 347.8 527.102 347.8C527.969 347.8 528.722 347.973 529.362 348.32C530.015 348.653 530.535 349.073 530.922 349.58V347.98H533.222V359H530.922V357.36C530.535 357.88 530.009 358.313 529.342 358.66C528.675 359.007 527.915 359.18 527.062 359.18C526.115 359.18 525.249 358.94 524.462 358.46C523.675 357.967 523.049 357.287 522.582 356.42C522.129 355.54 521.902 354.547 521.902 353.44ZM530.922 353.48C530.922 352.72 530.762 352.06 530.442 351.5C530.135 350.94 529.729 350.513 529.222 350.22C528.715 349.927 528.169 349.78 527.582 349.78C526.995 349.78 526.449 349.927 525.942 350.22C525.435 350.5 525.022 350.92 524.702 351.48C524.395 352.027 524.242 352.68 524.242 353.44C524.242 354.2 524.395 354.867 524.702 355.44C525.022 356.013 525.435 356.453 525.942 356.76C526.462 357.053 527.009 357.2 527.582 357.2C528.169 357.2 528.715 357.053 529.222 356.76C529.729 356.467 530.135 356.04 530.442 355.48C530.762 354.907 530.922 354.24 530.922 353.48ZM540.977 353.5L546.057 359H542.977L538.897 354.26V359H536.617V344.2H538.897V352.8L542.897 347.98H546.057L540.977 353.5ZM549.251 346.52C548.838 346.52 548.491 346.38 548.211 346.1C547.931 345.82 547.791 345.473 547.791 345.06C547.791 344.647 547.931 344.3 548.211 344.02C548.491 343.74 548.838 343.6 549.251 343.6C549.651 343.6 549.991 343.74 550.271 344.02C550.551 344.3 550.691 344.647 550.691 345.06C550.691 345.473 550.551 345.82 550.271 346.1C549.991 346.38 549.651 346.52 549.251 346.52ZM550.371 347.98V359H548.091V347.98H550.371ZM559.324 347.8C560.191 347.8 560.964 347.98 561.644 348.34C562.338 348.7 562.878 349.233 563.264 349.94C563.651 350.647 563.844 351.5 563.844 352.5V359H561.584V352.84C561.584 351.853 561.338 351.1 560.844 350.58C560.351 350.047 559.678 349.78 558.824 349.78C557.971 349.78 557.291 350.047 556.784 350.58C556.291 351.1 556.044 351.853 556.044 352.84V359H553.764V347.98H556.044V349.24C556.418 348.787 556.891 348.433 557.464 348.18C558.051 347.927 558.671 347.8 559.324 347.8ZM571.593 347.8C572.446 347.8 573.199 347.973 573.853 348.32C574.519 348.653 575.039 349.073 575.413 349.58V347.98H577.713V359.18C577.713 360.193 577.499 361.093 577.073 361.88C576.646 362.68 576.026 363.307 575.213 363.76C574.413 364.213 573.453 364.44 572.333 364.44C570.839 364.44 569.599 364.087 568.613 363.38C567.626 362.687 567.066 361.74 566.933 360.54H569.193C569.366 361.113 569.733 361.573 570.293 361.92C570.866 362.28 571.546 362.46 572.333 362.46C573.253 362.46 573.993 362.18 574.553 361.62C575.126 361.06 575.413 360.247 575.413 359.18V357.34C575.026 357.86 574.499 358.3 573.833 358.66C573.179 359.007 572.433 359.18 571.593 359.18C570.633 359.18 569.753 358.94 568.953 358.46C568.166 357.967 567.539 357.287 567.073 356.42C566.619 355.54 566.393 354.547 566.393 353.44C566.393 352.333 566.619 351.353 567.073 350.5C567.539 349.647 568.166 348.987 568.953 348.52C569.753 348.04 570.633 347.8 571.593 347.8ZM575.413 353.48C575.413 352.72 575.253 352.06 574.933 351.5C574.626 350.94 574.219 350.513 573.713 350.22C573.206 349.927 572.659 349.78 572.073 349.78C571.486 349.78 570.939 349.927 570.433 350.22C569.926 350.5 569.513 350.92 569.193 351.48C568.886 352.027 568.733 352.68 568.733 353.44C568.733 354.2 568.886 354.867 569.193 355.44C569.513 356.013 569.926 356.453 570.433 356.76C570.953 357.053 571.499 357.2 572.073 357.2C572.659 357.2 573.206 357.053 573.713 356.76C574.219 356.467 574.626 356.04 574.933 355.48C575.253 354.907 575.413 354.24 575.413 353.48Z" fill="#010737"/>
<path d="M796.36 265.561V261.328H804.826V291H800.146V265.561H796.36ZM811.282 268.492C811.282 266.511 811.852 264.964 812.992 263.852C814.158 262.712 815.651 262.142 817.469 262.142C819.287 262.142 820.766 262.712 821.905 263.852C823.072 264.964 823.655 266.511 823.655 268.492C823.655 270.473 823.072 272.033 821.905 273.173C820.766 274.312 819.287 274.882 817.469 274.882C815.651 274.882 814.158 274.312 812.992 273.173C811.852 272.033 811.282 270.473 811.282 268.492ZM836.11 262.672L819.87 291H815.312L831.552 262.672H836.11ZM817.469 264.951C815.759 264.951 814.904 266.131 814.904 268.492C814.904 270.88 815.759 272.074 817.469 272.074C818.283 272.074 818.907 271.789 819.341 271.219C819.802 270.622 820.033 269.713 820.033 268.492C820.033 266.131 819.178 264.951 817.469 264.951ZM827.848 285.139C827.848 283.158 828.417 281.611 829.557 280.499C830.724 279.359 832.216 278.789 834.034 278.789C835.825 278.789 837.29 279.359 838.43 280.499C839.597 281.611 840.18 283.158 840.18 285.139C840.18 287.12 839.597 288.68 838.43 289.82C837.29 290.959 835.825 291.529 834.034 291.529C832.216 291.529 830.724 290.959 829.557 289.82C828.417 288.68 827.848 287.12 827.848 285.139ZM833.994 281.598C832.284 281.598 831.429 282.778 831.429 285.139C831.429 287.5 832.284 288.68 833.994 288.68C835.703 288.68 836.558 287.5 836.558 285.139C836.558 282.778 835.703 281.598 833.994 281.598Z" fill="#0D0D0D"/>
<path d="M765.72 323.1V324.96H762.02V337H759.74V324.96H756.02V323.1H765.72ZM773.209 337.18C772.169 337.18 771.229 336.947 770.389 336.48C769.549 336 768.889 335.333 768.409 334.48C767.929 333.613 767.689 332.613 767.689 331.48C767.689 330.36 767.935 329.367 768.429 328.5C768.922 327.633 769.595 326.967 770.449 326.5C771.302 326.033 772.255 325.8 773.309 325.8C774.362 325.8 775.315 326.033 776.169 326.5C777.022 326.967 777.695 327.633 778.189 328.5C778.682 329.367 778.929 330.36 778.929 331.48C778.929 332.6 778.675 333.593 778.169 334.46C777.662 335.327 776.969 336 776.089 336.48C775.222 336.947 774.262 337.18 773.209 337.18ZM773.209 335.2C773.795 335.2 774.342 335.06 774.849 334.78C775.369 334.5 775.789 334.08 776.109 333.52C776.429 332.96 776.589 332.28 776.589 331.48C776.589 330.68 776.435 330.007 776.129 329.46C775.822 328.9 775.415 328.48 774.909 328.2C774.402 327.92 773.855 327.78 773.269 327.78C772.682 327.78 772.135 327.92 771.629 328.2C771.135 328.48 770.742 328.9 770.449 329.46C770.155 330.007 770.009 330.68 770.009 331.48C770.009 332.667 770.309 333.587 770.909 334.24C771.522 334.88 772.289 335.2 773.209 335.2ZM785.943 331.5L791.023 337H787.943L783.863 332.26V337H781.583V322.2H783.863V330.8L787.863 325.98H791.023L785.943 331.5ZM803.157 331.22C803.157 331.633 803.13 332.007 803.077 332.34H794.657C794.724 333.22 795.05 333.927 795.637 334.46C796.224 334.993 796.944 335.26 797.797 335.26C799.024 335.26 799.89 334.747 800.397 333.72H802.857C802.524 334.733 801.917 335.567 801.037 336.22C800.17 336.86 799.09 337.18 797.797 337.18C796.744 337.18 795.797 336.947 794.957 336.48C794.13 336 793.477 335.333 792.997 334.48C792.53 333.613 792.297 332.613 792.297 331.48C792.297 330.347 792.524 329.353 792.977 328.5C793.444 327.633 794.09 326.967 794.917 326.5C795.757 326.033 796.717 325.8 797.797 325.8C798.837 325.8 799.764 326.027 800.577 326.48C801.39 326.933 802.024 327.573 802.477 328.4C802.93 329.213 803.157 330.153 803.157 331.22ZM800.777 330.5C800.764 329.66 800.464 328.987 799.877 328.48C799.29 327.973 798.564 327.72 797.697 327.72C796.91 327.72 796.237 327.973 795.677 328.48C795.117 328.973 794.784 329.647 794.677 330.5H800.777ZM811.361 325.8C812.227 325.8 813.001 325.98 813.681 326.34C814.374 326.7 814.914 327.233 815.301 327.94C815.687 328.647 815.881 329.5 815.881 330.5V337H813.621V330.84C813.621 329.853 813.374 329.1 812.881 328.58C812.387 328.047 811.714 327.78 810.861 327.78C810.007 327.78 809.327 328.047 808.821 328.58C808.327 329.1 808.081 329.853 808.081 330.84V337H805.801V325.98H808.081V327.24C808.454 326.787 808.927 326.433 809.501 326.18C810.087 325.927 810.707 325.8 811.361 325.8ZM832.224 329.86C832.971 329.993 833.604 330.387 834.124 331.04C834.644 331.693 834.904 332.433 834.904 333.26C834.904 333.967 834.718 334.607 834.344 335.18C833.984 335.74 833.458 336.187 832.764 336.52C832.071 336.84 831.264 337 830.344 337H824.784V323.1H830.084C831.031 323.1 831.844 323.26 832.524 323.58C833.204 323.9 833.718 324.333 834.064 324.88C834.411 325.413 834.584 326.013 834.584 326.68C834.584 327.48 834.371 328.147 833.944 328.68C833.518 329.213 832.944 329.607 832.224 329.86ZM827.064 328.94H829.884C830.631 328.94 831.211 328.773 831.624 328.44C832.051 328.093 832.264 327.6 832.264 326.96C832.264 326.333 832.051 325.847 831.624 325.5C831.211 325.14 830.631 324.96 829.884 324.96H827.064V328.94ZM830.144 335.14C830.918 335.14 831.524 334.953 831.964 334.58C832.404 334.207 832.624 333.687 832.624 333.02C832.624 332.34 832.391 331.8 831.924 331.4C831.458 331 830.838 330.8 830.064 330.8H827.064V335.14H830.144ZM847.762 325.98V337H845.482V335.7C845.122 336.153 844.649 336.513 844.062 336.78C843.489 337.033 842.875 337.16 842.222 337.16C841.355 337.16 840.575 336.98 839.882 336.62C839.202 336.26 838.662 335.727 838.262 335.02C837.875 334.313 837.682 333.46 837.682 332.46V325.98H839.942V332.12C839.942 333.107 840.189 333.867 840.682 334.4C841.175 334.92 841.849 335.18 842.702 335.18C843.555 335.18 844.229 334.92 844.722 334.4C845.229 333.867 845.482 333.107 845.482 332.12V325.98H847.762ZM853.45 327.58C853.784 327.02 854.224 326.587 854.77 326.28C855.33 325.96 855.99 325.8 856.75 325.8V328.16H856.17C855.277 328.16 854.597 328.387 854.13 328.84C853.677 329.293 853.45 330.08 853.45 331.2V337H851.17V325.98H853.45V327.58ZM864.806 325.8C865.673 325.8 866.446 325.98 867.126 326.34C867.819 326.7 868.359 327.233 868.746 327.94C869.133 328.647 869.326 329.5 869.326 330.5V337H867.066V330.84C867.066 329.853 866.819 329.1 866.326 328.58C865.833 328.047 865.159 327.78 864.306 327.78C863.453 327.78 862.773 328.047 862.266 328.58C861.773 329.1 861.526 329.853 861.526 330.84V337H859.246V325.98H861.526V327.24C861.899 326.787 862.373 326.433 862.946 326.18C863.533 325.927 864.153 325.8 864.806 325.8ZM876.634 337.18C875.768 337.18 874.988 337.027 874.294 336.72C873.614 336.4 873.074 335.973 872.674 335.44C872.274 334.893 872.061 334.287 872.034 333.62H874.394C874.434 334.087 874.654 334.48 875.054 334.8C875.468 335.107 875.981 335.26 876.594 335.26C877.234 335.26 877.728 335.14 878.074 334.9C878.434 334.647 878.614 334.327 878.614 333.94C878.614 333.527 878.414 333.22 878.014 333.02C877.628 332.82 877.008 332.6 876.154 332.36C875.328 332.133 874.654 331.913 874.134 331.7C873.614 331.487 873.161 331.16 872.774 330.72C872.401 330.28 872.214 329.7 872.214 328.98C872.214 328.393 872.388 327.86 872.734 327.38C873.081 326.887 873.574 326.5 874.214 326.22C874.868 325.94 875.614 325.8 876.454 325.8C877.708 325.8 878.714 326.12 879.474 326.76C880.248 327.387 880.661 328.247 880.714 329.34H878.434C878.394 328.847 878.194 328.453 877.834 328.16C877.474 327.867 876.988 327.72 876.374 327.72C875.774 327.72 875.314 327.833 874.994 328.06C874.674 328.287 874.514 328.587 874.514 328.96C874.514 329.253 874.621 329.5 874.834 329.7C875.048 329.9 875.308 330.06 875.614 330.18C875.921 330.287 876.374 330.427 876.974 330.6C877.774 330.813 878.428 331.033 878.934 331.26C879.454 331.473 879.901 331.793 880.274 332.22C880.648 332.647 880.841 333.213 880.854 333.92C880.854 334.547 880.681 335.107 880.334 335.6C879.988 336.093 879.494 336.48 878.854 336.76C878.228 337.04 877.488 337.18 876.634 337.18Z" fill="#010737"/>
<defs>
<linearGradient id="paint0_linear_62_47" x1="5.47724" y1="35.2585" x2="274.143" y2="41.0994" gradientUnits="userSpaceOnUse">
<stop stop-color="#FF1CF7"/>
<stop offset="1" stop-color="#00F0FF"/>
</linearGradient>
<linearGradient id="paint1_linear_62_47" x1="5.47724" y1="35.2585" x2="274.143" y2="41.0994" gradientUnits="userSpaceOnUse">
<stop stop-color="#FF1CF7"/>
<stop offset="1" stop-color="#00F0FF"/>
</linearGradient>
<linearGradient id="paint2_linear_62_47" x1="140.477" y1="225.258" x2="409.143" y2="231.099" gradientUnits="userSpaceOnUse">
<stop stop-color="#FF1CF7"/>
<stop offset="1" stop-color="#00F0FF"/>
</linearGradient>
<linearGradient id="paint3_linear_62_47" x1="410.477" y1="225.258" x2="679.143" y2="231.099" gradientUnits="userSpaceOnUse">
<stop stop-color="#FF1CF7"/>
<stop offset="1" stop-color="#00F0FF"/>
</linearGradient>
<linearGradient id="paint4_linear_62_47" x1="680.477" y1="225.258" x2="949.143" y2="231.099" gradientUnits="userSpaceOnUse">
<stop stop-color="#FF1CF7"/>
<stop offset="1" stop-color="#00F0FF"/>
</linearGradient>
<linearGradient id="paint5_linear_62_47" x1="275.477" y1="35.2585" x2="544.143" y2="41.0994" gradientUnits="userSpaceOnUse">
<stop stop-color="#FF1CF7"/>
<stop offset="1" stop-color="#00F0FF"/>
</linearGradient>
<linearGradient id="paint6_linear_62_47" x1="545.477" y1="35.2585" x2="814.143" y2="41.0994" gradientUnits="userSpaceOnUse">
<stop stop-color="#FF1CF7"/>
<stop offset="1" stop-color="#00F0FF"/>
</linearGradient>
<linearGradient id="paint7_linear_62_47" x1="815.477" y1="35.2585" x2="1084.14" y2="41.0994" gradientUnits="userSpaceOnUse">
<stop stop-color="#FF1CF7"/>
<stop offset="1" stop-color="#00F0FF"/>
</linearGradient>
</defs>
</svg>
