<svg width="55" height="56" viewBox="0 0 55 56" fill="none" xmlns="http://www.w3.org/2000/svg">
<g opacity="0.5" clip-path="url(#clip0_124_503)">
<path d="M35.3598 22.2001C36.3011 22.2001 37.0642 21.4204 37.0642 20.4585C37.0642 19.4966 36.3011 18.7168 35.3598 18.7168C34.4184 18.7168 33.6553 19.4966 33.6553 20.4585C33.6553 21.4204 34.4184 22.2001 35.3598 22.2001Z" fill="#00F0FF"/>
<path d="M23.7862 22.0973C24.9681 21.2904 26.3572 20.8599 27.7781 20.8599C29.6834 20.8599 31.5112 21.6332 32.8592 23.0106C34.2072 24.3881 34.965 26.2568 34.965 28.2058C34.965 29.6592 34.5432 31.0798 33.7532 32.2879C32.9632 33.4959 31.8406 34.4372 30.5277 34.9929C29.2147 35.5486 27.7701 35.6939 26.3765 35.4107C24.9828 35.1274 23.7024 34.4281 22.6971 33.401C21.6918 32.3738 21.007 31.0648 20.7295 29.6393C20.452 28.2139 20.5945 26.7365 21.1387 25.3939C21.6829 24.0513 22.6044 22.9042 23.7862 22.0973ZM25.0874 32.3167C25.8836 32.8604 26.82 33.1507 27.7781 33.1507C29.063 33.1507 30.2947 32.6291 31.2025 31.7015C32.1102 30.774 32.6198 29.5165 32.6198 28.2058C32.6198 27.2283 32.3361 26.2726 31.8044 25.4594C31.2727 24.6463 30.5167 24.0122 29.6317 23.6376C28.7467 23.2631 27.7728 23.165 26.8331 23.356C25.8935 23.547 25.0307 24.0183 24.3538 24.71C23.6769 25.4017 23.2161 26.2827 23.0295 27.2415C22.8428 28.2003 22.9386 29.1941 23.3048 30.0974C23.6709 31.0007 24.2912 31.7731 25.0874 32.3167Z" fill="#00F0FF" stroke="#0D0D0D" stroke-width="0.213889"/>
<path d="M36.1923 16.793L36.1909 16.7924C35.3353 16.4686 34.4315 16.2973 33.519 16.286C32.0206 16.2158 31.5676 16.2013 27.7763 16.2013C23.9849 16.2013 23.5319 16.2158 22.0335 16.286C21.121 16.2973 20.2173 16.4686 19.3616 16.7924L19.3616 16.7924L19.3602 16.793C18.7334 17.0401 18.1643 17.4184 17.6894 17.9036C17.2146 18.3888 16.8446 18.9701 16.603 19.6099L16.603 19.6099L16.6025 19.6112C16.2858 20.485 16.1183 21.4078 16.1073 22.3394C16.0386 23.8704 16.0244 24.3331 16.0244 28.2072C16.0244 32.0814 16.0386 32.544 16.1073 34.0751C16.1183 35.0067 16.2858 35.9294 16.6025 36.8032L16.603 36.8045C16.8446 37.4444 17.2146 38.0256 17.6894 38.5108C18.1643 38.996 18.7334 39.3744 19.3602 39.6215L19.3616 39.622C20.2173 39.9458 21.1211 40.1171 22.0336 40.1284C23.5319 40.1986 23.9849 40.2131 27.7763 40.2131C31.5676 40.2131 32.0206 40.1986 33.519 40.1284C34.4315 40.1171 35.3353 39.9458 36.191 39.622L36.1923 39.6215C36.8192 39.3744 37.3883 38.996 37.8631 38.5108C38.338 38.0256 38.708 37.4444 38.9496 36.8045L38.95 36.8032C39.2667 35.9294 39.4342 35.0066 39.4453 34.075C39.514 32.544 39.5281 32.0838 39.5281 28.2084C39.5281 24.3331 39.514 23.8704 39.4453 22.3394C39.4342 21.4078 39.2667 20.485 38.95 19.6112L38.9495 19.6099C38.708 18.9701 38.338 18.3888 37.8631 17.9036C37.3883 17.4184 36.8192 17.0401 36.1923 16.793ZM21.9217 13.8874L21.9217 13.8874L21.9244 13.8873C23.4371 13.8172 23.9193 13.8003 27.7763 13.8003C31.6346 13.8003 32.1143 13.816 33.6268 13.8885L33.6268 13.8885L33.6297 13.8886C34.7955 13.9121 35.949 14.1374 37.0412 14.555C37.9706 14.9223 38.8148 15.4841 39.5197 16.2043C40.2246 16.9246 40.7746 17.7875 41.1343 18.7379C41.5435 19.854 41.7646 21.033 41.7881 22.2248L41.7882 22.2274C41.8568 23.7732 41.8733 24.2648 41.8733 28.2072C41.8733 32.1496 41.8568 32.64 41.7882 34.1858L41.7882 34.1858L41.7881 34.1885C41.7651 35.3806 41.5444 36.56 41.1355 37.6766C40.7758 38.6269 40.2258 39.4899 39.5209 40.2101C38.816 40.9304 37.9717 41.4921 37.0423 41.8594C35.9502 42.2774 34.7967 42.5032 33.6309 42.527L33.6281 42.5272C32.1155 42.5972 31.6333 42.6141 27.7763 42.6141C23.9193 42.6141 23.4382 42.5972 21.9256 42.5272L21.9256 42.5271L21.9229 42.5271C20.757 42.5032 19.6035 42.2774 18.5115 41.8594C17.582 41.4921 16.7378 40.9304 16.0329 40.2101C15.3279 39.4898 14.7779 38.6269 14.4182 37.6765C14.009 36.5603 13.788 35.3814 13.7644 34.1897L13.7643 34.187C13.6958 32.6413 13.6792 32.1496 13.6792 28.2072C13.6792 24.2648 13.6958 23.7744 13.7643 22.2286L13.7644 22.2286L13.7644 22.226C13.7878 21.0339 14.0089 19.8545 14.4182 18.738C14.7779 17.7876 15.3279 16.9246 16.0329 16.2043C16.7378 15.4841 17.582 14.9223 18.5114 14.555C19.6031 14.1371 20.7562 13.9114 21.9217 13.8874Z" fill="#00F0FF" stroke="#0D0D0D" stroke-width="0.213889"/>
<path d="M27.7785 0.738281C12.9559 0.738281 0.894531 13.0593 0.894531 28.207C0.894531 43.3547 12.9559 55.6757 27.7785 55.6757C42.6011 55.6757 54.6625 43.3547 54.6625 28.207C54.6625 13.0593 42.6011 0.738281 27.7785 0.738281ZM27.7785 53.846C13.9434 53.846 2.68847 42.3439 2.68847 28.207C2.68847 14.07 13.9434 2.56793 27.7785 2.56793C41.6136 2.56793 52.8685 14.07 52.8685 28.207C52.8685 42.3439 41.6136 53.846 27.7785 53.846Z" fill="#00F0FF"/>
</g>
<defs>
<clipPath id="clip0_124_503">
<rect width="53.6506" height="54.8209" fill="white" transform="translate(0.952148 0.795898)"/>
</clipPath>
</defs>
</svg>
