<svg width="21" height="21" viewBox="0 0 21 21" fill="none" xmlns="http://www.w3.org/2000/svg">
<path d="M13.0236 13.8842C13.1031 13.9736 13.1031 14.1623 13.0236 14.2716C12.2984 14.967 10.9474 15.0266 10.5401 15.0266C10.1527 15.0266 8.80162 14.967 8.09629 14.2716C7.99695 14.1623 7.99695 13.9736 8.09629 13.8842C8.20557 13.7848 8.37445 13.7848 8.47379 13.8842C8.93076 14.3411 9.8745 14.4703 10.5401 14.4703C11.2255 14.4703 12.1892 14.3411 12.6263 13.8842C12.7355 13.7848 12.9044 13.7848 13.0236 13.8842ZM9.29832 11.5298C9.29832 10.9635 8.83142 10.4966 8.26517 10.4966C7.69893 10.4966 7.23202 10.9635 7.23202 11.5298C7.23202 12.096 7.69893 12.5729 8.26517 12.5629C8.83142 12.5629 9.29832 12.096 9.29832 11.5298ZM12.815 10.4966C12.2488 10.4966 11.7819 10.9933 11.7819 11.5397C11.7819 12.0861 12.2488 12.5729 12.815 12.5729C13.3813 12.5729 13.8482 12.096 13.8482 11.5397C13.8482 10.9933 13.3813 10.4966 12.815 10.4966ZM20.4742 10.4966C20.4742 15.9604 16.0039 20.4308 10.5401 20.4308C5.07632 20.4308 0.605957 15.9604 0.605957 10.4966C0.605957 5.03286 5.07632 0.5625 10.5401 0.5625C16.0039 0.5625 20.4742 5.03286 20.4742 10.4966ZM17.1662 10.4966C17.1662 9.69197 16.5006 9.04625 15.7257 9.04625C15.3283 9.04625 14.9707 9.2052 14.7124 9.45355C13.719 8.73829 12.358 8.28132 10.8381 8.22172L11.5037 5.11233L13.6594 5.57924C13.6793 6.12562 14.1362 6.56272 14.6926 6.56272C15.2588 6.56272 15.7257 6.09581 15.7257 5.52957C15.7257 4.96332 15.2588 4.49642 14.6926 4.49642C14.2853 4.49642 13.9276 4.73484 13.7687 5.08253L11.3547 4.56596C11.2852 4.53615 11.2156 4.56596 11.1659 4.60569C11.1063 4.64543 11.0765 4.70503 11.0666 4.77457L10.3315 8.23165C8.79168 8.28132 7.40091 8.73829 6.38762 9.46348C6.12934 9.21513 5.77171 9.06612 5.38428 9.06612C4.57961 9.06612 3.93389 9.71184 3.93389 10.4966C3.93389 11.1026 4.29152 11.5993 4.78823 11.8278C4.76836 11.9868 4.75843 12.106 4.75843 12.2649C4.75843 14.4703 7.35123 16.3081 10.5401 16.3081C13.7488 16.3081 16.3516 14.5001 16.3516 12.2649C16.3516 12.1258 16.3416 11.9868 16.3118 11.8278C16.8085 11.5993 17.1662 11.0927 17.1662 10.4966Z" fill="white"/>
</svg>
