<svg width="1401" height="472" viewBox="0 0 1401 472" fill="none" xmlns="http://www.w3.org/2000/svg">
<path d="M42.7993 169.446C122.644 255.57 424.33 581.28 419.593 302.668C414.856 24.056 601.71 114.451 695.729 194.474C711.877 306.615 793.803 485.251 923.42 302.668C1057.77 187.692 1061.22 100.541 1368.04 302.668" stroke="url(#paint0_linear_393_680)" stroke-width="116.268"/>
<path d="M42.7993 169.446C122.644 255.57 424.33 581.28 419.593 302.668C414.856 24.056 601.71 114.451 695.729 194.474C711.877 306.615 793.803 485.251 923.42 302.668C1057.77 187.692 1061.22 100.541 1368.04 302.668" stroke="white" stroke-width="92.5836"/>
<path d="M42.7993 169.446C122.644 255.57 424.33 581.28 419.593 302.668C414.856 24.056 601.71 114.451 695.729 194.474C711.877 306.615 793.803 485.251 923.42 302.668C1057.77 187.692 1061.22 100.541 1368.04 302.668" stroke="black" stroke-width="92.5836"/>
<line x1="40.3963" y1="171.306" x2="60.8508" y2="191.76" stroke="white" stroke-width="5.38277"/>
<path d="M89.0908 219.504L109.545 239.958" stroke="white" stroke-width="5.38277"/>
<path d="M136.959 266.371L157.413 286.826" stroke="white" stroke-width="5.38277"/>
<path d="M184.904 312.086L207.497 330.151" stroke="white" stroke-width="5.38277"/>
<path d="M238.732 354.072L261.263 372.214" stroke="white" stroke-width="5.38277"/>
<path d="M281.794 386.369L304.325 404.511" stroke="white" stroke-width="5.38277"/>
<path d="M343.158 412.203L372.082 412.592" stroke="white" stroke-width="5.38277"/>
<path d="M395.729 397.674L414.247 375.451" stroke="white" stroke-width="5.38277"/>
<path d="M414.21 353.746L417.466 325.003" stroke="white" stroke-width="5.38277"/>
<path d="M417.44 311.762L420.695 283.018" stroke="white" stroke-width="5.38277"/>
<path d="M420.669 263.316L423.925 234.573" stroke="white" stroke-width="5.38277"/>
<path d="M488.492 124.504L516.747 118.304" stroke="white" stroke-width="5.38277"/>
<path d="M542.32 117.23L570.118 125.232" stroke="white" stroke-width="5.38277"/>
<path d="M590.033 134.486L617.142 144.578" stroke="white" stroke-width="5.38277"/>
<path d="M634.046 153.359L658.565 168.709" stroke="white" stroke-width="5.38277"/>
<path d="M673.66 178.594L695.897 197.095" stroke="white" stroke-width="5.38277"/>
<path d="M704.879 211.967L713.47 239.589" stroke="white" stroke-width="5.38277"/>
<path d="M718.875 259.334L727.847 286.834" stroke="white" stroke-width="5.38277"/>
<path d="M735.023 298.09L743.995 325.59" stroke="white" stroke-width="5.38277"/>
<path d="M755.478 337.924L778.034 356.034" stroke="white" stroke-width="5.38277"/>
<path d="M796.386 365.914L822.068 379.226" stroke="white" stroke-width="5.38277"/>
<path d="M846.984 372.434L873.349 360.531" stroke="white" stroke-width="5.38277"/>
<path d="M886.817 348.559L909.323 330.386" stroke="white" stroke-width="5.38277"/>
<path d="M923.42 311.746L943.108 290.553" stroke="white" stroke-width="5.38277"/>
<path d="M956.793 272.99L976.482 251.798" stroke="white" stroke-width="5.38277"/>
<path d="M990.166 234.236L1009.85 213.044" stroke="white" stroke-width="5.38277"/>
<path d="M1028.92 197.143L1053.46 181.823" stroke="white" stroke-width="5.38277"/>
<path d="M1081.67 178.594L1110.6 179.012" stroke="white" stroke-width="5.38277"/>
<path d="M1132.05 184.656L1159.26 194.479" stroke="white" stroke-width="5.38277"/>
<path d="M1181.79 203.354L1209 213.177" stroke="white" stroke-width="5.38277"/>
<path d="M1233.62 223.377L1258.36 238.366" stroke="white" stroke-width="5.38277"/>
<path d="M1268.99 244.262L1293.11 260.231" stroke="white" stroke-width="5.38277"/>
<path d="M1305.6 269.023L1329.72 282.839" stroke="white" stroke-width="5.38277"/>
<path d="M1342.2 291.631L1366.32 305.447" stroke="white" stroke-width="5.38277"/>
<path d="M448.919 156.098L469.395 135.665" stroke="white" stroke-width="5.38277"/>
<path d="M431.435 211.643L434.691 182.899" stroke="white" stroke-width="5.38277"/>
<path d="M1200.5 34.0037C1200.5 52.7833 1186.75 103.777 1167.1 107.089C1148.11 107.089 1132.49 52.7833 1132.49 34.0037C1132.49 15.224 1147.72 0 1166.5 0C1185.28 0 1200.5 15.224 1200.5 34.0037Z" fill="white"/>
<path d="M1167.1 121L1149.31 90.198L1184.88 90.198L1167.1 121Z" fill="white"/>
<g filter="url(#filter0_dddiii_393_680)">
<circle cx="1166.66" cy="35.9894" r="24.0675" fill="#00F0FF"/>
</g>
<path d="M755.5 46.0037C755.5 64.7833 741.749 115.777 722.098 119.089C703.109 119.089 687.493 64.7833 687.493 46.0037C687.493 27.224 702.717 12 721.497 12C740.277 12 755.5 27.224 755.5 46.0037Z" fill="white"/>
<path d="M722.098 133L704.314 102.198L739.881 102.198L722.098 133Z" fill="white"/>
<g filter="url(#filter1_dddiii_393_680)">
<circle cx="721.656" cy="47.9894" r="24.0675" fill="url(#paint1_linear_393_680)"/>
</g>
<path d="M250.5 160.004C250.5 178.783 236.749 229.777 217.098 233.089C198.109 233.089 182.493 178.783 182.493 160.004C182.493 141.224 197.717 126 216.497 126C235.277 126 250.5 141.224 250.5 160.004Z" fill="white"/>
<path d="M217.098 247L199.314 216.198L234.881 216.198L217.098 247Z" fill="white"/>
<g filter="url(#filter2_dddiii_393_680)">
<circle cx="216.656" cy="161.989" r="24.0675" fill="url(#paint2_linear_393_680)"/>
</g>
<defs>
<filter id="filter0_dddiii_393_680" x="1140.82" y="11.9219" width="51.6679" height="51.6676" filterUnits="userSpaceOnUse" color-interpolation-filters="sRGB">
<feFlood flood-opacity="0" result="BackgroundImageFix"/>
<feColorMatrix in="SourceAlpha" type="matrix" values="0 0 0 0 0 0 0 0 0 0 0 0 0 0 0 0 0 0 127 0" result="hardAlpha"/>
<feOffset dy="1.76642"/>
<feGaussianBlur stdDeviation="0.883212"/>
<feComposite in2="hardAlpha" operator="out"/>
<feColorMatrix type="matrix" values="0 0 0 0 0 0 0 0 0 0 0 0 0 0 0 0 0 0 0.25 0"/>
<feBlend mode="normal" in2="BackgroundImageFix" result="effect1_dropShadow_393_680"/>
<feColorMatrix in="SourceAlpha" type="matrix" values="0 0 0 0 0 0 0 0 0 0 0 0 0 0 0 0 0 0 127 0" result="hardAlpha"/>
<feOffset dy="1.76642"/>
<feGaussianBlur stdDeviation="0.883212"/>
<feComposite in2="hardAlpha" operator="out"/>
<feColorMatrix type="matrix" values="0 0 0 0 0 0 0 0 0 0 0 0 0 0 0 0 0 0 0.25 0"/>
<feBlend mode="normal" in2="effect1_dropShadow_393_680" result="effect2_dropShadow_393_680"/>
<feColorMatrix in="SourceAlpha" type="matrix" values="0 0 0 0 0 0 0 0 0 0 0 0 0 0 0 0 0 0 127 0" result="hardAlpha"/>
<feOffset dy="1.76642"/>
<feGaussianBlur stdDeviation="0.883212"/>
<feComposite in2="hardAlpha" operator="out"/>
<feColorMatrix type="matrix" values="0 0 0 0 0 0 0 0 0 0 0 0 0 0 0 0 0 0 0.25 0"/>
<feBlend mode="normal" in2="effect2_dropShadow_393_680" result="effect3_dropShadow_393_680"/>
<feBlend mode="normal" in="SourceGraphic" in2="effect3_dropShadow_393_680" result="shape"/>
<feColorMatrix in="SourceAlpha" type="matrix" values="0 0 0 0 0 0 0 0 0 0 0 0 0 0 0 0 0 0 127 0" result="hardAlpha"/>
<feOffset dy="1.76642"/>
<feGaussianBlur stdDeviation="0.883212"/>
<feComposite in2="hardAlpha" operator="arithmetic" k2="-1" k3="1"/>
<feColorMatrix type="matrix" values="0 0 0 0 0 0 0 0 0 0 0 0 0 0 0 0 0 0 0.25 0"/>
<feBlend mode="normal" in2="shape" result="effect4_innerShadow_393_680"/>
<feColorMatrix in="SourceAlpha" type="matrix" values="0 0 0 0 0 0 0 0 0 0 0 0 0 0 0 0 0 0 127 0" result="hardAlpha"/>
<feOffset dy="1.76642"/>
<feGaussianBlur stdDeviation="0.883212"/>
<feComposite in2="hardAlpha" operator="arithmetic" k2="-1" k3="1"/>
<feColorMatrix type="matrix" values="0 0 0 0 0 0 0 0 0 0 0 0 0 0 0 0 0 0 0.25 0"/>
<feBlend mode="normal" in2="effect4_innerShadow_393_680" result="effect5_innerShadow_393_680"/>
<feColorMatrix in="SourceAlpha" type="matrix" values="0 0 0 0 0 0 0 0 0 0 0 0 0 0 0 0 0 0 127 0" result="hardAlpha"/>
<feOffset dy="1.76642"/>
<feGaussianBlur stdDeviation="0.883212"/>
<feComposite in2="hardAlpha" operator="arithmetic" k2="-1" k3="1"/>
<feColorMatrix type="matrix" values="0 0 0 0 0 0 0 0 0 0 0 0 0 0 0 0 0 0 0.25 0"/>
<feBlend mode="normal" in2="effect5_innerShadow_393_680" result="effect6_innerShadow_393_680"/>
</filter>
<filter id="filter1_dddiii_393_680" x="695.822" y="23.9219" width="51.6679" height="51.6676" filterUnits="userSpaceOnUse" color-interpolation-filters="sRGB">
<feFlood flood-opacity="0" result="BackgroundImageFix"/>
<feColorMatrix in="SourceAlpha" type="matrix" values="0 0 0 0 0 0 0 0 0 0 0 0 0 0 0 0 0 0 127 0" result="hardAlpha"/>
<feOffset dy="1.76642"/>
<feGaussianBlur stdDeviation="0.883212"/>
<feComposite in2="hardAlpha" operator="out"/>
<feColorMatrix type="matrix" values="0 0 0 0 0 0 0 0 0 0 0 0 0 0 0 0 0 0 0.25 0"/>
<feBlend mode="normal" in2="BackgroundImageFix" result="effect1_dropShadow_393_680"/>
<feColorMatrix in="SourceAlpha" type="matrix" values="0 0 0 0 0 0 0 0 0 0 0 0 0 0 0 0 0 0 127 0" result="hardAlpha"/>
<feOffset dy="1.76642"/>
<feGaussianBlur stdDeviation="0.883212"/>
<feComposite in2="hardAlpha" operator="out"/>
<feColorMatrix type="matrix" values="0 0 0 0 0 0 0 0 0 0 0 0 0 0 0 0 0 0 0.25 0"/>
<feBlend mode="normal" in2="effect1_dropShadow_393_680" result="effect2_dropShadow_393_680"/>
<feColorMatrix in="SourceAlpha" type="matrix" values="0 0 0 0 0 0 0 0 0 0 0 0 0 0 0 0 0 0 127 0" result="hardAlpha"/>
<feOffset dy="1.76642"/>
<feGaussianBlur stdDeviation="0.883212"/>
<feComposite in2="hardAlpha" operator="out"/>
<feColorMatrix type="matrix" values="0 0 0 0 0 0 0 0 0 0 0 0 0 0 0 0 0 0 0.25 0"/>
<feBlend mode="normal" in2="effect2_dropShadow_393_680" result="effect3_dropShadow_393_680"/>
<feBlend mode="normal" in="SourceGraphic" in2="effect3_dropShadow_393_680" result="shape"/>
<feColorMatrix in="SourceAlpha" type="matrix" values="0 0 0 0 0 0 0 0 0 0 0 0 0 0 0 0 0 0 127 0" result="hardAlpha"/>
<feOffset dy="1.76642"/>
<feGaussianBlur stdDeviation="0.883212"/>
<feComposite in2="hardAlpha" operator="arithmetic" k2="-1" k3="1"/>
<feColorMatrix type="matrix" values="0 0 0 0 0 0 0 0 0 0 0 0 0 0 0 0 0 0 0.25 0"/>
<feBlend mode="normal" in2="shape" result="effect4_innerShadow_393_680"/>
<feColorMatrix in="SourceAlpha" type="matrix" values="0 0 0 0 0 0 0 0 0 0 0 0 0 0 0 0 0 0 127 0" result="hardAlpha"/>
<feOffset dy="1.76642"/>
<feGaussianBlur stdDeviation="0.883212"/>
<feComposite in2="hardAlpha" operator="arithmetic" k2="-1" k3="1"/>
<feColorMatrix type="matrix" values="0 0 0 0 0 0 0 0 0 0 0 0 0 0 0 0 0 0 0.25 0"/>
<feBlend mode="normal" in2="effect4_innerShadow_393_680" result="effect5_innerShadow_393_680"/>
<feColorMatrix in="SourceAlpha" type="matrix" values="0 0 0 0 0 0 0 0 0 0 0 0 0 0 0 0 0 0 127 0" result="hardAlpha"/>
<feOffset dy="1.76642"/>
<feGaussianBlur stdDeviation="0.883212"/>
<feComposite in2="hardAlpha" operator="arithmetic" k2="-1" k3="1"/>
<feColorMatrix type="matrix" values="0 0 0 0 0 0 0 0 0 0 0 0 0 0 0 0 0 0 0.25 0"/>
<feBlend mode="normal" in2="effect5_innerShadow_393_680" result="effect6_innerShadow_393_680"/>
</filter>
<filter id="filter2_dddiii_393_680" x="190.822" y="137.922" width="51.6681" height="51.6676" filterUnits="userSpaceOnUse" color-interpolation-filters="sRGB">
<feFlood flood-opacity="0" result="BackgroundImageFix"/>
<feColorMatrix in="SourceAlpha" type="matrix" values="0 0 0 0 0 0 0 0 0 0 0 0 0 0 0 0 0 0 127 0" result="hardAlpha"/>
<feOffset dy="1.76642"/>
<feGaussianBlur stdDeviation="0.883212"/>
<feComposite in2="hardAlpha" operator="out"/>
<feColorMatrix type="matrix" values="0 0 0 0 0 0 0 0 0 0 0 0 0 0 0 0 0 0 0.25 0"/>
<feBlend mode="normal" in2="BackgroundImageFix" result="effect1_dropShadow_393_680"/>
<feColorMatrix in="SourceAlpha" type="matrix" values="0 0 0 0 0 0 0 0 0 0 0 0 0 0 0 0 0 0 127 0" result="hardAlpha"/>
<feOffset dy="1.76642"/>
<feGaussianBlur stdDeviation="0.883212"/>
<feComposite in2="hardAlpha" operator="out"/>
<feColorMatrix type="matrix" values="0 0 0 0 0 0 0 0 0 0 0 0 0 0 0 0 0 0 0.25 0"/>
<feBlend mode="normal" in2="effect1_dropShadow_393_680" result="effect2_dropShadow_393_680"/>
<feColorMatrix in="SourceAlpha" type="matrix" values="0 0 0 0 0 0 0 0 0 0 0 0 0 0 0 0 0 0 127 0" result="hardAlpha"/>
<feOffset dy="1.76642"/>
<feGaussianBlur stdDeviation="0.883212"/>
<feComposite in2="hardAlpha" operator="out"/>
<feColorMatrix type="matrix" values="0 0 0 0 0 0 0 0 0 0 0 0 0 0 0 0 0 0 0.25 0"/>
<feBlend mode="normal" in2="effect2_dropShadow_393_680" result="effect3_dropShadow_393_680"/>
<feBlend mode="normal" in="SourceGraphic" in2="effect3_dropShadow_393_680" result="shape"/>
<feColorMatrix in="SourceAlpha" type="matrix" values="0 0 0 0 0 0 0 0 0 0 0 0 0 0 0 0 0 0 127 0" result="hardAlpha"/>
<feOffset dy="1.76642"/>
<feGaussianBlur stdDeviation="0.883212"/>
<feComposite in2="hardAlpha" operator="arithmetic" k2="-1" k3="1"/>
<feColorMatrix type="matrix" values="0 0 0 0 0 0 0 0 0 0 0 0 0 0 0 0 0 0 0.25 0"/>
<feBlend mode="normal" in2="shape" result="effect4_innerShadow_393_680"/>
<feColorMatrix in="SourceAlpha" type="matrix" values="0 0 0 0 0 0 0 0 0 0 0 0 0 0 0 0 0 0 127 0" result="hardAlpha"/>
<feOffset dy="1.76642"/>
<feGaussianBlur stdDeviation="0.883212"/>
<feComposite in2="hardAlpha" operator="arithmetic" k2="-1" k3="1"/>
<feColorMatrix type="matrix" values="0 0 0 0 0 0 0 0 0 0 0 0 0 0 0 0 0 0 0.25 0"/>
<feBlend mode="normal" in2="effect4_innerShadow_393_680" result="effect5_innerShadow_393_680"/>
<feColorMatrix in="SourceAlpha" type="matrix" values="0 0 0 0 0 0 0 0 0 0 0 0 0 0 0 0 0 0 127 0" result="hardAlpha"/>
<feOffset dy="1.76642"/>
<feGaussianBlur stdDeviation="0.883212"/>
<feComposite in2="hardAlpha" operator="arithmetic" k2="-1" k3="1"/>
<feColorMatrix type="matrix" values="0 0 0 0 0 0 0 0 0 0 0 0 0 0 0 0 0 0 0.25 0"/>
<feBlend mode="normal" in2="effect5_innerShadow_393_680" result="effect6_innerShadow_393_680"/>
</filter>
<linearGradient id="paint0_linear_393_680" x1="245.642" y1="407.137" x2="246.889" y2="109.305" gradientUnits="userSpaceOnUse">
<stop stop-color="#FF1CF7"/>
<stop offset="1" stop-color="#00F0FF"/>
</linearGradient>
<linearGradient id="paint1_linear_393_680" x1="721.656" y1="23.9219" x2="721.656" y2="72.0569" gradientUnits="userSpaceOnUse">
<stop stop-color="#497CFF"/>
<stop offset="1" stop-color="#001664"/>
</linearGradient>
<linearGradient id="paint2_linear_393_680" x1="193.56" y1="145.289" x2="241.464" y2="146.178" gradientUnits="userSpaceOnUse">
<stop stop-color="#FF1CF7"/>
<stop offset="1" stop-color="#00F0FF"/>
</linearGradient>
</defs>
</svg>
