<svg width="200" height="385" viewBox="0 0 360 385" fill="none" xmlns="http://www.w3.org/2000/svg">
<circle cx="162.612" cy="192.726" r="130.491" fill="url(#paint0_linear_221_5895)"/>
<path fill-rule="evenodd" clip-rule="evenodd" d="M166.469 384.275C166.716 384.276 166.964 384.276 167.211 384.276C167.459 384.276 167.706 384.276 167.954 384.275H166.469ZM168.634 384.271C274.096 383.506 359.352 297.777 359.352 192.136C359.352 86.494 274.096 0.765077 168.634 0V54.206C244.159 54.9694 305.148 116.43 305.148 192.136C305.148 267.841 244.159 329.302 168.634 330.065V384.271Z" fill="url(#paint1_linear_221_5895)"/>
<circle cx="168.634" cy="192.727" r="164.035" stroke="url(#paint2_linear_221_5895)" stroke-width="9.19824"/>
<path d="M109.007 125.346C106.704 125.346 104.63 124.951 102.787 124.161C100.944 123.338 99.4961 122.186 98.4429 120.705C97.3898 119.224 96.8632 117.496 96.8632 115.522H102.886C103.018 117.003 103.593 118.22 104.614 119.175C105.667 120.129 107.131 120.606 109.007 120.606C110.949 120.606 112.463 120.146 113.549 119.224C114.635 118.27 115.178 117.052 115.178 115.571C115.178 114.419 114.832 113.481 114.141 112.757C113.483 112.033 112.644 111.474 111.624 111.079C110.636 110.684 109.254 110.256 107.477 109.795C105.239 109.203 103.412 108.61 101.997 108.018C100.615 107.393 99.4303 106.438 98.4429 105.155C97.4556 103.871 96.962 102.16 96.962 100.021C96.962 98.0461 97.4556 96.3183 98.4429 94.8373C99.4303 93.3564 100.813 92.2209 102.59 91.4311C104.367 90.6412 106.424 90.2463 108.76 90.2463C112.084 90.2463 114.8 91.0855 116.906 92.764C119.045 94.4095 120.23 96.6803 120.46 99.5765H114.24C114.141 98.3259 113.549 97.2563 112.463 96.3677C111.377 95.4791 109.945 95.0348 108.168 95.0348C106.555 95.0348 105.239 95.4462 104.219 96.269C103.199 97.0917 102.688 98.2765 102.688 99.8233C102.688 100.876 103.001 101.749 103.626 102.44C104.285 103.098 105.107 103.624 106.095 104.019C107.082 104.414 108.431 104.842 110.143 105.303C112.414 105.928 114.257 106.554 115.672 107.179C117.12 107.804 118.337 108.775 119.325 110.091C120.345 111.375 120.855 113.103 120.855 115.275C120.855 117.019 120.378 118.665 119.424 120.211C118.502 121.758 117.136 123.009 115.326 123.963C113.549 124.885 111.443 125.346 109.007 125.346ZM135.049 102.39V117.447C135.049 118.467 135.279 119.208 135.74 119.668C136.233 120.096 137.056 120.31 138.208 120.31H141.664V125H137.221C134.687 125 132.745 124.408 131.396 123.223C130.046 122.038 129.372 120.113 129.372 117.447V102.39H126.163V97.7993H129.372V91.0362H135.049V97.7993H141.664V102.39H135.049ZM145.962 111.276C145.962 108.545 146.521 106.126 147.64 104.019C148.792 101.913 150.339 100.284 152.281 99.1322C154.256 97.9474 156.428 97.355 158.797 97.355C160.936 97.355 162.796 97.7828 164.376 98.6385C165.988 99.4613 167.272 100.498 168.226 101.749V97.7993H173.903V125H168.226V120.952C167.272 122.236 165.972 123.305 164.326 124.161C162.681 125.016 160.805 125.444 158.698 125.444C156.362 125.444 154.223 124.852 152.281 123.667C150.339 122.449 148.792 120.771 147.64 118.632C146.521 116.46 145.962 114.008 145.962 111.276ZM168.226 111.375C168.226 109.499 167.831 107.87 167.041 106.488C166.284 105.105 165.281 104.052 164.03 103.328C162.779 102.604 161.43 102.242 159.982 102.242C158.534 102.242 157.185 102.604 155.934 103.328C154.683 104.019 153.663 105.056 152.873 106.438C152.116 107.788 151.738 109.4 151.738 111.276C151.738 113.152 152.116 114.798 152.873 116.213C153.663 117.628 154.683 118.714 155.934 119.471C157.217 120.195 158.567 120.557 159.982 120.557C161.43 120.557 162.779 120.195 164.03 119.471C165.281 118.747 166.284 117.694 167.041 116.312C167.831 114.896 168.226 113.251 168.226 111.375ZM193.242 97.355C195.348 97.355 197.207 97.7828 198.82 98.6385C200.465 99.4613 201.749 100.498 202.67 101.749V97.7993H208.348V125.444C208.348 127.946 207.821 130.167 206.768 132.109C205.715 134.083 204.184 135.63 202.177 136.749C200.202 137.868 197.833 138.428 195.068 138.428C191.382 138.428 188.321 137.555 185.886 135.811C183.451 134.1 182.068 131.763 181.739 128.801H187.318C187.745 130.216 188.651 131.352 190.033 132.207C191.448 133.096 193.126 133.54 195.068 133.54C197.339 133.54 199.166 132.849 200.548 131.467C201.963 130.085 202.67 128.077 202.67 125.444V120.903C201.716 122.186 200.416 123.272 198.771 124.161C197.158 125.016 195.315 125.444 193.242 125.444C190.872 125.444 188.7 124.852 186.725 123.667C184.784 122.449 183.237 120.771 182.085 118.632C180.966 116.46 180.406 114.008 180.406 111.276C180.406 108.545 180.966 106.126 182.085 104.019C183.237 101.913 184.784 100.284 186.725 99.1322C188.7 97.9474 190.872 97.355 193.242 97.355ZM202.67 111.375C202.67 109.499 202.276 107.87 201.486 106.488C200.729 105.105 199.725 104.052 198.474 103.328C197.224 102.604 195.874 102.242 194.426 102.242C192.978 102.242 191.629 102.604 190.378 103.328C189.128 104.019 188.108 105.056 187.318 106.438C186.561 107.788 186.182 109.4 186.182 111.276C186.182 113.152 186.561 114.798 187.318 116.213C188.108 117.628 189.128 118.714 190.378 119.471C191.662 120.195 193.011 120.557 194.426 120.557C195.874 120.557 197.224 120.195 198.474 119.471C199.725 118.747 200.729 117.694 201.486 116.312C202.276 114.896 202.67 113.251 202.67 111.375ZM241.657 110.733C241.657 111.753 241.591 112.675 241.459 113.498H220.676C220.841 115.67 221.647 117.414 223.095 118.731C224.543 120.047 226.32 120.705 228.426 120.705C231.454 120.705 233.593 119.438 234.844 116.904H240.916C240.093 119.405 238.596 121.462 236.424 123.075C234.285 124.654 231.619 125.444 228.426 125.444C225.827 125.444 223.49 124.868 221.416 123.716C219.376 122.532 217.763 120.886 216.579 118.78C215.427 116.641 214.851 114.172 214.851 111.375C214.851 108.578 215.41 106.126 216.529 104.019C217.681 101.88 219.277 100.235 221.318 99.0828C223.391 97.9309 225.761 97.355 228.426 97.355C230.993 97.355 233.281 97.9145 235.288 99.0335C237.296 100.152 238.859 101.732 239.978 103.773C241.097 105.78 241.657 108.1 241.657 110.733ZM235.782 108.956C235.749 106.883 235.009 105.221 233.561 103.97C232.112 102.719 230.319 102.094 228.18 102.094C226.238 102.094 224.576 102.719 223.194 103.97C221.811 105.188 220.989 106.85 220.725 108.956H235.782Z" fill="white" fill-opacity="0.8"/>
<path d="M99.3315 230.571C99.3315 216.985 101.938 206.282 107.151 198.463C112.443 190.643 120.934 186.733 132.624 186.733C144.314 186.733 152.765 190.643 157.978 198.463C163.27 206.282 165.916 216.985 165.916 230.571C165.916 244.314 163.27 255.096 157.978 262.915C152.765 270.735 144.314 274.645 132.624 274.645C120.934 274.645 112.443 270.735 107.151 262.915C101.938 255.096 99.3315 244.314 99.3315 230.571ZM146.012 230.571C146.012 222.593 145.143 216.472 143.406 212.206C141.668 207.862 138.074 205.69 132.624 205.69C127.174 205.69 123.58 207.862 121.842 212.206C120.105 216.472 119.236 222.593 119.236 230.571C119.236 235.942 119.552 240.404 120.184 243.959C120.816 247.434 122.079 250.277 123.975 252.489C125.95 254.622 128.833 255.688 132.624 255.688C136.415 255.688 139.259 254.622 141.154 252.489C143.129 250.277 144.432 247.434 145.064 243.959C145.696 240.404 146.012 235.942 146.012 230.571ZM176.857 207.349V188.511H209.676V275H188.587V207.349H176.857Z" fill="url(#paint3_linear_221_5895)"/>
<defs>
<linearGradient id="paint0_linear_221_5895" x1="162.612" y1="62.2354" x2="162.612" y2="323.217" gradientUnits="userSpaceOnUse">
<stop stop-color="#497CFF"/>
<stop offset="1" stop-color="#001664"/>
</linearGradient>
<linearGradient id="paint1_linear_221_5895" x1="170.361" y1="58.8179" x2="362.365" y2="60.6054" gradientUnits="userSpaceOnUse">
<stop stop-color="#FF1CF7"/>
<stop offset="1" stop-color="#00F0FF"/>
</linearGradient>
<linearGradient id="paint2_linear_221_5895" x1="6.80588" y1="75.7151" x2="342.452" y2="81.9408" gradientUnits="userSpaceOnUse">
<stop stop-color="#FF1CF7"/>
<stop offset="1" stop-color="#00F0FF"/>
</linearGradient>
<linearGradient id="paint3_linear_221_5895" x1="96.5224" y1="172.245" x2="220.943" y2="173.866" gradientUnits="userSpaceOnUse">
<stop stop-color="#FF1CF7"/>
<stop offset="1" stop-color="#00F0FF"/>
</linearGradient>
</defs>
</svg>
