<svg width="200" height="385" viewBox="0 0 360 385" fill="none" xmlns="http://www.w3.org/2000/svg">
<circle cx="184.696" cy="192.732" r="130.491" fill="url(#paint0_linear_221_5896)"/>
<path fill-rule="evenodd" clip-rule="evenodd" d="M192.883 0.00137329C192.636 0.000427246 192.388 -3.05176e-05 192.141 -3.05176e-05C191.893 -3.05176e-05 191.646 0.000427246 191.399 0.00137329H192.883ZM190.717 0.00512695C85.2563 0.770294 0.000152588 86.4992 0.000152588 192.141C0.000152588 297.782 85.2563 383.511 190.717 384.276V330.07C115.193 329.307 54.2041 267.846 54.2041 192.141C54.2041 116.435 115.193 54.9746 190.717 54.2111V0.00512695Z" fill="url(#paint1_linear_221_5896)"/>
<circle cx="190.718" cy="192.731" r="164.035" stroke="url(#paint2_linear_221_5896)" stroke-width="9.19824"/>
<path d="M131.445 120.602C129.142 120.602 127.068 120.207 125.225 119.418C123.382 118.595 121.934 117.443 120.881 115.962C119.828 114.481 119.301 112.753 119.301 110.779H125.324C125.456 112.26 126.031 113.477 127.052 114.432C128.105 115.386 129.569 115.863 131.445 115.863C133.387 115.863 134.901 115.403 135.987 114.481C137.073 113.527 137.616 112.309 137.616 110.828C137.616 109.676 137.27 108.738 136.579 108.014C135.921 107.29 135.082 106.731 134.062 106.336C133.074 105.941 131.692 105.513 129.915 105.052C127.677 104.46 125.85 103.867 124.435 103.275C123.053 102.65 121.868 101.695 120.881 100.412C119.894 99.1282 119.4 97.4168 119.4 95.2776C119.4 93.303 119.894 91.5752 120.881 90.0942C121.868 88.6132 123.251 87.4778 125.028 86.6879C126.805 85.8981 128.862 85.5031 131.198 85.5031C134.522 85.5031 137.238 86.3424 139.344 88.0208C141.483 89.6663 142.668 91.9372 142.898 94.8333H136.678C136.579 93.5827 135.987 92.5131 134.901 91.6245C133.815 90.7359 132.383 90.2916 130.606 90.2916C128.993 90.2916 127.677 90.703 126.657 91.5258C125.637 92.3486 125.126 93.5333 125.126 95.0801C125.126 96.1333 125.439 97.0054 126.064 97.6965C126.723 98.3548 127.545 98.8813 128.533 99.2763C129.52 99.6712 130.869 100.099 132.581 100.56C134.852 101.185 136.695 101.81 138.11 102.436C139.558 103.061 140.775 104.032 141.763 105.348C142.783 106.632 143.293 108.36 143.293 110.532C143.293 112.276 142.816 113.922 141.862 115.468C140.94 117.015 139.574 118.266 137.764 119.22C135.987 120.142 133.881 120.602 131.445 120.602ZM157.487 97.6472V112.704C157.487 113.724 157.717 114.465 158.178 114.925C158.671 115.353 159.494 115.567 160.646 115.567H164.102V120.257H159.659C157.125 120.257 155.183 119.664 153.834 118.48C152.484 117.295 151.81 115.37 151.81 112.704V97.6472H148.601V93.0561H151.81V86.293H157.487V93.0561H164.102V97.6472H157.487ZM168.4 106.533C168.4 103.801 168.959 101.383 170.078 99.2763C171.23 97.17 172.777 95.5409 174.719 94.389C176.693 93.2042 178.866 92.6118 181.235 92.6118C183.374 92.6118 185.234 93.0397 186.814 93.8954C188.426 94.7181 189.71 95.7548 190.664 97.0054V93.0561H196.341V120.257H190.664V116.209C189.71 117.492 188.41 118.562 186.764 119.418C185.119 120.273 183.243 120.701 181.136 120.701C178.8 120.701 176.661 120.109 174.719 118.924C172.777 117.706 171.23 116.028 170.078 113.889C168.959 111.717 168.4 109.265 168.4 106.533ZM190.664 106.632C190.664 104.756 190.269 103.127 189.479 101.745C188.722 100.362 187.719 99.3092 186.468 98.5851C185.217 97.8611 183.868 97.4991 182.42 97.4991C180.972 97.4991 179.623 97.8611 178.372 98.5851C177.121 99.2763 176.101 100.313 175.311 101.695C174.554 103.045 174.176 104.657 174.176 106.533C174.176 108.409 174.554 110.055 175.311 111.47C176.101 112.885 177.121 113.971 178.372 114.728C179.655 115.452 181.005 115.814 182.42 115.814C183.868 115.814 185.217 115.452 186.468 114.728C187.719 114.004 188.722 112.951 189.479 111.568C190.269 110.153 190.664 108.508 190.664 106.632ZM215.68 92.6118C217.786 92.6118 219.645 93.0397 221.258 93.8954C222.903 94.7181 224.187 95.7548 225.108 97.0054V93.0561H230.786V120.701C230.786 123.202 230.259 125.424 229.206 127.366C228.153 129.34 226.622 130.887 224.615 132.006C222.64 133.125 220.271 133.684 217.506 133.684C213.82 133.684 210.759 132.812 208.324 131.068C205.889 129.357 204.506 127.02 204.177 124.058H209.756C210.183 125.473 211.089 126.609 212.471 127.464C213.886 128.353 215.564 128.797 217.506 128.797C219.777 128.797 221.603 128.106 222.986 126.724C224.401 125.342 225.108 123.334 225.108 120.701V116.159C224.154 117.443 222.854 118.529 221.209 119.418C219.596 120.273 217.753 120.701 215.68 120.701C213.31 120.701 211.138 120.109 209.163 118.924C207.222 117.706 205.675 116.028 204.523 113.889C203.404 111.717 202.844 109.265 202.844 106.533C202.844 103.801 203.404 101.383 204.523 99.2763C205.675 97.17 207.222 95.5409 209.163 94.389C211.138 93.2042 213.31 92.6118 215.68 92.6118ZM225.108 106.632C225.108 104.756 224.714 103.127 223.924 101.745C223.167 100.362 222.163 99.3092 220.912 98.5851C219.662 97.8611 218.312 97.4991 216.864 97.4991C215.416 97.4991 214.067 97.8611 212.816 98.5851C211.566 99.2763 210.545 100.313 209.756 101.695C208.999 103.045 208.62 104.657 208.62 106.533C208.62 108.409 208.999 110.055 209.756 111.47C210.545 112.885 211.566 113.971 212.816 114.728C214.1 115.452 215.449 115.814 216.864 115.814C218.312 115.814 219.662 115.452 220.912 114.728C222.163 114.004 223.167 112.951 223.924 111.568C224.714 110.153 225.108 108.508 225.108 106.632ZM264.095 105.99C264.095 107.01 264.029 107.932 263.897 108.755H243.114C243.279 110.927 244.085 112.671 245.533 113.987C246.981 115.304 248.758 115.962 250.864 115.962C253.892 115.962 256.031 114.695 257.282 112.161H263.354C262.531 114.662 261.034 116.719 258.862 118.332C256.723 119.911 254.057 120.701 250.864 120.701C248.264 120.701 245.928 120.125 243.854 118.973C241.814 117.789 240.201 116.143 239.017 114.037C237.865 111.898 237.289 109.429 237.289 106.632C237.289 103.834 237.848 101.383 238.967 99.2763C240.119 97.1371 241.715 95.4915 243.756 94.3397C245.829 93.1878 248.199 92.6118 250.864 92.6118C253.431 92.6118 255.719 93.1713 257.726 94.2903C259.734 95.4093 261.297 96.989 262.416 99.0294C263.535 101.037 264.095 103.357 264.095 105.99ZM258.22 104.213C258.187 102.139 257.447 100.478 255.999 99.2269C254.55 97.9763 252.757 97.351 250.618 97.351C248.676 97.351 247.014 97.9763 245.632 99.2269C244.249 100.445 243.427 102.107 243.163 104.213H258.22Z" fill="white" fill-opacity="0.8"/>
<path d="M121.77 226.106C121.77 212.52 124.376 201.818 129.589 193.998C134.881 186.178 143.372 182.269 155.062 182.269C166.752 182.269 175.203 186.178 180.416 193.998C185.708 201.818 188.354 212.52 188.354 226.106C188.354 239.849 185.708 250.631 180.416 258.45C175.203 266.27 166.752 270.18 155.062 270.18C143.372 270.18 134.881 266.27 129.589 258.45C124.376 250.631 121.77 239.849 121.77 226.106ZM168.45 226.106C168.45 218.128 167.581 212.007 165.844 207.742C164.106 203.397 160.512 201.225 155.062 201.225C149.612 201.225 146.018 203.397 144.28 207.742C142.543 212.007 141.674 218.128 141.674 226.106C141.674 231.477 141.99 235.939 142.622 239.494C143.254 242.969 144.517 245.813 146.413 248.024C148.388 250.157 151.271 251.223 155.062 251.223C158.853 251.223 161.697 250.157 163.592 248.024C165.567 245.813 166.87 242.969 167.502 239.494C168.134 235.939 168.45 231.477 168.45 226.106ZM200.717 254.304C203.402 252.171 204.627 251.184 204.39 251.342C212.13 244.944 218.212 239.691 222.635 235.584C227.138 231.477 230.929 227.172 234.009 222.67C237.09 218.168 238.63 213.784 238.63 209.519C238.63 206.28 237.88 203.753 236.379 201.936C234.878 200.119 232.627 199.211 229.626 199.211C226.624 199.211 224.255 200.356 222.517 202.647C220.858 204.859 220.029 208.018 220.029 212.125H200.48C200.638 205.411 202.06 199.803 204.745 195.301C207.51 190.799 211.104 187.482 215.527 185.349C220.029 183.216 225.005 182.15 230.455 182.15C239.854 182.15 246.924 184.559 251.663 189.377C256.481 194.195 258.89 200.475 258.89 208.215C258.89 216.667 256.007 224.526 250.241 231.793C244.475 238.98 237.129 246.01 228.204 252.882H260.193V269.35H200.717V254.304Z" fill="url(#paint3_linear_221_5896)"/>
<defs>
<linearGradient id="paint0_linear_221_5896" x1="184.696" y1="62.2407" x2="184.696" y2="323.223" gradientUnits="userSpaceOnUse">
<stop stop-color="#497CFF"/>
<stop offset="1" stop-color="#001664"/>
</linearGradient>
<linearGradient id="paint1_linear_221_5896" x1="188.991" y1="325.459" x2="-3.01327" y2="323.671" gradientUnits="userSpaceOnUse">
<stop stop-color="#FF1CF7"/>
<stop offset="1" stop-color="#00F0FF"/>
</linearGradient>
<linearGradient id="paint2_linear_221_5896" x1="28.8894" y1="75.7195" x2="364.535" y2="81.9452" gradientUnits="userSpaceOnUse">
<stop stop-color="#FF1CF7"/>
<stop offset="1" stop-color="#00F0FF"/>
</linearGradient>
<linearGradient id="paint3_linear_221_5896" x1="119.425" y1="167.78" x2="266.728" y2="170.052" gradientUnits="userSpaceOnUse">
<stop stop-color="#FF1CF7"/>
<stop offset="1" stop-color="#00F0FF"/>
</linearGradient>
</defs>
</svg>
