<svg width="21" height="18" viewBox="0 0 21 18" fill="none" xmlns="http://www.w3.org/2000/svg">
<path d="M20.8462 2.344C20.0812 2.6917 19.2567 2.92018 18.4024 3.02946C19.2766 2.50295 19.9521 1.66848 20.27 0.665136C19.4455 1.16184 18.5315 1.50954 17.5679 1.70822C16.7831 0.853885 15.6804 0.357178 14.4287 0.357178C12.0942 0.357178 10.1868 2.26453 10.1868 4.61892C10.1868 4.95668 10.2266 5.28451 10.2961 5.59247C6.75957 5.41365 3.61045 3.71492 1.51435 1.14197C1.14679 1.76783 0.938169 2.50295 0.938169 3.27781C0.938169 4.758 1.68323 6.06931 2.83559 6.81437C2.13026 6.81437 1.47461 6.61568 0.898432 6.31766V6.34746C0.898432 8.41376 2.36868 10.1423 4.31577 10.5297C3.69065 10.7008 3.03437 10.7246 2.39849 10.5993C2.6683 11.4461 3.19673 12.1872 3.90949 12.7182C4.62224 13.2492 5.48348 13.5434 6.37214 13.5596C4.86576 14.7522 2.9985 15.3968 1.07725 15.3875C0.739486 15.3875 0.401725 15.3677 0.0639648 15.3279C1.95145 16.5399 4.19657 17.2452 6.60063 17.2452C14.4287 17.2452 18.7302 10.7483 18.7302 5.11563C18.7302 4.92688 18.7302 4.74807 18.7203 4.55932C19.5547 3.96327 20.27 3.20827 20.8462 2.344Z" fill="white"/>
</svg>
