<svg width="55" height="56" viewBox="0 0 55 56" fill="none" xmlns="http://www.w3.org/2000/svg">
<path d="M27.301 0.738281C12.4783 0.738281 0.416992 13.0593 0.416992 28.207C0.416992 43.3547 12.4783 55.6757 27.301 55.6757C42.1236 55.6757 54.1849 43.3547 54.1849 28.207C54.1849 13.0593 42.1236 0.738281 27.301 0.738281ZM27.301 53.846C13.4658 53.846 2.21093 42.3439 2.21093 28.207C2.21093 14.07 13.4658 2.56793 27.301 2.56793C41.1361 2.56793 52.391 14.07 52.391 28.207C52.391 42.3439 41.1361 53.846 27.301 53.846Z" fill="#00F0FF"/>
<path d="M42.0444 19.7195C42.2304 19.3677 42.3836 18.9989 42.5021 18.6179C42.557 18.4412 42.5581 18.2516 42.5053 18.0742C42.4525 17.8968 42.3483 17.74 42.2065 17.6243C42.0646 17.5087 41.8918 17.4398 41.7108 17.4266C41.5298 17.4135 41.3492 17.4567 41.1927 17.5506C40.3336 18.0721 39.4037 18.4607 38.4331 18.7036C37.2549 17.6171 35.7248 17.0147 34.1377 17.0127C33.2754 17.0134 32.4222 17.1919 31.6292 17.5377C30.8361 17.8835 30.1195 18.3893 29.5224 19.0249C28.9253 19.6605 28.4599 20.4127 28.1542 21.2365C27.8485 22.0603 27.7087 22.9387 27.7432 23.8191C23.9726 23.334 20.5294 21.3844 18.128 18.3747C18.036 18.2606 17.9184 18.171 17.7853 18.1133C17.6521 18.0557 17.5073 18.0317 17.3631 18.0435C17.2189 18.0553 17.0797 18.1024 16.9571 18.1809C16.8346 18.2595 16.7325 18.3671 16.6593 18.4946C16.1095 19.459 15.8106 20.5512 15.7912 21.6672C15.7718 22.7831 16.0326 23.8855 16.5487 24.8692C16.4221 24.891 16.3005 24.9363 16.1899 25.0028C16.0543 25.0912 15.9427 25.213 15.8654 25.357C15.788 25.501 15.7474 25.6626 15.7473 25.8269C15.7473 27.7713 16.5939 29.5564 17.9587 30.7693L17.9 30.8293C17.797 30.9484 17.7261 31.0928 17.6943 31.2485C17.6626 31.4041 17.6711 31.5654 17.7189 31.7167C18.0035 32.6238 18.4787 33.4565 19.1112 34.1563C19.7437 34.8562 20.5182 35.4064 21.3806 35.7683C19.6094 36.6512 17.6273 36.9955 15.6702 36.7602C15.469 36.7393 15.2667 36.7871 15.0949 36.8962C14.9232 37.0053 14.7918 37.1696 14.7212 37.3632C14.6534 37.5583 14.6522 37.7711 14.7176 37.967C14.783 38.1629 14.9113 38.3305 15.0817 38.4425C17.7424 40.1875 20.8378 41.1145 23.9994 41.1133C34.3607 41.1133 40.554 32.5133 40.554 24.1994L40.5523 23.9184C41.5564 23.1174 42.4287 22.1573 43.1359 21.0746C43.243 20.9109 43.2957 20.7163 43.2861 20.5197C43.2765 20.323 43.2052 20.1348 43.0828 19.9827C42.9604 19.8307 42.7933 19.723 42.6062 19.6756C42.4192 19.6282 42.2222 19.6436 42.0444 19.7195ZM39.1188 22.7261C38.9971 22.8155 38.8993 22.9346 38.8343 23.0725C38.7693 23.2105 38.7391 23.3629 38.7466 23.5158C38.7567 23.742 38.7617 23.9715 38.7617 24.1977C38.7617 31.6122 33.2407 39.282 24.0011 39.282C22.3532 39.2827 20.7169 39.0001 19.1608 38.446C21.0245 38.081 22.7752 37.2644 24.266 36.0647C24.4111 35.9478 24.5173 35.7879 24.5702 35.6069C24.623 35.426 24.6198 35.2328 24.5611 35.0537C24.5024 34.8747 24.391 34.7186 24.2421 34.6067C24.0933 34.4948 23.9142 34.4326 23.7295 34.4286C23.0066 34.4145 22.297 34.227 21.6581 33.8812C21.0191 33.5354 20.4687 33.041 20.0511 32.4379C20.4752 32.4088 20.891 32.3369 21.2951 32.2255C21.4906 32.172 21.6627 32.0524 21.7831 31.8862C21.9036 31.7199 21.9654 31.5169 21.9584 31.3101C21.9514 31.1034 21.876 30.9052 21.7446 30.7479C21.6132 30.5905 21.4334 30.4834 21.2347 30.4438C20.4183 30.2741 19.6623 29.8808 19.0478 29.3059C18.4332 28.7311 17.9832 27.9963 17.7458 27.1803C18.1917 27.295 18.6494 27.3619 19.1071 27.3773C19.5011 27.3756 19.8666 27.1289 19.989 26.7417C20.1114 26.3545 19.9672 25.9279 19.6336 25.7018C18.8447 25.1647 18.2373 24.392 17.8943 23.489C17.5513 22.586 17.4895 21.5968 17.7173 20.6566C20.6295 23.7099 24.562 25.5282 28.729 25.7481C29.0241 25.7498 29.2823 25.6418 29.4617 25.4209C29.6411 25.1999 29.7098 24.9069 29.6461 24.6259C29.4168 23.6169 29.5194 22.5588 29.9379 21.6153C30.3565 20.6718 31.0677 19.8956 31.9615 19.4067C32.8553 18.9179 33.8819 18.7437 34.8823 18.9111C35.8828 19.0785 36.8013 19.5782 37.4959 20.3328C37.6 20.4463 37.7306 20.5308 37.8755 20.5785C38.0204 20.6261 38.1748 20.6353 38.3241 20.6052C38.6007 20.5486 38.874 20.4835 39.144 20.4082C39.0223 20.5012 38.8958 20.5876 38.765 20.6669C38.5912 20.7757 38.4588 20.9418 38.3897 21.1378C38.3206 21.3338 38.3189 21.548 38.3849 21.7451C38.4509 21.9422 38.5806 22.1105 38.7527 22.2221C38.9249 22.3338 39.1291 22.3822 39.3317 22.3594L39.6369 22.32C39.4688 22.4615 39.296 22.5969 39.1188 22.7261Z" fill="#00F0FF"/>
</svg>
