<svg width="64" height="68" viewBox="0 0 64 68" fill="none" xmlns="http://www.w3.org/2000/svg">
<path d="M27.3268 0.678711L51.6535 8.27871C52.332 8.49052 52.925 8.91365 53.3459 9.48634C53.7669 10.059 53.9938 10.7513 53.9935 11.462V17.3454H60.6602C61.5442 17.3454 62.3921 17.6966 63.0172 18.3217C63.6423 18.9468 63.9935 19.7947 63.9935 20.6787V27.3454H20.6602V20.6787C20.6602 19.7947 21.0114 18.9468 21.6365 18.3217C22.2616 17.6966 23.1094 17.3454 23.9935 17.3454H47.3268V13.912L27.3268 7.65871L7.32682 13.912V38.592C7.32635 40.6328 7.79432 42.6464 8.69471 44.4778C9.59509 46.3092 10.9038 47.9095 12.5202 49.1554L13.1502 49.6087L27.3268 59.2787L39.9335 50.6787H23.9935C23.1094 50.6787 22.2616 50.3275 21.6365 49.7024C21.0114 49.0773 20.6602 48.2294 20.6602 47.3454V34.012H63.9935V47.3454C63.9935 48.2294 63.6423 49.0773 63.0172 49.7024C62.3921 50.3275 61.5442 50.6787 60.6602 50.6787L49.9268 50.682C48.6368 52.382 47.0702 53.882 45.2602 55.1154L27.3268 67.3454L9.39349 55.1187C6.7019 53.2836 4.49933 50.8187 2.97729 47.9384C1.45525 45.0582 0.659819 41.8497 0.660156 38.592V11.462C0.660558 10.7519 0.887778 10.0603 1.3087 9.48833C1.72962 8.91631 2.32223 8.49368 3.00016 8.28205L27.3268 0.678711Z" fill="url(#paint0_linear_119_1551)"/>
<defs>
<linearGradient id="paint0_linear_119_1551" x1="32.3268" y1="0.678707" x2="117.557" y2="23.5946" gradientUnits="userSpaceOnUse">
<stop stop-color="#FD5A14"/>
<stop offset="0.609375" stop-color="#FFF06B" stop-opacity="0.59"/>
<stop offset="1" stop-color="#060ED0" stop-opacity="0.28"/>
</linearGradient>
</defs>
</svg>
